M48
; DRILL file {KiCad 7.0.2} date Tue Oct  3 23:20:54 2023
; FORMAT={-:-/ absolute / inch / decimal}
; #@! TF.CreationDate,2023-10-03T23:20:54+09:00
; #@! TF.GenerationSoftware,Kicad,Pcbnew,7.0.2
; #@! TF.FileFunction,Plated,1,2,PTH
FMAT,2
INCH
; #@! TA.AperFunction,Plated,PTH,ComponentDrill
T1C0.0315
; #@! TA.AperFunction,Plated,PTH,ComponentDrill
T2C0.0354
; #@! TA.AperFunction,Plated,PTH,ComponentDrill
T3C0.0374
; #@! TA.AperFunction,Plated,PTH,ComponentDrill
T4C0.0394
; #@! TA.AperFunction,Plated,PTH,ComponentDrill
T5C0.0402
; #@! TA.AperFunction,Plated,PTH,ComponentDrill
T6C0.0433
%
G90
G05
T1
X4.5496Y-2.7504
X4.5496Y-2.8504
X4.5496Y-2.9504
X4.5496Y-3.0504
X4.5496Y-3.1504
X4.5496Y-3.2504
X4.5496Y-3.3504
X4.5496Y-3.4504
X4.5496Y-3.5504
X4.8496Y-2.7504
X4.8496Y-2.8504
X4.8496Y-2.9504
X4.8496Y-3.0504
X4.8496Y-3.1504
X4.8496Y-3.2504
X4.8496Y-3.3504
X4.8496Y-3.4504
X4.8496Y-3.5504
X5.775Y-4.2
X5.775Y-4.2984
X5.975Y-2.1531
X5.975Y-2.35
X6.15Y-3.25
X6.15Y-3.35
X6.15Y-3.45
X6.15Y-3.55
X6.15Y-3.65
X6.15Y-3.75
X6.15Y-3.85
X6.15Y-3.95
X6.15Y-4.05
X6.1516Y-3.05
X6.3484Y-3.05
X6.45Y-3.25
X6.45Y-3.35
X6.45Y-3.45
X6.45Y-3.55
X6.45Y-3.65
X6.45Y-3.75
X6.45Y-3.85
X6.45Y-3.95
X6.45Y-4.05
X6.65Y-2.65
X6.6713Y-2.9
X6.75Y-2.45
X6.75Y-2.9
X6.75Y-3.8
X6.75Y-4.1
X6.85Y-3.8
X6.85Y-4.1
X6.95Y-3.8
X6.95Y-4.1
X7.05Y-2.65
X7.05Y-3.8
X7.05Y-4.1
X7.15Y-2.45
X7.15Y-3.8
X7.15Y-4.1
X7.2Y-2.65
X7.25Y-3.8
X7.25Y-4.1
X7.35Y-3.8
X7.35Y-4.1
X7.45Y-3.8
X7.45Y-4.1
X7.5Y-3.1
X7.55Y-3.8
X7.55Y-4.1
X7.6Y-2.65
X7.75Y-2.8
X7.85Y-2.7
X7.85Y-2.9
X7.85Y-3.55
X7.85Y-3.95
X7.9Y-3.1
X8.05Y-3.65
X8.05Y-4.05
T2
X6.25Y-2.15
X6.25Y-2.25
X6.35Y-2.15
X6.35Y-2.25
X6.45Y-2.15
X6.45Y-2.25
X6.55Y-2.15
X6.55Y-2.25
X6.65Y-2.15
X6.65Y-2.25
X6.75Y-2.15
X6.75Y-2.25
X6.85Y-2.15
X6.85Y-2.25
X6.95Y-2.15
X6.95Y-2.25
X7.05Y-2.15
X7.05Y-2.25
X7.15Y-2.15
X7.15Y-2.25
X7.25Y-2.15
X7.25Y-2.25
X7.35Y-2.15
X7.35Y-2.25
X7.45Y-2.15
X7.45Y-2.25
X7.55Y-2.15
X7.55Y-2.25
X7.65Y-2.15
X7.65Y-2.25
X7.75Y-2.15
X7.75Y-2.25
X7.85Y-2.15
X7.85Y-2.25
X8.225Y-3.15
X8.225Y-3.25
X8.225Y-3.35
X8.225Y-3.45
X8.225Y-3.55
X8.225Y-3.65
X8.225Y-3.75
X8.225Y-3.85
X8.225Y-3.95
X8.225Y-4.05
X8.225Y-4.15
X8.225Y-4.25
X8.225Y-4.35
X8.225Y-4.45
X8.225Y-4.55
X8.225Y-4.65
X8.225Y-4.75
X8.325Y-3.15
X8.325Y-3.25
X8.325Y-3.35
X8.325Y-3.45
X8.325Y-3.55
X8.325Y-3.65
X8.325Y-3.75
X8.325Y-3.85
X8.325Y-3.95
X8.325Y-4.05
X8.325Y-4.15
X8.325Y-4.25
X8.325Y-4.35
X8.325Y-4.45
X8.325Y-4.55
X8.325Y-4.65
X8.325Y-4.75
T3
X5.725Y-4.65
X5.8234Y-4.65
X5.9219Y-4.65
X6.0203Y-4.65
T4
X4.2358Y-2.9008
X4.2358Y-2.9992
X4.2358Y-3.2516
X4.2358Y-3.35
X4.2358Y-3.6016
X4.2358Y-3.7
X4.2358Y-3.9508
X4.2358Y-4.0492
X4.2358Y-4.3016
X4.2358Y-4.4
X4.2358Y-4.6508
X4.2358Y-4.7492
X5.05Y-4.2
X5.05Y-4.3
X5.05Y-4.4
X5.05Y-4.5
X5.05Y-4.6
X5.05Y-4.7
X5.05Y-4.8
X5.05Y-4.9
X5.551Y-4.2
X5.551Y-4.3
X5.551Y-4.4
X5.551Y-4.5
X5.551Y-4.6
X5.551Y-4.7
X5.551Y-4.8
X5.551Y-4.9
X6.25Y-4.4
X6.25Y-4.8
X6.3484Y-4.4
X6.3484Y-4.8
X6.65Y-4.4
X6.65Y-4.8
X6.7Y-3.55
X6.7Y-3.65
X6.7484Y-4.4
X6.7484Y-4.8
X6.8Y-3.55
X6.8Y-3.65
X6.9Y-3.55
X6.9Y-3.65
X7.0Y-3.55
X7.0Y-3.65
X7.05Y-4.4
X7.05Y-4.8
X7.1Y-3.55
X7.1Y-3.65
X7.1484Y-4.4
X7.1484Y-4.8
X7.2Y-3.55
X7.2Y-3.65
X7.3Y-3.55
X7.3Y-3.65
X7.4Y-3.55
X7.4Y-3.65
X7.45Y-4.4
X7.45Y-4.8
X7.5Y-3.55
X7.5Y-3.65
X7.5484Y-4.4
X7.5484Y-4.8
X7.6Y-3.55
X7.6Y-3.65
X7.7762Y-3.3024
X7.85Y-4.4
X7.8516Y-4.8
X7.8762Y-3.3024
X7.9484Y-4.4
X7.95Y-4.8
X7.9762Y-3.3024
X8.2Y-2.1
X8.2Y-2.2
X8.2Y-2.3
X8.2Y-2.4
X8.2Y-2.55
X8.2Y-2.65
X8.2Y-2.75
X8.2Y-2.85
T5
X5.225Y-2.3
X5.225Y-2.4
X5.225Y-2.5
X5.225Y-2.6
X5.225Y-2.7
X5.225Y-2.8
X5.225Y-2.9
X5.225Y-3.0
X5.225Y-3.1
X5.225Y-3.2
X5.225Y-3.3
X5.225Y-3.4
X5.225Y-3.5
X5.225Y-3.6
X5.225Y-3.7
X5.825Y-2.3
X5.825Y-2.4
X5.825Y-2.5
X5.825Y-2.6
X5.825Y-2.7
X5.825Y-2.8
X5.825Y-2.9
X5.825Y-3.0
X5.825Y-3.1
X5.825Y-3.2
X5.825Y-3.3
X5.825Y-3.4
X5.825Y-3.5
X5.825Y-3.6
X5.825Y-3.7
T6
X6.3484Y-2.625
X6.3484Y-2.725
X6.3484Y-2.825
T4
G00X4.515Y-2.3925
M15
G01X4.515Y-2.4713
M16
G05
G00X4.7394Y-2.3138
M15
G01X4.6606Y-2.3138
M16
G05
G00X4.7394Y-2.55
M15
G01X4.6606Y-2.55
M16
G05
T0
M30
