%TF.GenerationSoftware,KiCad,Pcbnew,(6.0.7)*%
%TF.CreationDate,2023-04-09T01:21:22+09:00*%
%TF.ProjectId,EleMagDriver,456c654d-6167-4447-9269-7665722e6b69,rev?*%
%TF.SameCoordinates,Original*%
%TF.FileFunction,Drillmap*%
%TF.FilePolarity,Positive*%
%FSLAX45Y45*%
G04 Gerber Fmt 4.5, Leading zero omitted, Abs format (unit mm)*
G04 Created by KiCad (PCBNEW (6.0.7)) date 2023-04-09 01:21:22*
%MOMM*%
%LPD*%
G01*
G04 APERTURE LIST*
%ADD10C,0.100000*%
%ADD11C,0.200000*%
G04 APERTURE END LIST*
D10*
X10160000Y-5080000D02*
X20447000Y-5080000D01*
X20447000Y-5080000D02*
X20447000Y-12700000D01*
X20447000Y-12700000D02*
X10160000Y-12700000D01*
X10160000Y-12700000D02*
X10160000Y-5080000D01*
D11*
X10412619Y-13015476D02*
X10412619Y-12815476D01*
X10460238Y-12815476D01*
X10488810Y-12825000D01*
X10507857Y-12844048D01*
X10517381Y-12863095D01*
X10526905Y-12901190D01*
X10526905Y-12929762D01*
X10517381Y-12967857D01*
X10507857Y-12986905D01*
X10488810Y-13005952D01*
X10460238Y-13015476D01*
X10412619Y-13015476D01*
X10612619Y-13015476D02*
X10612619Y-12882143D01*
X10612619Y-12920238D02*
X10622143Y-12901190D01*
X10631667Y-12891667D01*
X10650714Y-12882143D01*
X10669762Y-12882143D01*
X10736429Y-13015476D02*
X10736429Y-12882143D01*
X10736429Y-12815476D02*
X10726905Y-12825000D01*
X10736429Y-12834524D01*
X10745952Y-12825000D01*
X10736429Y-12815476D01*
X10736429Y-12834524D01*
X10860238Y-13015476D02*
X10841190Y-13005952D01*
X10831667Y-12986905D01*
X10831667Y-12815476D01*
X10965000Y-13015476D02*
X10945952Y-13005952D01*
X10936429Y-12986905D01*
X10936429Y-12815476D01*
X11193571Y-13015476D02*
X11193571Y-12815476D01*
X11260238Y-12958333D01*
X11326905Y-12815476D01*
X11326905Y-13015476D01*
X11507857Y-13015476D02*
X11507857Y-12910714D01*
X11498333Y-12891667D01*
X11479286Y-12882143D01*
X11441190Y-12882143D01*
X11422143Y-12891667D01*
X11507857Y-13005952D02*
X11488809Y-13015476D01*
X11441190Y-13015476D01*
X11422143Y-13005952D01*
X11412619Y-12986905D01*
X11412619Y-12967857D01*
X11422143Y-12948809D01*
X11441190Y-12939286D01*
X11488809Y-12939286D01*
X11507857Y-12929762D01*
X11603095Y-12882143D02*
X11603095Y-13082143D01*
X11603095Y-12891667D02*
X11622143Y-12882143D01*
X11660238Y-12882143D01*
X11679286Y-12891667D01*
X11688809Y-12901190D01*
X11698333Y-12920238D01*
X11698333Y-12977381D01*
X11688809Y-12996428D01*
X11679286Y-13005952D01*
X11660238Y-13015476D01*
X11622143Y-13015476D01*
X11603095Y-13005952D01*
X11784048Y-12996428D02*
X11793571Y-13005952D01*
X11784048Y-13015476D01*
X11774524Y-13005952D01*
X11784048Y-12996428D01*
X11784048Y-13015476D01*
X11784048Y-12891667D02*
X11793571Y-12901190D01*
X11784048Y-12910714D01*
X11774524Y-12901190D01*
X11784048Y-12891667D01*
X11784048Y-12910714D01*
M02*
