%TF.GenerationSoftware,KiCad,Pcbnew,(6.0.7)*%
%TF.CreationDate,2023-04-09T01:20:44+09:00*%
%TF.ProjectId,EleMagDriver,456c654d-6167-4447-9269-7665722e6b69,rev?*%
%TF.SameCoordinates,Original*%
%TF.FileFunction,Legend,Top*%
%TF.FilePolarity,Positive*%
%FSLAX46Y46*%
G04 Gerber Fmt 4.6, Leading zero omitted, Abs format (unit mm)*
G04 Created by KiCad (PCBNEW (6.0.7)) date 2023-04-09 01:20:44*
%MOMM*%
%LPD*%
G01*
G04 APERTURE LIST*
%ADD10C,0.150000*%
%ADD11C,0.254000*%
%ADD12C,0.120000*%
%ADD13C,0.127000*%
%ADD14C,0.400000*%
%ADD15C,0.200000*%
G04 APERTURE END LIST*
D10*
X158599523Y-52157380D02*
X159170952Y-52157380D01*
X158885238Y-53157380D02*
X158885238Y-52157380D01*
X159837619Y-52633571D02*
X159980476Y-52681190D01*
X160028095Y-52728809D01*
X160075714Y-52824047D01*
X160075714Y-52966904D01*
X160028095Y-53062142D01*
X159980476Y-53109761D01*
X159885238Y-53157380D01*
X159504285Y-53157380D01*
X159504285Y-52157380D01*
X159837619Y-52157380D01*
X159932857Y-52205000D01*
X159980476Y-52252619D01*
X160028095Y-52347857D01*
X160028095Y-52443095D01*
X159980476Y-52538333D01*
X159932857Y-52585952D01*
X159837619Y-52633571D01*
X159504285Y-52633571D01*
X160932857Y-52157380D02*
X160742380Y-52157380D01*
X160647142Y-52205000D01*
X160599523Y-52252619D01*
X160504285Y-52395476D01*
X160456666Y-52585952D01*
X160456666Y-52966904D01*
X160504285Y-53062142D01*
X160551904Y-53109761D01*
X160647142Y-53157380D01*
X160837619Y-53157380D01*
X160932857Y-53109761D01*
X160980476Y-53062142D01*
X161028095Y-52966904D01*
X161028095Y-52728809D01*
X160980476Y-52633571D01*
X160932857Y-52585952D01*
X160837619Y-52538333D01*
X160647142Y-52538333D01*
X160551904Y-52585952D01*
X160504285Y-52633571D01*
X160456666Y-52728809D01*
X161885238Y-52157380D02*
X161694761Y-52157380D01*
X161599523Y-52205000D01*
X161551904Y-52252619D01*
X161456666Y-52395476D01*
X161409047Y-52585952D01*
X161409047Y-52966904D01*
X161456666Y-53062142D01*
X161504285Y-53109761D01*
X161599523Y-53157380D01*
X161790000Y-53157380D01*
X161885238Y-53109761D01*
X161932857Y-53062142D01*
X161980476Y-52966904D01*
X161980476Y-52728809D01*
X161932857Y-52633571D01*
X161885238Y-52585952D01*
X161790000Y-52538333D01*
X161599523Y-52538333D01*
X161504285Y-52585952D01*
X161456666Y-52633571D01*
X161409047Y-52728809D01*
X162932857Y-53157380D02*
X162361428Y-53157380D01*
X162647142Y-53157380D02*
X162647142Y-52157380D01*
X162551904Y-52300238D01*
X162456666Y-52395476D01*
X162361428Y-52443095D01*
X163313809Y-52252619D02*
X163361428Y-52205000D01*
X163456666Y-52157380D01*
X163694761Y-52157380D01*
X163790000Y-52205000D01*
X163837619Y-52252619D01*
X163885238Y-52347857D01*
X163885238Y-52443095D01*
X163837619Y-52585952D01*
X163266190Y-53157380D01*
X163885238Y-53157380D01*
X145415000Y-51435000D02*
X164465000Y-51435000D01*
X164465000Y-51435000D02*
X164465000Y-78105000D01*
X164465000Y-78105000D02*
X145415000Y-78105000D01*
X145415000Y-78105000D02*
X145415000Y-51435000D01*
%TO.C,C2*%
X123023333Y-124563142D02*
X122975714Y-124610761D01*
X122832857Y-124658380D01*
X122737619Y-124658380D01*
X122594761Y-124610761D01*
X122499523Y-124515523D01*
X122451904Y-124420285D01*
X122404285Y-124229809D01*
X122404285Y-124086952D01*
X122451904Y-123896476D01*
X122499523Y-123801238D01*
X122594761Y-123706000D01*
X122737619Y-123658380D01*
X122832857Y-123658380D01*
X122975714Y-123706000D01*
X123023333Y-123753619D01*
X123404285Y-123753619D02*
X123451904Y-123706000D01*
X123547142Y-123658380D01*
X123785238Y-123658380D01*
X123880476Y-123706000D01*
X123928095Y-123753619D01*
X123975714Y-123848857D01*
X123975714Y-123944095D01*
X123928095Y-124086952D01*
X123356666Y-124658380D01*
X123975714Y-124658380D01*
X124896714Y-122134380D02*
X124991952Y-122134380D01*
X125087190Y-122182000D01*
X125134809Y-122229619D01*
X125182428Y-122324857D01*
X125230047Y-122515333D01*
X125230047Y-122753428D01*
X125182428Y-122943904D01*
X125134809Y-123039142D01*
X125087190Y-123086761D01*
X124991952Y-123134380D01*
X124896714Y-123134380D01*
X124801476Y-123086761D01*
X124753857Y-123039142D01*
X124706238Y-122943904D01*
X124658619Y-122753428D01*
X124658619Y-122515333D01*
X124706238Y-122324857D01*
X124753857Y-122229619D01*
X124801476Y-122182000D01*
X124896714Y-122134380D01*
X125658619Y-123039142D02*
X125706238Y-123086761D01*
X125658619Y-123134380D01*
X125611000Y-123086761D01*
X125658619Y-123039142D01*
X125658619Y-123134380D01*
X126658619Y-123134380D02*
X126087190Y-123134380D01*
X126372904Y-123134380D02*
X126372904Y-122134380D01*
X126277666Y-122277238D01*
X126182428Y-122372476D01*
X126087190Y-122420095D01*
X127515761Y-122467714D02*
X127515761Y-123134380D01*
X127087190Y-122467714D02*
X127087190Y-122991523D01*
X127134809Y-123086761D01*
X127230047Y-123134380D01*
X127372904Y-123134380D01*
X127468142Y-123086761D01*
X127515761Y-123039142D01*
%TO.C,U1*%
X110958381Y-51287821D02*
X110958381Y-52423079D01*
X111025161Y-52556639D01*
X111091941Y-52623419D01*
X111225501Y-52690199D01*
X111492620Y-52690199D01*
X111626180Y-52623419D01*
X111692960Y-52556639D01*
X111759740Y-52423079D01*
X111759740Y-51287821D01*
X113162118Y-52690199D02*
X112360759Y-52690199D01*
X112761438Y-52690199D02*
X112761438Y-51287821D01*
X112627879Y-51488160D01*
X112494319Y-51621720D01*
X112360759Y-51688500D01*
X108234244Y-102233757D02*
X108234244Y-100832820D01*
X109034779Y-102233757D01*
X109034779Y-100832820D01*
X109701892Y-100832820D02*
X109701892Y-101966912D01*
X109768603Y-102100334D01*
X109835315Y-102167045D01*
X109968737Y-102233757D01*
X110235582Y-102233757D01*
X110369005Y-102167045D01*
X110435716Y-102100334D01*
X110502427Y-101966912D01*
X110502427Y-100832820D01*
X111970076Y-102100334D02*
X111903364Y-102167045D01*
X111703231Y-102233757D01*
X111569808Y-102233757D01*
X111369674Y-102167045D01*
X111236252Y-102033623D01*
X111169540Y-101900200D01*
X111102829Y-101633355D01*
X111102829Y-101433221D01*
X111169540Y-101166376D01*
X111236252Y-101032954D01*
X111369674Y-100899531D01*
X111569808Y-100832820D01*
X111703231Y-100832820D01*
X111903364Y-100899531D01*
X111970076Y-100966242D01*
X113237590Y-102233757D02*
X112570477Y-102233757D01*
X112570477Y-100832820D01*
X113704569Y-101499933D02*
X114171548Y-101499933D01*
X114371682Y-102233757D02*
X113704569Y-102233757D01*
X113704569Y-100832820D01*
X114371682Y-100832820D01*
X115238929Y-100832820D02*
X115505774Y-100832820D01*
X115639196Y-100899531D01*
X115772619Y-101032954D01*
X115839330Y-101299799D01*
X115839330Y-101766778D01*
X115772619Y-102033623D01*
X115639196Y-102167045D01*
X115505774Y-102233757D01*
X115238929Y-102233757D01*
X115105506Y-102167045D01*
X114972084Y-102033623D01*
X114905372Y-101766778D01*
X114905372Y-101299799D01*
X114972084Y-101032954D01*
X115105506Y-100899531D01*
X115238929Y-100832820D01*
X116439732Y-101700066D02*
X117507112Y-101700066D01*
X118641204Y-101499933D02*
X118174225Y-101499933D01*
X118174225Y-102233757D02*
X118174225Y-100832820D01*
X118841338Y-100832820D01*
X119241606Y-100832820D02*
X120108853Y-100832820D01*
X119641874Y-101366510D01*
X119842007Y-101366510D01*
X119975430Y-101433221D01*
X120042141Y-101499933D01*
X120108853Y-101633355D01*
X120108853Y-101966912D01*
X120042141Y-102100334D01*
X119975430Y-102167045D01*
X119842007Y-102233757D01*
X119441740Y-102233757D01*
X119308317Y-102167045D01*
X119241606Y-102100334D01*
X120976099Y-100832820D02*
X121109522Y-100832820D01*
X121242944Y-100899531D01*
X121309656Y-100966242D01*
X121376367Y-101099665D01*
X121443078Y-101366510D01*
X121443078Y-101700066D01*
X121376367Y-101966912D01*
X121309656Y-102100334D01*
X121242944Y-102167045D01*
X121109522Y-102233757D01*
X120976099Y-102233757D01*
X120842677Y-102167045D01*
X120775965Y-102100334D01*
X120709254Y-101966912D01*
X120642543Y-101700066D01*
X120642543Y-101366510D01*
X120709254Y-101099665D01*
X120775965Y-100966242D01*
X120842677Y-100899531D01*
X120976099Y-100832820D01*
X121910057Y-100832820D02*
X122777304Y-100832820D01*
X122310325Y-101366510D01*
X122510459Y-101366510D01*
X122643881Y-101433221D01*
X122710593Y-101499933D01*
X122777304Y-101633355D01*
X122777304Y-101966912D01*
X122710593Y-102100334D01*
X122643881Y-102167045D01*
X122510459Y-102233757D01*
X122110191Y-102233757D01*
X121976769Y-102167045D01*
X121910057Y-102100334D01*
X123377706Y-102233757D02*
X123377706Y-100832820D01*
X124178241Y-102233757D02*
X123577839Y-101433221D01*
X124178241Y-100832820D02*
X123377706Y-101633355D01*
X124978776Y-101433221D02*
X124845354Y-101366510D01*
X124778643Y-101299799D01*
X124711931Y-101166376D01*
X124711931Y-101099665D01*
X124778643Y-100966242D01*
X124845354Y-100899531D01*
X124978776Y-100832820D01*
X125245622Y-100832820D01*
X125379044Y-100899531D01*
X125445755Y-100966242D01*
X125512467Y-101099665D01*
X125512467Y-101166376D01*
X125445755Y-101299799D01*
X125379044Y-101366510D01*
X125245622Y-101433221D01*
X124978776Y-101433221D01*
X124845354Y-101499933D01*
X124778643Y-101566644D01*
X124711931Y-101700066D01*
X124711931Y-101966912D01*
X124778643Y-102100334D01*
X124845354Y-102167045D01*
X124978776Y-102233757D01*
X125245622Y-102233757D01*
X125379044Y-102167045D01*
X125445755Y-102100334D01*
X125512467Y-101966912D01*
X125512467Y-101700066D01*
X125445755Y-101566644D01*
X125379044Y-101499933D01*
X125245622Y-101433221D01*
%TO.C,R3*%
X157313333Y-125377380D02*
X156980000Y-124901190D01*
X156741904Y-125377380D02*
X156741904Y-124377380D01*
X157122857Y-124377380D01*
X157218095Y-124425000D01*
X157265714Y-124472619D01*
X157313333Y-124567857D01*
X157313333Y-124710714D01*
X157265714Y-124805952D01*
X157218095Y-124853571D01*
X157122857Y-124901190D01*
X156741904Y-124901190D01*
X157646666Y-124377380D02*
X158265714Y-124377380D01*
X157932380Y-124758333D01*
X158075238Y-124758333D01*
X158170476Y-124805952D01*
X158218095Y-124853571D01*
X158265714Y-124948809D01*
X158265714Y-125186904D01*
X158218095Y-125282142D01*
X158170476Y-125329761D01*
X158075238Y-125377380D01*
X157789523Y-125377380D01*
X157694285Y-125329761D01*
X157646666Y-125282142D01*
X152058809Y-120065952D02*
X151963571Y-120018333D01*
X151915952Y-119970714D01*
X151868333Y-119875476D01*
X151868333Y-119827857D01*
X151915952Y-119732619D01*
X151963571Y-119685000D01*
X152058809Y-119637380D01*
X152249285Y-119637380D01*
X152344523Y-119685000D01*
X152392142Y-119732619D01*
X152439761Y-119827857D01*
X152439761Y-119875476D01*
X152392142Y-119970714D01*
X152344523Y-120018333D01*
X152249285Y-120065952D01*
X152058809Y-120065952D01*
X151963571Y-120113571D01*
X151915952Y-120161190D01*
X151868333Y-120256428D01*
X151868333Y-120446904D01*
X151915952Y-120542142D01*
X151963571Y-120589761D01*
X152058809Y-120637380D01*
X152249285Y-120637380D01*
X152344523Y-120589761D01*
X152392142Y-120542142D01*
X152439761Y-120446904D01*
X152439761Y-120256428D01*
X152392142Y-120161190D01*
X152344523Y-120113571D01*
X152249285Y-120065952D01*
X152773095Y-119637380D02*
X153392142Y-119637380D01*
X153058809Y-120018333D01*
X153201666Y-120018333D01*
X153296904Y-120065952D01*
X153344523Y-120113571D01*
X153392142Y-120208809D01*
X153392142Y-120446904D01*
X153344523Y-120542142D01*
X153296904Y-120589761D01*
X153201666Y-120637380D01*
X152915952Y-120637380D01*
X152820714Y-120589761D01*
X152773095Y-120542142D01*
X153820714Y-120637380D02*
X153820714Y-119637380D01*
X153915952Y-120256428D02*
X154201666Y-120637380D01*
X154201666Y-119970714D02*
X153820714Y-120351666D01*
%TO.C,R2*%
X157313333Y-120467380D02*
X156980000Y-119991190D01*
X156741904Y-120467380D02*
X156741904Y-119467380D01*
X157122857Y-119467380D01*
X157218095Y-119515000D01*
X157265714Y-119562619D01*
X157313333Y-119657857D01*
X157313333Y-119800714D01*
X157265714Y-119895952D01*
X157218095Y-119943571D01*
X157122857Y-119991190D01*
X156741904Y-119991190D01*
X157694285Y-119562619D02*
X157741904Y-119515000D01*
X157837142Y-119467380D01*
X158075238Y-119467380D01*
X158170476Y-119515000D01*
X158218095Y-119562619D01*
X158265714Y-119657857D01*
X158265714Y-119753095D01*
X158218095Y-119895952D01*
X157646666Y-120467380D01*
X158265714Y-120467380D01*
X151868333Y-114720714D02*
X151868333Y-115387380D01*
X151630238Y-114339761D02*
X151392142Y-115054047D01*
X152011190Y-115054047D01*
X152296904Y-114387380D02*
X152915952Y-114387380D01*
X152582619Y-114768333D01*
X152725476Y-114768333D01*
X152820714Y-114815952D01*
X152868333Y-114863571D01*
X152915952Y-114958809D01*
X152915952Y-115196904D01*
X152868333Y-115292142D01*
X152820714Y-115339761D01*
X152725476Y-115387380D01*
X152439761Y-115387380D01*
X152344523Y-115339761D01*
X152296904Y-115292142D01*
X153535000Y-114387380D02*
X153630238Y-114387380D01*
X153725476Y-114435000D01*
X153773095Y-114482619D01*
X153820714Y-114577857D01*
X153868333Y-114768333D01*
X153868333Y-115006428D01*
X153820714Y-115196904D01*
X153773095Y-115292142D01*
X153725476Y-115339761D01*
X153630238Y-115387380D01*
X153535000Y-115387380D01*
X153439761Y-115339761D01*
X153392142Y-115292142D01*
X153344523Y-115196904D01*
X153296904Y-115006428D01*
X153296904Y-114768333D01*
X153344523Y-114577857D01*
X153392142Y-114482619D01*
X153439761Y-114435000D01*
X153535000Y-114387380D01*
X154296904Y-115387380D02*
X154296904Y-114387380D01*
X154392142Y-115006428D02*
X154677857Y-115387380D01*
X154677857Y-114720714D02*
X154296904Y-115101666D01*
%TO.C,R1*%
X142073333Y-120637380D02*
X141740000Y-120161190D01*
X141501904Y-120637380D02*
X141501904Y-119637380D01*
X141882857Y-119637380D01*
X141978095Y-119685000D01*
X142025714Y-119732619D01*
X142073333Y-119827857D01*
X142073333Y-119970714D01*
X142025714Y-120065952D01*
X141978095Y-120113571D01*
X141882857Y-120161190D01*
X141501904Y-120161190D01*
X143025714Y-120637380D02*
X142454285Y-120637380D01*
X142740000Y-120637380D02*
X142740000Y-119637380D01*
X142644761Y-119780238D01*
X142549523Y-119875476D01*
X142454285Y-119923095D01*
X141644761Y-125377380D02*
X141073333Y-125377380D01*
X141359047Y-125377380D02*
X141359047Y-124377380D01*
X141263809Y-124520238D01*
X141168571Y-124615476D01*
X141073333Y-124663095D01*
X142263809Y-124377380D02*
X142359047Y-124377380D01*
X142454285Y-124425000D01*
X142501904Y-124472619D01*
X142549523Y-124567857D01*
X142597142Y-124758333D01*
X142597142Y-124996428D01*
X142549523Y-125186904D01*
X142501904Y-125282142D01*
X142454285Y-125329761D01*
X142359047Y-125377380D01*
X142263809Y-125377380D01*
X142168571Y-125329761D01*
X142120952Y-125282142D01*
X142073333Y-125186904D01*
X142025714Y-124996428D01*
X142025714Y-124758333D01*
X142073333Y-124567857D01*
X142120952Y-124472619D01*
X142168571Y-124425000D01*
X142263809Y-124377380D01*
X143025714Y-125377380D02*
X143025714Y-124377380D01*
X143120952Y-124996428D02*
X143406666Y-125377380D01*
X143406666Y-124710714D02*
X143025714Y-125091666D01*
D11*
%TO.C,L1*%
X138853333Y-113604523D02*
X138248571Y-113604523D01*
X138248571Y-112334523D01*
X139941904Y-113604523D02*
X139216190Y-113604523D01*
X139579047Y-113604523D02*
X139579047Y-112334523D01*
X139458095Y-112515952D01*
X139337142Y-112636904D01*
X139216190Y-112697380D01*
D10*
%TO.C,J22*%
X156507380Y-83994523D02*
X157221666Y-83994523D01*
X157364523Y-84042142D01*
X157459761Y-84137380D01*
X157507380Y-84280238D01*
X157507380Y-84375476D01*
X156602619Y-83565952D02*
X156555000Y-83518333D01*
X156507380Y-83423095D01*
X156507380Y-83185000D01*
X156555000Y-83089761D01*
X156602619Y-83042142D01*
X156697857Y-82994523D01*
X156793095Y-82994523D01*
X156935952Y-83042142D01*
X157507380Y-83613571D01*
X157507380Y-82994523D01*
X156602619Y-82613571D02*
X156555000Y-82565952D01*
X156507380Y-82470714D01*
X156507380Y-82232619D01*
X156555000Y-82137380D01*
X156602619Y-82089761D01*
X156697857Y-82042142D01*
X156793095Y-82042142D01*
X156935952Y-82089761D01*
X157507380Y-82661190D01*
X157507380Y-82042142D01*
X197672857Y-86918571D02*
X197339523Y-86918571D01*
X197339523Y-87442380D02*
X197339523Y-86442380D01*
X197815714Y-86442380D01*
X198339523Y-87442380D02*
X198244285Y-87394761D01*
X198196666Y-87299523D01*
X198196666Y-86442380D01*
X198863333Y-87442380D02*
X198768095Y-87394761D01*
X198720476Y-87347142D01*
X198672857Y-87251904D01*
X198672857Y-86966190D01*
X198720476Y-86870952D01*
X198768095Y-86823333D01*
X198863333Y-86775714D01*
X199006190Y-86775714D01*
X199101428Y-86823333D01*
X199149047Y-86870952D01*
X199196666Y-86966190D01*
X199196666Y-87251904D01*
X199149047Y-87347142D01*
X199101428Y-87394761D01*
X199006190Y-87442380D01*
X198863333Y-87442380D01*
X199625238Y-86775714D02*
X199625238Y-87775714D01*
X199625238Y-86823333D02*
X199720476Y-86775714D01*
X199910952Y-86775714D01*
X200006190Y-86823333D01*
X200053809Y-86870952D01*
X200101428Y-86966190D01*
X200101428Y-87251904D01*
X200053809Y-87347142D01*
X200006190Y-87394761D01*
X199910952Y-87442380D01*
X199720476Y-87442380D01*
X199625238Y-87394761D01*
X200530000Y-86775714D02*
X200530000Y-87775714D01*
X200530000Y-86823333D02*
X200625238Y-86775714D01*
X200815714Y-86775714D01*
X200910952Y-86823333D01*
X200958571Y-86870952D01*
X201006190Y-86966190D01*
X201006190Y-87251904D01*
X200958571Y-87347142D01*
X200910952Y-87394761D01*
X200815714Y-87442380D01*
X200625238Y-87442380D01*
X200530000Y-87394761D01*
X201339523Y-86775714D02*
X201577619Y-87442380D01*
X201815714Y-86775714D02*
X201577619Y-87442380D01*
X201482380Y-87680476D01*
X201434761Y-87728095D01*
X201339523Y-87775714D01*
X202768095Y-87347142D02*
X202720476Y-87394761D01*
X202577619Y-87442380D01*
X202482380Y-87442380D01*
X202339523Y-87394761D01*
X202244285Y-87299523D01*
X202196666Y-87204285D01*
X202149047Y-87013809D01*
X202149047Y-86870952D01*
X202196666Y-86680476D01*
X202244285Y-86585238D01*
X202339523Y-86490000D01*
X202482380Y-86442380D01*
X202577619Y-86442380D01*
X202720476Y-86490000D01*
X202768095Y-86537619D01*
%TO.C,J21*%
X180800476Y-114387380D02*
X180800476Y-115101666D01*
X180752857Y-115244523D01*
X180657619Y-115339761D01*
X180514761Y-115387380D01*
X180419523Y-115387380D01*
X181229047Y-114482619D02*
X181276666Y-114435000D01*
X181371904Y-114387380D01*
X181610000Y-114387380D01*
X181705238Y-114435000D01*
X181752857Y-114482619D01*
X181800476Y-114577857D01*
X181800476Y-114673095D01*
X181752857Y-114815952D01*
X181181428Y-115387380D01*
X181800476Y-115387380D01*
X182752857Y-115387380D02*
X182181428Y-115387380D01*
X182467142Y-115387380D02*
X182467142Y-114387380D01*
X182371904Y-114530238D01*
X182276666Y-114625476D01*
X182181428Y-114673095D01*
X184777619Y-114863571D02*
X184444285Y-114863571D01*
X184444285Y-115387380D02*
X184444285Y-114387380D01*
X184920476Y-114387380D01*
X185444285Y-115387380D02*
X185349047Y-115339761D01*
X185301428Y-115244523D01*
X185301428Y-114387380D01*
X185968095Y-115387380D02*
X185872857Y-115339761D01*
X185825238Y-115292142D01*
X185777619Y-115196904D01*
X185777619Y-114911190D01*
X185825238Y-114815952D01*
X185872857Y-114768333D01*
X185968095Y-114720714D01*
X186110952Y-114720714D01*
X186206190Y-114768333D01*
X186253809Y-114815952D01*
X186301428Y-114911190D01*
X186301428Y-115196904D01*
X186253809Y-115292142D01*
X186206190Y-115339761D01*
X186110952Y-115387380D01*
X185968095Y-115387380D01*
X186730000Y-114720714D02*
X186730000Y-115720714D01*
X186730000Y-114768333D02*
X186825238Y-114720714D01*
X187015714Y-114720714D01*
X187110952Y-114768333D01*
X187158571Y-114815952D01*
X187206190Y-114911190D01*
X187206190Y-115196904D01*
X187158571Y-115292142D01*
X187110952Y-115339761D01*
X187015714Y-115387380D01*
X186825238Y-115387380D01*
X186730000Y-115339761D01*
X187634761Y-114720714D02*
X187634761Y-115720714D01*
X187634761Y-114768333D02*
X187730000Y-114720714D01*
X187920476Y-114720714D01*
X188015714Y-114768333D01*
X188063333Y-114815952D01*
X188110952Y-114911190D01*
X188110952Y-115196904D01*
X188063333Y-115292142D01*
X188015714Y-115339761D01*
X187920476Y-115387380D01*
X187730000Y-115387380D01*
X187634761Y-115339761D01*
X188444285Y-114720714D02*
X188682380Y-115387380D01*
X188920476Y-114720714D02*
X188682380Y-115387380D01*
X188587142Y-115625476D01*
X188539523Y-115673095D01*
X188444285Y-115720714D01*
X189063333Y-115482619D02*
X189825238Y-115482619D01*
X190063333Y-115387380D02*
X190063333Y-114387380D01*
X190444285Y-114387380D01*
X190539523Y-114435000D01*
X190587142Y-114482619D01*
X190634761Y-114577857D01*
X190634761Y-114720714D01*
X190587142Y-114815952D01*
X190539523Y-114863571D01*
X190444285Y-114911190D01*
X190063333Y-114911190D01*
X191206190Y-115387380D02*
X191110952Y-115339761D01*
X191063333Y-115292142D01*
X191015714Y-115196904D01*
X191015714Y-114911190D01*
X191063333Y-114815952D01*
X191110952Y-114768333D01*
X191206190Y-114720714D01*
X191349047Y-114720714D01*
X191444285Y-114768333D01*
X191491904Y-114815952D01*
X191539523Y-114911190D01*
X191539523Y-115196904D01*
X191491904Y-115292142D01*
X191444285Y-115339761D01*
X191349047Y-115387380D01*
X191206190Y-115387380D01*
X191872857Y-114720714D02*
X192063333Y-115387380D01*
X192253809Y-114911190D01*
X192444285Y-115387380D01*
X192634761Y-114720714D01*
X193396666Y-115339761D02*
X193301428Y-115387380D01*
X193110952Y-115387380D01*
X193015714Y-115339761D01*
X192968095Y-115244523D01*
X192968095Y-114863571D01*
X193015714Y-114768333D01*
X193110952Y-114720714D01*
X193301428Y-114720714D01*
X193396666Y-114768333D01*
X193444285Y-114863571D01*
X193444285Y-114958809D01*
X192968095Y-115054047D01*
X193872857Y-115387380D02*
X193872857Y-114720714D01*
X193872857Y-114911190D02*
X193920476Y-114815952D01*
X193968095Y-114768333D01*
X194063333Y-114720714D01*
X194158571Y-114720714D01*
%TO.C,J20*%
X157310476Y-97872380D02*
X157310476Y-98586666D01*
X157262857Y-98729523D01*
X157167619Y-98824761D01*
X157024761Y-98872380D01*
X156929523Y-98872380D01*
X157739047Y-97967619D02*
X157786666Y-97920000D01*
X157881904Y-97872380D01*
X158120000Y-97872380D01*
X158215238Y-97920000D01*
X158262857Y-97967619D01*
X158310476Y-98062857D01*
X158310476Y-98158095D01*
X158262857Y-98300952D01*
X157691428Y-98872380D01*
X158310476Y-98872380D01*
X158929523Y-97872380D02*
X159024761Y-97872380D01*
X159120000Y-97920000D01*
X159167619Y-97967619D01*
X159215238Y-98062857D01*
X159262857Y-98253333D01*
X159262857Y-98491428D01*
X159215238Y-98681904D01*
X159167619Y-98777142D01*
X159120000Y-98824761D01*
X159024761Y-98872380D01*
X158929523Y-98872380D01*
X158834285Y-98824761D01*
X158786666Y-98777142D01*
X158739047Y-98681904D01*
X158691428Y-98491428D01*
X158691428Y-98253333D01*
X158739047Y-98062857D01*
X158786666Y-97967619D01*
X158834285Y-97920000D01*
X158929523Y-97872380D01*
X197672857Y-98348571D02*
X197339523Y-98348571D01*
X197339523Y-98872380D02*
X197339523Y-97872380D01*
X197815714Y-97872380D01*
X198339523Y-98872380D02*
X198244285Y-98824761D01*
X198196666Y-98729523D01*
X198196666Y-97872380D01*
X198863333Y-98872380D02*
X198768095Y-98824761D01*
X198720476Y-98777142D01*
X198672857Y-98681904D01*
X198672857Y-98396190D01*
X198720476Y-98300952D01*
X198768095Y-98253333D01*
X198863333Y-98205714D01*
X199006190Y-98205714D01*
X199101428Y-98253333D01*
X199149047Y-98300952D01*
X199196666Y-98396190D01*
X199196666Y-98681904D01*
X199149047Y-98777142D01*
X199101428Y-98824761D01*
X199006190Y-98872380D01*
X198863333Y-98872380D01*
X199625238Y-98205714D02*
X199625238Y-99205714D01*
X199625238Y-98253333D02*
X199720476Y-98205714D01*
X199910952Y-98205714D01*
X200006190Y-98253333D01*
X200053809Y-98300952D01*
X200101428Y-98396190D01*
X200101428Y-98681904D01*
X200053809Y-98777142D01*
X200006190Y-98824761D01*
X199910952Y-98872380D01*
X199720476Y-98872380D01*
X199625238Y-98824761D01*
X200530000Y-98205714D02*
X200530000Y-99205714D01*
X200530000Y-98253333D02*
X200625238Y-98205714D01*
X200815714Y-98205714D01*
X200910952Y-98253333D01*
X200958571Y-98300952D01*
X201006190Y-98396190D01*
X201006190Y-98681904D01*
X200958571Y-98777142D01*
X200910952Y-98824761D01*
X200815714Y-98872380D01*
X200625238Y-98872380D01*
X200530000Y-98824761D01*
X201339523Y-98205714D02*
X201577619Y-98872380D01*
X201815714Y-98205714D02*
X201577619Y-98872380D01*
X201482380Y-99110476D01*
X201434761Y-99158095D01*
X201339523Y-99205714D01*
X202530000Y-98348571D02*
X202672857Y-98396190D01*
X202720476Y-98443809D01*
X202768095Y-98539047D01*
X202768095Y-98681904D01*
X202720476Y-98777142D01*
X202672857Y-98824761D01*
X202577619Y-98872380D01*
X202196666Y-98872380D01*
X202196666Y-97872380D01*
X202530000Y-97872380D01*
X202625238Y-97920000D01*
X202672857Y-97967619D01*
X202720476Y-98062857D01*
X202720476Y-98158095D01*
X202672857Y-98253333D01*
X202625238Y-98300952D01*
X202530000Y-98348571D01*
X202196666Y-98348571D01*
%TO.C,J19*%
X180740476Y-119492380D02*
X180740476Y-120206666D01*
X180692857Y-120349523D01*
X180597619Y-120444761D01*
X180454761Y-120492380D01*
X180359523Y-120492380D01*
X181740476Y-120492380D02*
X181169047Y-120492380D01*
X181454761Y-120492380D02*
X181454761Y-119492380D01*
X181359523Y-119635238D01*
X181264285Y-119730476D01*
X181169047Y-119778095D01*
X182216666Y-120492380D02*
X182407142Y-120492380D01*
X182502380Y-120444761D01*
X182550000Y-120397142D01*
X182645238Y-120254285D01*
X182692857Y-120063809D01*
X182692857Y-119682857D01*
X182645238Y-119587619D01*
X182597619Y-119540000D01*
X182502380Y-119492380D01*
X182311904Y-119492380D01*
X182216666Y-119540000D01*
X182169047Y-119587619D01*
X182121428Y-119682857D01*
X182121428Y-119920952D01*
X182169047Y-120016190D01*
X182216666Y-120063809D01*
X182311904Y-120111428D01*
X182502380Y-120111428D01*
X182597619Y-120063809D01*
X182645238Y-120016190D01*
X182692857Y-119920952D01*
X184767619Y-119943571D02*
X184434285Y-119943571D01*
X184434285Y-120467380D02*
X184434285Y-119467380D01*
X184910476Y-119467380D01*
X185434285Y-120467380D02*
X185339047Y-120419761D01*
X185291428Y-120324523D01*
X185291428Y-119467380D01*
X185958095Y-120467380D02*
X185862857Y-120419761D01*
X185815238Y-120372142D01*
X185767619Y-120276904D01*
X185767619Y-119991190D01*
X185815238Y-119895952D01*
X185862857Y-119848333D01*
X185958095Y-119800714D01*
X186100952Y-119800714D01*
X186196190Y-119848333D01*
X186243809Y-119895952D01*
X186291428Y-119991190D01*
X186291428Y-120276904D01*
X186243809Y-120372142D01*
X186196190Y-120419761D01*
X186100952Y-120467380D01*
X185958095Y-120467380D01*
X186720000Y-119800714D02*
X186720000Y-120800714D01*
X186720000Y-119848333D02*
X186815238Y-119800714D01*
X187005714Y-119800714D01*
X187100952Y-119848333D01*
X187148571Y-119895952D01*
X187196190Y-119991190D01*
X187196190Y-120276904D01*
X187148571Y-120372142D01*
X187100952Y-120419761D01*
X187005714Y-120467380D01*
X186815238Y-120467380D01*
X186720000Y-120419761D01*
X187624761Y-119800714D02*
X187624761Y-120800714D01*
X187624761Y-119848333D02*
X187720000Y-119800714D01*
X187910476Y-119800714D01*
X188005714Y-119848333D01*
X188053333Y-119895952D01*
X188100952Y-119991190D01*
X188100952Y-120276904D01*
X188053333Y-120372142D01*
X188005714Y-120419761D01*
X187910476Y-120467380D01*
X187720000Y-120467380D01*
X187624761Y-120419761D01*
X188434285Y-119800714D02*
X188672380Y-120467380D01*
X188910476Y-119800714D02*
X188672380Y-120467380D01*
X188577142Y-120705476D01*
X188529523Y-120753095D01*
X188434285Y-120800714D01*
X189053333Y-120562619D02*
X189815238Y-120562619D01*
X190053333Y-120467380D02*
X190053333Y-119467380D01*
X190434285Y-119467380D01*
X190529523Y-119515000D01*
X190577142Y-119562619D01*
X190624761Y-119657857D01*
X190624761Y-119800714D01*
X190577142Y-119895952D01*
X190529523Y-119943571D01*
X190434285Y-119991190D01*
X190053333Y-119991190D01*
X191196190Y-120467380D02*
X191100952Y-120419761D01*
X191053333Y-120372142D01*
X191005714Y-120276904D01*
X191005714Y-119991190D01*
X191053333Y-119895952D01*
X191100952Y-119848333D01*
X191196190Y-119800714D01*
X191339047Y-119800714D01*
X191434285Y-119848333D01*
X191481904Y-119895952D01*
X191529523Y-119991190D01*
X191529523Y-120276904D01*
X191481904Y-120372142D01*
X191434285Y-120419761D01*
X191339047Y-120467380D01*
X191196190Y-120467380D01*
X191862857Y-119800714D02*
X192053333Y-120467380D01*
X192243809Y-119991190D01*
X192434285Y-120467380D01*
X192624761Y-119800714D01*
X193386666Y-120419761D02*
X193291428Y-120467380D01*
X193100952Y-120467380D01*
X193005714Y-120419761D01*
X192958095Y-120324523D01*
X192958095Y-119943571D01*
X193005714Y-119848333D01*
X193100952Y-119800714D01*
X193291428Y-119800714D01*
X193386666Y-119848333D01*
X193434285Y-119943571D01*
X193434285Y-120038809D01*
X192958095Y-120134047D01*
X193862857Y-120467380D02*
X193862857Y-119800714D01*
X193862857Y-119991190D02*
X193910476Y-119895952D01*
X193958095Y-119848333D01*
X194053333Y-119800714D01*
X194148571Y-119800714D01*
%TO.C,J18*%
X157245476Y-109302380D02*
X157245476Y-110016666D01*
X157197857Y-110159523D01*
X157102619Y-110254761D01*
X156959761Y-110302380D01*
X156864523Y-110302380D01*
X158245476Y-110302380D02*
X157674047Y-110302380D01*
X157959761Y-110302380D02*
X157959761Y-109302380D01*
X157864523Y-109445238D01*
X157769285Y-109540476D01*
X157674047Y-109588095D01*
X158816904Y-109730952D02*
X158721666Y-109683333D01*
X158674047Y-109635714D01*
X158626428Y-109540476D01*
X158626428Y-109492857D01*
X158674047Y-109397619D01*
X158721666Y-109350000D01*
X158816904Y-109302380D01*
X159007380Y-109302380D01*
X159102619Y-109350000D01*
X159150238Y-109397619D01*
X159197857Y-109492857D01*
X159197857Y-109540476D01*
X159150238Y-109635714D01*
X159102619Y-109683333D01*
X159007380Y-109730952D01*
X158816904Y-109730952D01*
X158721666Y-109778571D01*
X158674047Y-109826190D01*
X158626428Y-109921428D01*
X158626428Y-110111904D01*
X158674047Y-110207142D01*
X158721666Y-110254761D01*
X158816904Y-110302380D01*
X159007380Y-110302380D01*
X159102619Y-110254761D01*
X159150238Y-110207142D01*
X159197857Y-110111904D01*
X159197857Y-109921428D01*
X159150238Y-109826190D01*
X159102619Y-109778571D01*
X159007380Y-109730952D01*
X197744285Y-109778571D02*
X197410952Y-109778571D01*
X197410952Y-110302380D02*
X197410952Y-109302380D01*
X197887142Y-109302380D01*
X198410952Y-110302380D02*
X198315714Y-110254761D01*
X198268095Y-110159523D01*
X198268095Y-109302380D01*
X198934761Y-110302380D02*
X198839523Y-110254761D01*
X198791904Y-110207142D01*
X198744285Y-110111904D01*
X198744285Y-109826190D01*
X198791904Y-109730952D01*
X198839523Y-109683333D01*
X198934761Y-109635714D01*
X199077619Y-109635714D01*
X199172857Y-109683333D01*
X199220476Y-109730952D01*
X199268095Y-109826190D01*
X199268095Y-110111904D01*
X199220476Y-110207142D01*
X199172857Y-110254761D01*
X199077619Y-110302380D01*
X198934761Y-110302380D01*
X199696666Y-109635714D02*
X199696666Y-110635714D01*
X199696666Y-109683333D02*
X199791904Y-109635714D01*
X199982380Y-109635714D01*
X200077619Y-109683333D01*
X200125238Y-109730952D01*
X200172857Y-109826190D01*
X200172857Y-110111904D01*
X200125238Y-110207142D01*
X200077619Y-110254761D01*
X199982380Y-110302380D01*
X199791904Y-110302380D01*
X199696666Y-110254761D01*
X200601428Y-109635714D02*
X200601428Y-110635714D01*
X200601428Y-109683333D02*
X200696666Y-109635714D01*
X200887142Y-109635714D01*
X200982380Y-109683333D01*
X201030000Y-109730952D01*
X201077619Y-109826190D01*
X201077619Y-110111904D01*
X201030000Y-110207142D01*
X200982380Y-110254761D01*
X200887142Y-110302380D01*
X200696666Y-110302380D01*
X200601428Y-110254761D01*
X201410952Y-109635714D02*
X201649047Y-110302380D01*
X201887142Y-109635714D02*
X201649047Y-110302380D01*
X201553809Y-110540476D01*
X201506190Y-110588095D01*
X201410952Y-110635714D01*
X202220476Y-110016666D02*
X202696666Y-110016666D01*
X202125238Y-110302380D02*
X202458571Y-109302380D01*
X202791904Y-110302380D01*
%TO.C,J17*%
X180740476Y-124572380D02*
X180740476Y-125286666D01*
X180692857Y-125429523D01*
X180597619Y-125524761D01*
X180454761Y-125572380D01*
X180359523Y-125572380D01*
X181740476Y-125572380D02*
X181169047Y-125572380D01*
X181454761Y-125572380D02*
X181454761Y-124572380D01*
X181359523Y-124715238D01*
X181264285Y-124810476D01*
X181169047Y-124858095D01*
X182073809Y-124572380D02*
X182740476Y-124572380D01*
X182311904Y-125572380D01*
X184767619Y-125023571D02*
X184434285Y-125023571D01*
X184434285Y-125547380D02*
X184434285Y-124547380D01*
X184910476Y-124547380D01*
X185434285Y-125547380D02*
X185339047Y-125499761D01*
X185291428Y-125404523D01*
X185291428Y-124547380D01*
X185958095Y-125547380D02*
X185862857Y-125499761D01*
X185815238Y-125452142D01*
X185767619Y-125356904D01*
X185767619Y-125071190D01*
X185815238Y-124975952D01*
X185862857Y-124928333D01*
X185958095Y-124880714D01*
X186100952Y-124880714D01*
X186196190Y-124928333D01*
X186243809Y-124975952D01*
X186291428Y-125071190D01*
X186291428Y-125356904D01*
X186243809Y-125452142D01*
X186196190Y-125499761D01*
X186100952Y-125547380D01*
X185958095Y-125547380D01*
X186720000Y-124880714D02*
X186720000Y-125880714D01*
X186720000Y-124928333D02*
X186815238Y-124880714D01*
X187005714Y-124880714D01*
X187100952Y-124928333D01*
X187148571Y-124975952D01*
X187196190Y-125071190D01*
X187196190Y-125356904D01*
X187148571Y-125452142D01*
X187100952Y-125499761D01*
X187005714Y-125547380D01*
X186815238Y-125547380D01*
X186720000Y-125499761D01*
X187624761Y-124880714D02*
X187624761Y-125880714D01*
X187624761Y-124928333D02*
X187720000Y-124880714D01*
X187910476Y-124880714D01*
X188005714Y-124928333D01*
X188053333Y-124975952D01*
X188100952Y-125071190D01*
X188100952Y-125356904D01*
X188053333Y-125452142D01*
X188005714Y-125499761D01*
X187910476Y-125547380D01*
X187720000Y-125547380D01*
X187624761Y-125499761D01*
X188434285Y-124880714D02*
X188672380Y-125547380D01*
X188910476Y-124880714D02*
X188672380Y-125547380D01*
X188577142Y-125785476D01*
X188529523Y-125833095D01*
X188434285Y-125880714D01*
X189053333Y-125642619D02*
X189815238Y-125642619D01*
X190053333Y-125547380D02*
X190053333Y-124547380D01*
X190434285Y-124547380D01*
X190529523Y-124595000D01*
X190577142Y-124642619D01*
X190624761Y-124737857D01*
X190624761Y-124880714D01*
X190577142Y-124975952D01*
X190529523Y-125023571D01*
X190434285Y-125071190D01*
X190053333Y-125071190D01*
X191196190Y-125547380D02*
X191100952Y-125499761D01*
X191053333Y-125452142D01*
X191005714Y-125356904D01*
X191005714Y-125071190D01*
X191053333Y-124975952D01*
X191100952Y-124928333D01*
X191196190Y-124880714D01*
X191339047Y-124880714D01*
X191434285Y-124928333D01*
X191481904Y-124975952D01*
X191529523Y-125071190D01*
X191529523Y-125356904D01*
X191481904Y-125452142D01*
X191434285Y-125499761D01*
X191339047Y-125547380D01*
X191196190Y-125547380D01*
X191862857Y-124880714D02*
X192053333Y-125547380D01*
X192243809Y-125071190D01*
X192434285Y-125547380D01*
X192624761Y-124880714D01*
X193386666Y-125499761D02*
X193291428Y-125547380D01*
X193100952Y-125547380D01*
X193005714Y-125499761D01*
X192958095Y-125404523D01*
X192958095Y-125023571D01*
X193005714Y-124928333D01*
X193100952Y-124880714D01*
X193291428Y-124880714D01*
X193386666Y-124928333D01*
X193434285Y-125023571D01*
X193434285Y-125118809D01*
X192958095Y-125214047D01*
X193862857Y-125547380D02*
X193862857Y-124880714D01*
X193862857Y-125071190D02*
X193910476Y-124975952D01*
X193958095Y-124928333D01*
X194053333Y-124880714D01*
X194148571Y-124880714D01*
%TO.C,J16*%
X196040476Y-66437380D02*
X196040476Y-67151666D01*
X195992857Y-67294523D01*
X195897619Y-67389761D01*
X195754761Y-67437380D01*
X195659523Y-67437380D01*
X197040476Y-67437380D02*
X196469047Y-67437380D01*
X196754761Y-67437380D02*
X196754761Y-66437380D01*
X196659523Y-66580238D01*
X196564285Y-66675476D01*
X196469047Y-66723095D01*
X197897619Y-66437380D02*
X197707142Y-66437380D01*
X197611904Y-66485000D01*
X197564285Y-66532619D01*
X197469047Y-66675476D01*
X197421428Y-66865952D01*
X197421428Y-67246904D01*
X197469047Y-67342142D01*
X197516666Y-67389761D01*
X197611904Y-67437380D01*
X197802380Y-67437380D01*
X197897619Y-67389761D01*
X197945238Y-67342142D01*
X197992857Y-67246904D01*
X197992857Y-67008809D01*
X197945238Y-66913571D01*
X197897619Y-66865952D01*
X197802380Y-66818333D01*
X197611904Y-66818333D01*
X197516666Y-66865952D01*
X197469047Y-66913571D01*
X197421428Y-67008809D01*
X195254761Y-74437380D02*
X194921428Y-73961190D01*
X194683333Y-74437380D02*
X194683333Y-73437380D01*
X195064285Y-73437380D01*
X195159523Y-73485000D01*
X195207142Y-73532619D01*
X195254761Y-73627857D01*
X195254761Y-73770714D01*
X195207142Y-73865952D01*
X195159523Y-73913571D01*
X195064285Y-73961190D01*
X194683333Y-73961190D01*
X196064285Y-74389761D02*
X195969047Y-74437380D01*
X195778571Y-74437380D01*
X195683333Y-74389761D01*
X195635714Y-74294523D01*
X195635714Y-73913571D01*
X195683333Y-73818333D01*
X195778571Y-73770714D01*
X195969047Y-73770714D01*
X196064285Y-73818333D01*
X196111904Y-73913571D01*
X196111904Y-74008809D01*
X195635714Y-74104047D01*
X196683333Y-74437380D02*
X196588095Y-74389761D01*
X196540476Y-74294523D01*
X196540476Y-73437380D01*
X197492857Y-74437380D02*
X197492857Y-73913571D01*
X197445238Y-73818333D01*
X197350000Y-73770714D01*
X197159523Y-73770714D01*
X197064285Y-73818333D01*
X197492857Y-74389761D02*
X197397619Y-74437380D01*
X197159523Y-74437380D01*
X197064285Y-74389761D01*
X197016666Y-74294523D01*
X197016666Y-74199285D01*
X197064285Y-74104047D01*
X197159523Y-74056428D01*
X197397619Y-74056428D01*
X197492857Y-74008809D01*
X197873809Y-73770714D02*
X198111904Y-74437380D01*
X198350000Y-73770714D02*
X198111904Y-74437380D01*
X198016666Y-74675476D01*
X197969047Y-74723095D01*
X197873809Y-74770714D01*
X199016666Y-73437380D02*
X199016666Y-74151666D01*
X198969047Y-74294523D01*
X198873809Y-74389761D01*
X198730952Y-74437380D01*
X198635714Y-74437380D01*
%TO.C,J15*%
X189690476Y-66437380D02*
X189690476Y-67151666D01*
X189642857Y-67294523D01*
X189547619Y-67389761D01*
X189404761Y-67437380D01*
X189309523Y-67437380D01*
X190690476Y-67437380D02*
X190119047Y-67437380D01*
X190404761Y-67437380D02*
X190404761Y-66437380D01*
X190309523Y-66580238D01*
X190214285Y-66675476D01*
X190119047Y-66723095D01*
X191595238Y-66437380D02*
X191119047Y-66437380D01*
X191071428Y-66913571D01*
X191119047Y-66865952D01*
X191214285Y-66818333D01*
X191452380Y-66818333D01*
X191547619Y-66865952D01*
X191595238Y-66913571D01*
X191642857Y-67008809D01*
X191642857Y-67246904D01*
X191595238Y-67342142D01*
X191547619Y-67389761D01*
X191452380Y-67437380D01*
X191214285Y-67437380D01*
X191119047Y-67389761D01*
X191071428Y-67342142D01*
X189047619Y-74437380D02*
X188714285Y-73961190D01*
X188476190Y-74437380D02*
X188476190Y-73437380D01*
X188857142Y-73437380D01*
X188952380Y-73485000D01*
X189000000Y-73532619D01*
X189047619Y-73627857D01*
X189047619Y-73770714D01*
X189000000Y-73865952D01*
X188952380Y-73913571D01*
X188857142Y-73961190D01*
X188476190Y-73961190D01*
X189857142Y-74389761D02*
X189761904Y-74437380D01*
X189571428Y-74437380D01*
X189476190Y-74389761D01*
X189428571Y-74294523D01*
X189428571Y-73913571D01*
X189476190Y-73818333D01*
X189571428Y-73770714D01*
X189761904Y-73770714D01*
X189857142Y-73818333D01*
X189904761Y-73913571D01*
X189904761Y-74008809D01*
X189428571Y-74104047D01*
X190476190Y-74437380D02*
X190380952Y-74389761D01*
X190333333Y-74294523D01*
X190333333Y-73437380D01*
X191285714Y-74437380D02*
X191285714Y-73913571D01*
X191238095Y-73818333D01*
X191142857Y-73770714D01*
X190952380Y-73770714D01*
X190857142Y-73818333D01*
X191285714Y-74389761D02*
X191190476Y-74437380D01*
X190952380Y-74437380D01*
X190857142Y-74389761D01*
X190809523Y-74294523D01*
X190809523Y-74199285D01*
X190857142Y-74104047D01*
X190952380Y-74056428D01*
X191190476Y-74056428D01*
X191285714Y-74008809D01*
X191666666Y-73770714D02*
X191904761Y-74437380D01*
X192142857Y-73770714D02*
X191904761Y-74437380D01*
X191809523Y-74675476D01*
X191761904Y-74723095D01*
X191666666Y-74770714D01*
X192523809Y-74437380D02*
X192523809Y-73437380D01*
%TO.C,J14*%
X183340476Y-66437380D02*
X183340476Y-67151666D01*
X183292857Y-67294523D01*
X183197619Y-67389761D01*
X183054761Y-67437380D01*
X182959523Y-67437380D01*
X184340476Y-67437380D02*
X183769047Y-67437380D01*
X184054761Y-67437380D02*
X184054761Y-66437380D01*
X183959523Y-66580238D01*
X183864285Y-66675476D01*
X183769047Y-66723095D01*
X185197619Y-66770714D02*
X185197619Y-67437380D01*
X184959523Y-66389761D02*
X184721428Y-67104047D01*
X185340476Y-67104047D01*
X182411904Y-74437380D02*
X182078571Y-73961190D01*
X181840476Y-74437380D02*
X181840476Y-73437380D01*
X182221428Y-73437380D01*
X182316666Y-73485000D01*
X182364285Y-73532619D01*
X182411904Y-73627857D01*
X182411904Y-73770714D01*
X182364285Y-73865952D01*
X182316666Y-73913571D01*
X182221428Y-73961190D01*
X181840476Y-73961190D01*
X183221428Y-74389761D02*
X183126190Y-74437380D01*
X182935714Y-74437380D01*
X182840476Y-74389761D01*
X182792857Y-74294523D01*
X182792857Y-73913571D01*
X182840476Y-73818333D01*
X182935714Y-73770714D01*
X183126190Y-73770714D01*
X183221428Y-73818333D01*
X183269047Y-73913571D01*
X183269047Y-74008809D01*
X182792857Y-74104047D01*
X183840476Y-74437380D02*
X183745238Y-74389761D01*
X183697619Y-74294523D01*
X183697619Y-73437380D01*
X184650000Y-74437380D02*
X184650000Y-73913571D01*
X184602380Y-73818333D01*
X184507142Y-73770714D01*
X184316666Y-73770714D01*
X184221428Y-73818333D01*
X184650000Y-74389761D02*
X184554761Y-74437380D01*
X184316666Y-74437380D01*
X184221428Y-74389761D01*
X184173809Y-74294523D01*
X184173809Y-74199285D01*
X184221428Y-74104047D01*
X184316666Y-74056428D01*
X184554761Y-74056428D01*
X184650000Y-74008809D01*
X185030952Y-73770714D02*
X185269047Y-74437380D01*
X185507142Y-73770714D02*
X185269047Y-74437380D01*
X185173809Y-74675476D01*
X185126190Y-74723095D01*
X185030952Y-74770714D01*
X185888095Y-74437380D02*
X185888095Y-73437380D01*
X185888095Y-73913571D02*
X186459523Y-73913571D01*
X186459523Y-74437380D02*
X186459523Y-73437380D01*
%TO.C,J13*%
X176990476Y-66437380D02*
X176990476Y-67151666D01*
X176942857Y-67294523D01*
X176847619Y-67389761D01*
X176704761Y-67437380D01*
X176609523Y-67437380D01*
X177990476Y-67437380D02*
X177419047Y-67437380D01*
X177704761Y-67437380D02*
X177704761Y-66437380D01*
X177609523Y-66580238D01*
X177514285Y-66675476D01*
X177419047Y-66723095D01*
X178323809Y-66437380D02*
X178942857Y-66437380D01*
X178609523Y-66818333D01*
X178752380Y-66818333D01*
X178847619Y-66865952D01*
X178895238Y-66913571D01*
X178942857Y-67008809D01*
X178942857Y-67246904D01*
X178895238Y-67342142D01*
X178847619Y-67389761D01*
X178752380Y-67437380D01*
X178466666Y-67437380D01*
X178371428Y-67389761D01*
X178323809Y-67342142D01*
X176085714Y-74437380D02*
X175752380Y-73961190D01*
X175514285Y-74437380D02*
X175514285Y-73437380D01*
X175895238Y-73437380D01*
X175990476Y-73485000D01*
X176038095Y-73532619D01*
X176085714Y-73627857D01*
X176085714Y-73770714D01*
X176038095Y-73865952D01*
X175990476Y-73913571D01*
X175895238Y-73961190D01*
X175514285Y-73961190D01*
X176895238Y-74389761D02*
X176800000Y-74437380D01*
X176609523Y-74437380D01*
X176514285Y-74389761D01*
X176466666Y-74294523D01*
X176466666Y-73913571D01*
X176514285Y-73818333D01*
X176609523Y-73770714D01*
X176800000Y-73770714D01*
X176895238Y-73818333D01*
X176942857Y-73913571D01*
X176942857Y-74008809D01*
X176466666Y-74104047D01*
X177514285Y-74437380D02*
X177419047Y-74389761D01*
X177371428Y-74294523D01*
X177371428Y-73437380D01*
X178323809Y-74437380D02*
X178323809Y-73913571D01*
X178276190Y-73818333D01*
X178180952Y-73770714D01*
X177990476Y-73770714D01*
X177895238Y-73818333D01*
X178323809Y-74389761D02*
X178228571Y-74437380D01*
X177990476Y-74437380D01*
X177895238Y-74389761D01*
X177847619Y-74294523D01*
X177847619Y-74199285D01*
X177895238Y-74104047D01*
X177990476Y-74056428D01*
X178228571Y-74056428D01*
X178323809Y-74008809D01*
X178704761Y-73770714D02*
X178942857Y-74437380D01*
X179180952Y-73770714D02*
X178942857Y-74437380D01*
X178847619Y-74675476D01*
X178800000Y-74723095D01*
X178704761Y-74770714D01*
X180085714Y-73485000D02*
X179990476Y-73437380D01*
X179847619Y-73437380D01*
X179704761Y-73485000D01*
X179609523Y-73580238D01*
X179561904Y-73675476D01*
X179514285Y-73865952D01*
X179514285Y-74008809D01*
X179561904Y-74199285D01*
X179609523Y-74294523D01*
X179704761Y-74389761D01*
X179847619Y-74437380D01*
X179942857Y-74437380D01*
X180085714Y-74389761D01*
X180133333Y-74342142D01*
X180133333Y-74008809D01*
X179942857Y-74008809D01*
%TO.C,J12*%
X170640476Y-66437380D02*
X170640476Y-67151666D01*
X170592857Y-67294523D01*
X170497619Y-67389761D01*
X170354761Y-67437380D01*
X170259523Y-67437380D01*
X171640476Y-67437380D02*
X171069047Y-67437380D01*
X171354761Y-67437380D02*
X171354761Y-66437380D01*
X171259523Y-66580238D01*
X171164285Y-66675476D01*
X171069047Y-66723095D01*
X172021428Y-66532619D02*
X172069047Y-66485000D01*
X172164285Y-66437380D01*
X172402380Y-66437380D01*
X172497619Y-66485000D01*
X172545238Y-66532619D01*
X172592857Y-66627857D01*
X172592857Y-66723095D01*
X172545238Y-66865952D01*
X171973809Y-67437380D01*
X172592857Y-67437380D01*
X169807142Y-74437380D02*
X169473809Y-73961190D01*
X169235714Y-74437380D02*
X169235714Y-73437380D01*
X169616666Y-73437380D01*
X169711904Y-73485000D01*
X169759523Y-73532619D01*
X169807142Y-73627857D01*
X169807142Y-73770714D01*
X169759523Y-73865952D01*
X169711904Y-73913571D01*
X169616666Y-73961190D01*
X169235714Y-73961190D01*
X170616666Y-74389761D02*
X170521428Y-74437380D01*
X170330952Y-74437380D01*
X170235714Y-74389761D01*
X170188095Y-74294523D01*
X170188095Y-73913571D01*
X170235714Y-73818333D01*
X170330952Y-73770714D01*
X170521428Y-73770714D01*
X170616666Y-73818333D01*
X170664285Y-73913571D01*
X170664285Y-74008809D01*
X170188095Y-74104047D01*
X171235714Y-74437380D02*
X171140476Y-74389761D01*
X171092857Y-74294523D01*
X171092857Y-73437380D01*
X172045238Y-74437380D02*
X172045238Y-73913571D01*
X171997619Y-73818333D01*
X171902380Y-73770714D01*
X171711904Y-73770714D01*
X171616666Y-73818333D01*
X172045238Y-74389761D02*
X171950000Y-74437380D01*
X171711904Y-74437380D01*
X171616666Y-74389761D01*
X171569047Y-74294523D01*
X171569047Y-74199285D01*
X171616666Y-74104047D01*
X171711904Y-74056428D01*
X171950000Y-74056428D01*
X172045238Y-74008809D01*
X172426190Y-73770714D02*
X172664285Y-74437380D01*
X172902380Y-73770714D02*
X172664285Y-74437380D01*
X172569047Y-74675476D01*
X172521428Y-74723095D01*
X172426190Y-74770714D01*
X173616666Y-73913571D02*
X173283333Y-73913571D01*
X173283333Y-74437380D02*
X173283333Y-73437380D01*
X173759523Y-73437380D01*
%TO.C,J11*%
X196040476Y-56277380D02*
X196040476Y-56991666D01*
X195992857Y-57134523D01*
X195897619Y-57229761D01*
X195754761Y-57277380D01*
X195659523Y-57277380D01*
X197040476Y-57277380D02*
X196469047Y-57277380D01*
X196754761Y-57277380D02*
X196754761Y-56277380D01*
X196659523Y-56420238D01*
X196564285Y-56515476D01*
X196469047Y-56563095D01*
X197992857Y-57277380D02*
X197421428Y-57277380D01*
X197707142Y-57277380D02*
X197707142Y-56277380D01*
X197611904Y-56420238D01*
X197516666Y-56515476D01*
X197421428Y-56563095D01*
X195183333Y-64277380D02*
X194850000Y-63801190D01*
X194611904Y-64277380D02*
X194611904Y-63277380D01*
X194992857Y-63277380D01*
X195088095Y-63325000D01*
X195135714Y-63372619D01*
X195183333Y-63467857D01*
X195183333Y-63610714D01*
X195135714Y-63705952D01*
X195088095Y-63753571D01*
X194992857Y-63801190D01*
X194611904Y-63801190D01*
X195992857Y-64229761D02*
X195897619Y-64277380D01*
X195707142Y-64277380D01*
X195611904Y-64229761D01*
X195564285Y-64134523D01*
X195564285Y-63753571D01*
X195611904Y-63658333D01*
X195707142Y-63610714D01*
X195897619Y-63610714D01*
X195992857Y-63658333D01*
X196040476Y-63753571D01*
X196040476Y-63848809D01*
X195564285Y-63944047D01*
X196611904Y-64277380D02*
X196516666Y-64229761D01*
X196469047Y-64134523D01*
X196469047Y-63277380D01*
X197421428Y-64277380D02*
X197421428Y-63753571D01*
X197373809Y-63658333D01*
X197278571Y-63610714D01*
X197088095Y-63610714D01*
X196992857Y-63658333D01*
X197421428Y-64229761D02*
X197326190Y-64277380D01*
X197088095Y-64277380D01*
X196992857Y-64229761D01*
X196945238Y-64134523D01*
X196945238Y-64039285D01*
X196992857Y-63944047D01*
X197088095Y-63896428D01*
X197326190Y-63896428D01*
X197421428Y-63848809D01*
X197802380Y-63610714D02*
X198040476Y-64277380D01*
X198278571Y-63610714D02*
X198040476Y-64277380D01*
X197945238Y-64515476D01*
X197897619Y-64563095D01*
X197802380Y-64610714D01*
X198659523Y-63753571D02*
X198992857Y-63753571D01*
X199135714Y-64277380D02*
X198659523Y-64277380D01*
X198659523Y-63277380D01*
X199135714Y-63277380D01*
%TO.C,J10*%
X189690476Y-56277380D02*
X189690476Y-56991666D01*
X189642857Y-57134523D01*
X189547619Y-57229761D01*
X189404761Y-57277380D01*
X189309523Y-57277380D01*
X190690476Y-57277380D02*
X190119047Y-57277380D01*
X190404761Y-57277380D02*
X190404761Y-56277380D01*
X190309523Y-56420238D01*
X190214285Y-56515476D01*
X190119047Y-56563095D01*
X191309523Y-56277380D02*
X191404761Y-56277380D01*
X191500000Y-56325000D01*
X191547619Y-56372619D01*
X191595238Y-56467857D01*
X191642857Y-56658333D01*
X191642857Y-56896428D01*
X191595238Y-57086904D01*
X191547619Y-57182142D01*
X191500000Y-57229761D01*
X191404761Y-57277380D01*
X191309523Y-57277380D01*
X191214285Y-57229761D01*
X191166666Y-57182142D01*
X191119047Y-57086904D01*
X191071428Y-56896428D01*
X191071428Y-56658333D01*
X191119047Y-56467857D01*
X191166666Y-56372619D01*
X191214285Y-56325000D01*
X191309523Y-56277380D01*
X188785714Y-64277380D02*
X188452380Y-63801190D01*
X188214285Y-64277380D02*
X188214285Y-63277380D01*
X188595238Y-63277380D01*
X188690476Y-63325000D01*
X188738095Y-63372619D01*
X188785714Y-63467857D01*
X188785714Y-63610714D01*
X188738095Y-63705952D01*
X188690476Y-63753571D01*
X188595238Y-63801190D01*
X188214285Y-63801190D01*
X189595238Y-64229761D02*
X189500000Y-64277380D01*
X189309523Y-64277380D01*
X189214285Y-64229761D01*
X189166666Y-64134523D01*
X189166666Y-63753571D01*
X189214285Y-63658333D01*
X189309523Y-63610714D01*
X189500000Y-63610714D01*
X189595238Y-63658333D01*
X189642857Y-63753571D01*
X189642857Y-63848809D01*
X189166666Y-63944047D01*
X190214285Y-64277380D02*
X190119047Y-64229761D01*
X190071428Y-64134523D01*
X190071428Y-63277380D01*
X191023809Y-64277380D02*
X191023809Y-63753571D01*
X190976190Y-63658333D01*
X190880952Y-63610714D01*
X190690476Y-63610714D01*
X190595238Y-63658333D01*
X191023809Y-64229761D02*
X190928571Y-64277380D01*
X190690476Y-64277380D01*
X190595238Y-64229761D01*
X190547619Y-64134523D01*
X190547619Y-64039285D01*
X190595238Y-63944047D01*
X190690476Y-63896428D01*
X190928571Y-63896428D01*
X191023809Y-63848809D01*
X191404761Y-63610714D02*
X191642857Y-64277380D01*
X191880952Y-63610714D02*
X191642857Y-64277380D01*
X191547619Y-64515476D01*
X191500000Y-64563095D01*
X191404761Y-64610714D01*
X192261904Y-64277380D02*
X192261904Y-63277380D01*
X192500000Y-63277380D01*
X192642857Y-63325000D01*
X192738095Y-63420238D01*
X192785714Y-63515476D01*
X192833333Y-63705952D01*
X192833333Y-63848809D01*
X192785714Y-64039285D01*
X192738095Y-64134523D01*
X192642857Y-64229761D01*
X192500000Y-64277380D01*
X192261904Y-64277380D01*
%TO.C,J9*%
X183816666Y-56277380D02*
X183816666Y-56991666D01*
X183769047Y-57134523D01*
X183673809Y-57229761D01*
X183530952Y-57277380D01*
X183435714Y-57277380D01*
X184340476Y-57277380D02*
X184530952Y-57277380D01*
X184626190Y-57229761D01*
X184673809Y-57182142D01*
X184769047Y-57039285D01*
X184816666Y-56848809D01*
X184816666Y-56467857D01*
X184769047Y-56372619D01*
X184721428Y-56325000D01*
X184626190Y-56277380D01*
X184435714Y-56277380D01*
X184340476Y-56325000D01*
X184292857Y-56372619D01*
X184245238Y-56467857D01*
X184245238Y-56705952D01*
X184292857Y-56801190D01*
X184340476Y-56848809D01*
X184435714Y-56896428D01*
X184626190Y-56896428D01*
X184721428Y-56848809D01*
X184769047Y-56801190D01*
X184816666Y-56705952D01*
X182435714Y-64277380D02*
X182102380Y-63801190D01*
X181864285Y-64277380D02*
X181864285Y-63277380D01*
X182245238Y-63277380D01*
X182340476Y-63325000D01*
X182388095Y-63372619D01*
X182435714Y-63467857D01*
X182435714Y-63610714D01*
X182388095Y-63705952D01*
X182340476Y-63753571D01*
X182245238Y-63801190D01*
X181864285Y-63801190D01*
X183245238Y-64229761D02*
X183150000Y-64277380D01*
X182959523Y-64277380D01*
X182864285Y-64229761D01*
X182816666Y-64134523D01*
X182816666Y-63753571D01*
X182864285Y-63658333D01*
X182959523Y-63610714D01*
X183150000Y-63610714D01*
X183245238Y-63658333D01*
X183292857Y-63753571D01*
X183292857Y-63848809D01*
X182816666Y-63944047D01*
X183864285Y-64277380D02*
X183769047Y-64229761D01*
X183721428Y-64134523D01*
X183721428Y-63277380D01*
X184673809Y-64277380D02*
X184673809Y-63753571D01*
X184626190Y-63658333D01*
X184530952Y-63610714D01*
X184340476Y-63610714D01*
X184245238Y-63658333D01*
X184673809Y-64229761D02*
X184578571Y-64277380D01*
X184340476Y-64277380D01*
X184245238Y-64229761D01*
X184197619Y-64134523D01*
X184197619Y-64039285D01*
X184245238Y-63944047D01*
X184340476Y-63896428D01*
X184578571Y-63896428D01*
X184673809Y-63848809D01*
X185054761Y-63610714D02*
X185292857Y-64277380D01*
X185530952Y-63610714D02*
X185292857Y-64277380D01*
X185197619Y-64515476D01*
X185150000Y-64563095D01*
X185054761Y-64610714D01*
X186483333Y-64182142D02*
X186435714Y-64229761D01*
X186292857Y-64277380D01*
X186197619Y-64277380D01*
X186054761Y-64229761D01*
X185959523Y-64134523D01*
X185911904Y-64039285D01*
X185864285Y-63848809D01*
X185864285Y-63705952D01*
X185911904Y-63515476D01*
X185959523Y-63420238D01*
X186054761Y-63325000D01*
X186197619Y-63277380D01*
X186292857Y-63277380D01*
X186435714Y-63325000D01*
X186483333Y-63372619D01*
%TO.C,J8*%
X177466666Y-56277380D02*
X177466666Y-56991666D01*
X177419047Y-57134523D01*
X177323809Y-57229761D01*
X177180952Y-57277380D01*
X177085714Y-57277380D01*
X178085714Y-56705952D02*
X177990476Y-56658333D01*
X177942857Y-56610714D01*
X177895238Y-56515476D01*
X177895238Y-56467857D01*
X177942857Y-56372619D01*
X177990476Y-56325000D01*
X178085714Y-56277380D01*
X178276190Y-56277380D01*
X178371428Y-56325000D01*
X178419047Y-56372619D01*
X178466666Y-56467857D01*
X178466666Y-56515476D01*
X178419047Y-56610714D01*
X178371428Y-56658333D01*
X178276190Y-56705952D01*
X178085714Y-56705952D01*
X177990476Y-56753571D01*
X177942857Y-56801190D01*
X177895238Y-56896428D01*
X177895238Y-57086904D01*
X177942857Y-57182142D01*
X177990476Y-57229761D01*
X178085714Y-57277380D01*
X178276190Y-57277380D01*
X178371428Y-57229761D01*
X178419047Y-57182142D01*
X178466666Y-57086904D01*
X178466666Y-56896428D01*
X178419047Y-56801190D01*
X178371428Y-56753571D01*
X178276190Y-56705952D01*
X176085714Y-64277380D02*
X175752380Y-63801190D01*
X175514285Y-64277380D02*
X175514285Y-63277380D01*
X175895238Y-63277380D01*
X175990476Y-63325000D01*
X176038095Y-63372619D01*
X176085714Y-63467857D01*
X176085714Y-63610714D01*
X176038095Y-63705952D01*
X175990476Y-63753571D01*
X175895238Y-63801190D01*
X175514285Y-63801190D01*
X176895238Y-64229761D02*
X176800000Y-64277380D01*
X176609523Y-64277380D01*
X176514285Y-64229761D01*
X176466666Y-64134523D01*
X176466666Y-63753571D01*
X176514285Y-63658333D01*
X176609523Y-63610714D01*
X176800000Y-63610714D01*
X176895238Y-63658333D01*
X176942857Y-63753571D01*
X176942857Y-63848809D01*
X176466666Y-63944047D01*
X177514285Y-64277380D02*
X177419047Y-64229761D01*
X177371428Y-64134523D01*
X177371428Y-63277380D01*
X178323809Y-64277380D02*
X178323809Y-63753571D01*
X178276190Y-63658333D01*
X178180952Y-63610714D01*
X177990476Y-63610714D01*
X177895238Y-63658333D01*
X178323809Y-64229761D02*
X178228571Y-64277380D01*
X177990476Y-64277380D01*
X177895238Y-64229761D01*
X177847619Y-64134523D01*
X177847619Y-64039285D01*
X177895238Y-63944047D01*
X177990476Y-63896428D01*
X178228571Y-63896428D01*
X178323809Y-63848809D01*
X178704761Y-63610714D02*
X178942857Y-64277380D01*
X179180952Y-63610714D02*
X178942857Y-64277380D01*
X178847619Y-64515476D01*
X178800000Y-64563095D01*
X178704761Y-64610714D01*
X179895238Y-63753571D02*
X180038095Y-63801190D01*
X180085714Y-63848809D01*
X180133333Y-63944047D01*
X180133333Y-64086904D01*
X180085714Y-64182142D01*
X180038095Y-64229761D01*
X179942857Y-64277380D01*
X179561904Y-64277380D01*
X179561904Y-63277380D01*
X179895238Y-63277380D01*
X179990476Y-63325000D01*
X180038095Y-63372619D01*
X180085714Y-63467857D01*
X180085714Y-63563095D01*
X180038095Y-63658333D01*
X179990476Y-63705952D01*
X179895238Y-63753571D01*
X179561904Y-63753571D01*
%TO.C,J7*%
X171116666Y-56277380D02*
X171116666Y-56991666D01*
X171069047Y-57134523D01*
X170973809Y-57229761D01*
X170830952Y-57277380D01*
X170735714Y-57277380D01*
X171497619Y-56277380D02*
X172164285Y-56277380D01*
X171735714Y-57277380D01*
X169807142Y-64277380D02*
X169473809Y-63801190D01*
X169235714Y-64277380D02*
X169235714Y-63277380D01*
X169616666Y-63277380D01*
X169711904Y-63325000D01*
X169759523Y-63372619D01*
X169807142Y-63467857D01*
X169807142Y-63610714D01*
X169759523Y-63705952D01*
X169711904Y-63753571D01*
X169616666Y-63801190D01*
X169235714Y-63801190D01*
X170616666Y-64229761D02*
X170521428Y-64277380D01*
X170330952Y-64277380D01*
X170235714Y-64229761D01*
X170188095Y-64134523D01*
X170188095Y-63753571D01*
X170235714Y-63658333D01*
X170330952Y-63610714D01*
X170521428Y-63610714D01*
X170616666Y-63658333D01*
X170664285Y-63753571D01*
X170664285Y-63848809D01*
X170188095Y-63944047D01*
X171235714Y-64277380D02*
X171140476Y-64229761D01*
X171092857Y-64134523D01*
X171092857Y-63277380D01*
X172045238Y-64277380D02*
X172045238Y-63753571D01*
X171997619Y-63658333D01*
X171902380Y-63610714D01*
X171711904Y-63610714D01*
X171616666Y-63658333D01*
X172045238Y-64229761D02*
X171950000Y-64277380D01*
X171711904Y-64277380D01*
X171616666Y-64229761D01*
X171569047Y-64134523D01*
X171569047Y-64039285D01*
X171616666Y-63944047D01*
X171711904Y-63896428D01*
X171950000Y-63896428D01*
X172045238Y-63848809D01*
X172426190Y-63610714D02*
X172664285Y-64277380D01*
X172902380Y-63610714D02*
X172664285Y-64277380D01*
X172569047Y-64515476D01*
X172521428Y-64563095D01*
X172426190Y-64610714D01*
X173235714Y-63991666D02*
X173711904Y-63991666D01*
X173140476Y-64277380D02*
X173473809Y-63277380D01*
X173807142Y-64277380D01*
%TO.C,J6*%
X166421666Y-115657380D02*
X166421666Y-116371666D01*
X166374047Y-116514523D01*
X166278809Y-116609761D01*
X166135952Y-116657380D01*
X166040714Y-116657380D01*
X167326428Y-115657380D02*
X167135952Y-115657380D01*
X167040714Y-115705000D01*
X166993095Y-115752619D01*
X166897857Y-115895476D01*
X166850238Y-116085952D01*
X166850238Y-116466904D01*
X166897857Y-116562142D01*
X166945476Y-116609761D01*
X167040714Y-116657380D01*
X167231190Y-116657380D01*
X167326428Y-116609761D01*
X167374047Y-116562142D01*
X167421666Y-116466904D01*
X167421666Y-116228809D01*
X167374047Y-116133571D01*
X167326428Y-116085952D01*
X167231190Y-116038333D01*
X167040714Y-116038333D01*
X166945476Y-116085952D01*
X166897857Y-116133571D01*
X166850238Y-116228809D01*
X170259761Y-116609761D02*
X170402619Y-116657380D01*
X170640714Y-116657380D01*
X170735952Y-116609761D01*
X170783571Y-116562142D01*
X170831190Y-116466904D01*
X170831190Y-116371666D01*
X170783571Y-116276428D01*
X170735952Y-116228809D01*
X170640714Y-116181190D01*
X170450238Y-116133571D01*
X170355000Y-116085952D01*
X170307380Y-116038333D01*
X170259761Y-115943095D01*
X170259761Y-115847857D01*
X170307380Y-115752619D01*
X170355000Y-115705000D01*
X170450238Y-115657380D01*
X170688333Y-115657380D01*
X170831190Y-115705000D01*
X171116904Y-115990714D02*
X171497857Y-115990714D01*
X171259761Y-115657380D02*
X171259761Y-116514523D01*
X171307380Y-116609761D01*
X171402619Y-116657380D01*
X171497857Y-116657380D01*
X171831190Y-115990714D02*
X171831190Y-116990714D01*
X171831190Y-116038333D02*
X171926428Y-115990714D01*
X172116904Y-115990714D01*
X172212142Y-116038333D01*
X172259761Y-116085952D01*
X172307380Y-116181190D01*
X172307380Y-116466904D01*
X172259761Y-116562142D01*
X172212142Y-116609761D01*
X172116904Y-116657380D01*
X171926428Y-116657380D01*
X171831190Y-116609761D01*
X172735952Y-116657380D02*
X172735952Y-115657380D01*
X173069285Y-116371666D01*
X173402619Y-115657380D01*
X173402619Y-116657380D01*
X174021666Y-116657380D02*
X173926428Y-116609761D01*
X173878809Y-116562142D01*
X173831190Y-116466904D01*
X173831190Y-116181190D01*
X173878809Y-116085952D01*
X173926428Y-116038333D01*
X174021666Y-115990714D01*
X174164523Y-115990714D01*
X174259761Y-116038333D01*
X174307380Y-116085952D01*
X174355000Y-116181190D01*
X174355000Y-116466904D01*
X174307380Y-116562142D01*
X174259761Y-116609761D01*
X174164523Y-116657380D01*
X174021666Y-116657380D01*
X174640714Y-115990714D02*
X175021666Y-115990714D01*
X174783571Y-115657380D02*
X174783571Y-116514523D01*
X174831190Y-116609761D01*
X174926428Y-116657380D01*
X175021666Y-116657380D01*
X175497857Y-116657380D02*
X175402619Y-116609761D01*
X175355000Y-116562142D01*
X175307380Y-116466904D01*
X175307380Y-116181190D01*
X175355000Y-116085952D01*
X175402619Y-116038333D01*
X175497857Y-115990714D01*
X175640714Y-115990714D01*
X175735952Y-116038333D01*
X175783571Y-116085952D01*
X175831190Y-116181190D01*
X175831190Y-116466904D01*
X175783571Y-116562142D01*
X175735952Y-116609761D01*
X175640714Y-116657380D01*
X175497857Y-116657380D01*
X176259761Y-116657380D02*
X176259761Y-115990714D01*
X176259761Y-116181190D02*
X176307380Y-116085952D01*
X176355000Y-116038333D01*
X176450238Y-115990714D01*
X176545476Y-115990714D01*
%TO.C,J5*%
X171751666Y-125182380D02*
X171751666Y-125896666D01*
X171704047Y-126039523D01*
X171608809Y-126134761D01*
X171465952Y-126182380D01*
X171370714Y-126182380D01*
X172704047Y-125182380D02*
X172227857Y-125182380D01*
X172180238Y-125658571D01*
X172227857Y-125610952D01*
X172323095Y-125563333D01*
X172561190Y-125563333D01*
X172656428Y-125610952D01*
X172704047Y-125658571D01*
X172751666Y-125753809D01*
X172751666Y-125991904D01*
X172704047Y-126087142D01*
X172656428Y-126134761D01*
X172561190Y-126182380D01*
X172323095Y-126182380D01*
X172227857Y-126134761D01*
X172180238Y-126087142D01*
X172371190Y-121689761D02*
X172514047Y-121737380D01*
X172752142Y-121737380D01*
X172847380Y-121689761D01*
X172895000Y-121642142D01*
X172942619Y-121546904D01*
X172942619Y-121451666D01*
X172895000Y-121356428D01*
X172847380Y-121308809D01*
X172752142Y-121261190D01*
X172561666Y-121213571D01*
X172466428Y-121165952D01*
X172418809Y-121118333D01*
X172371190Y-121023095D01*
X172371190Y-120927857D01*
X172418809Y-120832619D01*
X172466428Y-120785000D01*
X172561666Y-120737380D01*
X172799761Y-120737380D01*
X172942619Y-120785000D01*
X173514047Y-121737380D02*
X173418809Y-121689761D01*
X173371190Y-121642142D01*
X173323571Y-121546904D01*
X173323571Y-121261190D01*
X173371190Y-121165952D01*
X173418809Y-121118333D01*
X173514047Y-121070714D01*
X173656904Y-121070714D01*
X173752142Y-121118333D01*
X173799761Y-121165952D01*
X173847380Y-121261190D01*
X173847380Y-121546904D01*
X173799761Y-121642142D01*
X173752142Y-121689761D01*
X173656904Y-121737380D01*
X173514047Y-121737380D01*
X174418809Y-121737380D02*
X174323571Y-121689761D01*
X174275952Y-121594523D01*
X174275952Y-120737380D01*
X175180714Y-121689761D02*
X175085476Y-121737380D01*
X174895000Y-121737380D01*
X174799761Y-121689761D01*
X174752142Y-121594523D01*
X174752142Y-121213571D01*
X174799761Y-121118333D01*
X174895000Y-121070714D01*
X175085476Y-121070714D01*
X175180714Y-121118333D01*
X175228333Y-121213571D01*
X175228333Y-121308809D01*
X174752142Y-121404047D01*
X175656904Y-121070714D02*
X175656904Y-121737380D01*
X175656904Y-121165952D02*
X175704523Y-121118333D01*
X175799761Y-121070714D01*
X175942619Y-121070714D01*
X176037857Y-121118333D01*
X176085476Y-121213571D01*
X176085476Y-121737380D01*
X176704523Y-121737380D02*
X176609285Y-121689761D01*
X176561666Y-121642142D01*
X176514047Y-121546904D01*
X176514047Y-121261190D01*
X176561666Y-121165952D01*
X176609285Y-121118333D01*
X176704523Y-121070714D01*
X176847380Y-121070714D01*
X176942619Y-121118333D01*
X176990238Y-121165952D01*
X177037857Y-121261190D01*
X177037857Y-121546904D01*
X176990238Y-121642142D01*
X176942619Y-121689761D01*
X176847380Y-121737380D01*
X176704523Y-121737380D01*
X177466428Y-121737380D02*
X177466428Y-121070714D01*
X177466428Y-120737380D02*
X177418809Y-120785000D01*
X177466428Y-120832619D01*
X177514047Y-120785000D01*
X177466428Y-120737380D01*
X177466428Y-120832619D01*
X178371190Y-121737380D02*
X178371190Y-120737380D01*
X178371190Y-121689761D02*
X178275952Y-121737380D01*
X178085476Y-121737380D01*
X177990238Y-121689761D01*
X177942619Y-121642142D01*
X177895000Y-121546904D01*
X177895000Y-121261190D01*
X177942619Y-121165952D01*
X177990238Y-121118333D01*
X178085476Y-121070714D01*
X178275952Y-121070714D01*
X178371190Y-121118333D01*
X179180714Y-121213571D02*
X179323571Y-121261190D01*
X179371190Y-121308809D01*
X179418809Y-121404047D01*
X179418809Y-121546904D01*
X179371190Y-121642142D01*
X179323571Y-121689761D01*
X179228333Y-121737380D01*
X178847380Y-121737380D01*
X178847380Y-120737380D01*
X179180714Y-120737380D01*
X179275952Y-120785000D01*
X179323571Y-120832619D01*
X179371190Y-120927857D01*
X179371190Y-121023095D01*
X179323571Y-121118333D01*
X179275952Y-121165952D01*
X179180714Y-121213571D01*
X178847380Y-121213571D01*
%TO.C,J4*%
X166306666Y-125182380D02*
X166306666Y-125896666D01*
X166259047Y-126039523D01*
X166163809Y-126134761D01*
X166020952Y-126182380D01*
X165925714Y-126182380D01*
X167211428Y-125515714D02*
X167211428Y-126182380D01*
X166973333Y-125134761D02*
X166735238Y-125849047D01*
X167354285Y-125849047D01*
X164187619Y-121689761D02*
X164330476Y-121737380D01*
X164568571Y-121737380D01*
X164663809Y-121689761D01*
X164711428Y-121642142D01*
X164759047Y-121546904D01*
X164759047Y-121451666D01*
X164711428Y-121356428D01*
X164663809Y-121308809D01*
X164568571Y-121261190D01*
X164378095Y-121213571D01*
X164282857Y-121165952D01*
X164235238Y-121118333D01*
X164187619Y-121023095D01*
X164187619Y-120927857D01*
X164235238Y-120832619D01*
X164282857Y-120785000D01*
X164378095Y-120737380D01*
X164616190Y-120737380D01*
X164759047Y-120785000D01*
X165330476Y-121737380D02*
X165235238Y-121689761D01*
X165187619Y-121642142D01*
X165140000Y-121546904D01*
X165140000Y-121261190D01*
X165187619Y-121165952D01*
X165235238Y-121118333D01*
X165330476Y-121070714D01*
X165473333Y-121070714D01*
X165568571Y-121118333D01*
X165616190Y-121165952D01*
X165663809Y-121261190D01*
X165663809Y-121546904D01*
X165616190Y-121642142D01*
X165568571Y-121689761D01*
X165473333Y-121737380D01*
X165330476Y-121737380D01*
X166235238Y-121737380D02*
X166140000Y-121689761D01*
X166092380Y-121594523D01*
X166092380Y-120737380D01*
X166997142Y-121689761D02*
X166901904Y-121737380D01*
X166711428Y-121737380D01*
X166616190Y-121689761D01*
X166568571Y-121594523D01*
X166568571Y-121213571D01*
X166616190Y-121118333D01*
X166711428Y-121070714D01*
X166901904Y-121070714D01*
X166997142Y-121118333D01*
X167044761Y-121213571D01*
X167044761Y-121308809D01*
X166568571Y-121404047D01*
X167473333Y-121070714D02*
X167473333Y-121737380D01*
X167473333Y-121165952D02*
X167520952Y-121118333D01*
X167616190Y-121070714D01*
X167759047Y-121070714D01*
X167854285Y-121118333D01*
X167901904Y-121213571D01*
X167901904Y-121737380D01*
X168520952Y-121737380D02*
X168425714Y-121689761D01*
X168378095Y-121642142D01*
X168330476Y-121546904D01*
X168330476Y-121261190D01*
X168378095Y-121165952D01*
X168425714Y-121118333D01*
X168520952Y-121070714D01*
X168663809Y-121070714D01*
X168759047Y-121118333D01*
X168806666Y-121165952D01*
X168854285Y-121261190D01*
X168854285Y-121546904D01*
X168806666Y-121642142D01*
X168759047Y-121689761D01*
X168663809Y-121737380D01*
X168520952Y-121737380D01*
X169282857Y-121737380D02*
X169282857Y-121070714D01*
X169282857Y-120737380D02*
X169235238Y-120785000D01*
X169282857Y-120832619D01*
X169330476Y-120785000D01*
X169282857Y-120737380D01*
X169282857Y-120832619D01*
X170187619Y-121737380D02*
X170187619Y-120737380D01*
X170187619Y-121689761D02*
X170092380Y-121737380D01*
X169901904Y-121737380D01*
X169806666Y-121689761D01*
X169759047Y-121642142D01*
X169711428Y-121546904D01*
X169711428Y-121261190D01*
X169759047Y-121165952D01*
X169806666Y-121118333D01*
X169901904Y-121070714D01*
X170092380Y-121070714D01*
X170187619Y-121118333D01*
X170616190Y-121451666D02*
X171092380Y-121451666D01*
X170520952Y-121737380D02*
X170854285Y-120737380D01*
X171187619Y-121737380D01*
%TO.C,J3*%
X162226666Y-55537380D02*
X162226666Y-56251666D01*
X162179047Y-56394523D01*
X162083809Y-56489761D01*
X161940952Y-56537380D01*
X161845714Y-56537380D01*
X162607619Y-55537380D02*
X163226666Y-55537380D01*
X162893333Y-55918333D01*
X163036190Y-55918333D01*
X163131428Y-55965952D01*
X163179047Y-56013571D01*
X163226666Y-56108809D01*
X163226666Y-56346904D01*
X163179047Y-56442142D01*
X163131428Y-56489761D01*
X163036190Y-56537380D01*
X162750476Y-56537380D01*
X162655238Y-56489761D01*
X162607619Y-56442142D01*
X157607619Y-73897380D02*
X157607619Y-72897380D01*
X157940952Y-73611666D01*
X158274285Y-72897380D01*
X158274285Y-73897380D01*
X158893333Y-73897380D02*
X158798095Y-73849761D01*
X158750476Y-73802142D01*
X158702857Y-73706904D01*
X158702857Y-73421190D01*
X158750476Y-73325952D01*
X158798095Y-73278333D01*
X158893333Y-73230714D01*
X159036190Y-73230714D01*
X159131428Y-73278333D01*
X159179047Y-73325952D01*
X159226666Y-73421190D01*
X159226666Y-73706904D01*
X159179047Y-73802142D01*
X159131428Y-73849761D01*
X159036190Y-73897380D01*
X158893333Y-73897380D01*
X159512380Y-73230714D02*
X159893333Y-73230714D01*
X159655238Y-72897380D02*
X159655238Y-73754523D01*
X159702857Y-73849761D01*
X159798095Y-73897380D01*
X159893333Y-73897380D01*
X160369523Y-73897380D02*
X160274285Y-73849761D01*
X160226666Y-73802142D01*
X160179047Y-73706904D01*
X160179047Y-73421190D01*
X160226666Y-73325952D01*
X160274285Y-73278333D01*
X160369523Y-73230714D01*
X160512380Y-73230714D01*
X160607619Y-73278333D01*
X160655238Y-73325952D01*
X160702857Y-73421190D01*
X160702857Y-73706904D01*
X160655238Y-73802142D01*
X160607619Y-73849761D01*
X160512380Y-73897380D01*
X160369523Y-73897380D01*
X161131428Y-73897380D02*
X161131428Y-73230714D01*
X161131428Y-73421190D02*
X161179047Y-73325952D01*
X161226666Y-73278333D01*
X161321904Y-73230714D01*
X161417142Y-73230714D01*
X161750476Y-73897380D02*
X161750476Y-72897380D01*
X161988571Y-72897380D01*
X162131428Y-72945000D01*
X162226666Y-73040238D01*
X162274285Y-73135476D01*
X162321904Y-73325952D01*
X162321904Y-73468809D01*
X162274285Y-73659285D01*
X162226666Y-73754523D01*
X162131428Y-73849761D01*
X161988571Y-73897380D01*
X161750476Y-73897380D01*
X162750476Y-73897380D02*
X162750476Y-73230714D01*
X162750476Y-73421190D02*
X162798095Y-73325952D01*
X162845714Y-73278333D01*
X162940952Y-73230714D01*
X163036190Y-73230714D01*
X163369523Y-73897380D02*
X163369523Y-73230714D01*
X163369523Y-72897380D02*
X163321904Y-72945000D01*
X163369523Y-72992619D01*
X163417142Y-72945000D01*
X163369523Y-72897380D01*
X163369523Y-72992619D01*
X163750476Y-73230714D02*
X163988571Y-73897380D01*
X164226666Y-73230714D01*
X164988571Y-73849761D02*
X164893333Y-73897380D01*
X164702857Y-73897380D01*
X164607619Y-73849761D01*
X164560000Y-73754523D01*
X164560000Y-73373571D01*
X164607619Y-73278333D01*
X164702857Y-73230714D01*
X164893333Y-73230714D01*
X164988571Y-73278333D01*
X165036190Y-73373571D01*
X165036190Y-73468809D01*
X164560000Y-73564047D01*
X165655238Y-72897380D02*
X165845714Y-72897380D01*
X165940952Y-72945000D01*
X166036190Y-73040238D01*
X166083809Y-73230714D01*
X166083809Y-73564047D01*
X166036190Y-73754523D01*
X165940952Y-73849761D01*
X165845714Y-73897380D01*
X165655238Y-73897380D01*
X165560000Y-73849761D01*
X165464761Y-73754523D01*
X165417142Y-73564047D01*
X165417142Y-73230714D01*
X165464761Y-73040238D01*
X165560000Y-72945000D01*
X165655238Y-72897380D01*
X166940952Y-73230714D02*
X166940952Y-73897380D01*
X166512380Y-73230714D02*
X166512380Y-73754523D01*
X166560000Y-73849761D01*
X166655238Y-73897380D01*
X166798095Y-73897380D01*
X166893333Y-73849761D01*
X166940952Y-73802142D01*
X167274285Y-73230714D02*
X167655238Y-73230714D01*
X167417142Y-72897380D02*
X167417142Y-73754523D01*
X167464761Y-73849761D01*
X167560000Y-73897380D01*
X167655238Y-73897380D01*
%TO.C,J2*%
X149526666Y-68032380D02*
X149526666Y-68746666D01*
X149479047Y-68889523D01*
X149383809Y-68984761D01*
X149240952Y-69032380D01*
X149145714Y-69032380D01*
X149955238Y-68127619D02*
X150002857Y-68080000D01*
X150098095Y-68032380D01*
X150336190Y-68032380D01*
X150431428Y-68080000D01*
X150479047Y-68127619D01*
X150526666Y-68222857D01*
X150526666Y-68318095D01*
X150479047Y-68460952D01*
X149907619Y-69032380D01*
X150526666Y-69032380D01*
X148979523Y-70302380D02*
X148979523Y-69302380D01*
X149312857Y-70016666D01*
X149646190Y-69302380D01*
X149646190Y-70302380D01*
X150265238Y-70302380D02*
X150170000Y-70254761D01*
X150122380Y-70207142D01*
X150074761Y-70111904D01*
X150074761Y-69826190D01*
X150122380Y-69730952D01*
X150170000Y-69683333D01*
X150265238Y-69635714D01*
X150408095Y-69635714D01*
X150503333Y-69683333D01*
X150550952Y-69730952D01*
X150598571Y-69826190D01*
X150598571Y-70111904D01*
X150550952Y-70207142D01*
X150503333Y-70254761D01*
X150408095Y-70302380D01*
X150265238Y-70302380D01*
X150884285Y-69635714D02*
X151265238Y-69635714D01*
X151027142Y-69302380D02*
X151027142Y-70159523D01*
X151074761Y-70254761D01*
X151170000Y-70302380D01*
X151265238Y-70302380D01*
X151741428Y-70302380D02*
X151646190Y-70254761D01*
X151598571Y-70207142D01*
X151550952Y-70111904D01*
X151550952Y-69826190D01*
X151598571Y-69730952D01*
X151646190Y-69683333D01*
X151741428Y-69635714D01*
X151884285Y-69635714D01*
X151979523Y-69683333D01*
X152027142Y-69730952D01*
X152074761Y-69826190D01*
X152074761Y-70111904D01*
X152027142Y-70207142D01*
X151979523Y-70254761D01*
X151884285Y-70302380D01*
X151741428Y-70302380D01*
X152503333Y-70302380D02*
X152503333Y-69635714D01*
X152503333Y-69826190D02*
X152550952Y-69730952D01*
X152598571Y-69683333D01*
X152693809Y-69635714D01*
X152789047Y-69635714D01*
X153122380Y-70302380D02*
X153122380Y-69302380D01*
X153360476Y-69302380D01*
X153503333Y-69350000D01*
X153598571Y-69445238D01*
X153646190Y-69540476D01*
X153693809Y-69730952D01*
X153693809Y-69873809D01*
X153646190Y-70064285D01*
X153598571Y-70159523D01*
X153503333Y-70254761D01*
X153360476Y-70302380D01*
X153122380Y-70302380D01*
X154122380Y-70302380D02*
X154122380Y-69635714D01*
X154122380Y-69826190D02*
X154170000Y-69730952D01*
X154217619Y-69683333D01*
X154312857Y-69635714D01*
X154408095Y-69635714D01*
X154741428Y-70302380D02*
X154741428Y-69635714D01*
X154741428Y-69302380D02*
X154693809Y-69350000D01*
X154741428Y-69397619D01*
X154789047Y-69350000D01*
X154741428Y-69302380D01*
X154741428Y-69397619D01*
X155122380Y-69635714D02*
X155360476Y-70302380D01*
X155598571Y-69635714D01*
X156360476Y-70254761D02*
X156265238Y-70302380D01*
X156074761Y-70302380D01*
X155979523Y-70254761D01*
X155931904Y-70159523D01*
X155931904Y-69778571D01*
X155979523Y-69683333D01*
X156074761Y-69635714D01*
X156265238Y-69635714D01*
X156360476Y-69683333D01*
X156408095Y-69778571D01*
X156408095Y-69873809D01*
X155931904Y-69969047D01*
X156836666Y-70302380D02*
X156836666Y-69635714D01*
X156836666Y-69826190D02*
X156884285Y-69730952D01*
X156931904Y-69683333D01*
X157027142Y-69635714D01*
X157122380Y-69635714D01*
X157455714Y-70302380D02*
X157455714Y-69302380D01*
X157931904Y-69635714D02*
X157931904Y-70302380D01*
X157931904Y-69730952D02*
X157979523Y-69683333D01*
X158074761Y-69635714D01*
X158217619Y-69635714D01*
X158312857Y-69683333D01*
X158360476Y-69778571D01*
X158360476Y-70302380D01*
%TO.C,J1*%
X107325666Y-118544880D02*
X107325666Y-119259166D01*
X107278047Y-119402023D01*
X107182809Y-119497261D01*
X107039952Y-119544880D01*
X106944714Y-119544880D01*
X108325666Y-119544880D02*
X107754238Y-119544880D01*
X108039952Y-119544880D02*
X108039952Y-118544880D01*
X107944714Y-118687738D01*
X107849476Y-118782976D01*
X107754238Y-118830595D01*
X107147095Y-107294880D02*
X107147095Y-108009166D01*
X107099476Y-108152023D01*
X107004238Y-108247261D01*
X106861380Y-108294880D01*
X106766142Y-108294880D01*
X108051857Y-108294880D02*
X108051857Y-107771071D01*
X108004238Y-107675833D01*
X107909000Y-107628214D01*
X107718523Y-107628214D01*
X107623285Y-107675833D01*
X108051857Y-108247261D02*
X107956619Y-108294880D01*
X107718523Y-108294880D01*
X107623285Y-108247261D01*
X107575666Y-108152023D01*
X107575666Y-108056785D01*
X107623285Y-107961547D01*
X107718523Y-107913928D01*
X107956619Y-107913928D01*
X108051857Y-107866309D01*
X108956619Y-108247261D02*
X108861380Y-108294880D01*
X108670904Y-108294880D01*
X108575666Y-108247261D01*
X108528047Y-108199642D01*
X108480428Y-108104404D01*
X108480428Y-107818690D01*
X108528047Y-107723452D01*
X108575666Y-107675833D01*
X108670904Y-107628214D01*
X108861380Y-107628214D01*
X108956619Y-107675833D01*
X109385190Y-108294880D02*
X109385190Y-107294880D01*
X109480428Y-107913928D02*
X109766142Y-108294880D01*
X109766142Y-107628214D02*
X109385190Y-108009166D01*
X110194714Y-107913928D02*
X110956619Y-107913928D01*
X111432809Y-108294880D02*
X111432809Y-107294880D01*
X111670904Y-107294880D01*
X111813761Y-107342500D01*
X111909000Y-107437738D01*
X111956619Y-107532976D01*
X112004238Y-107723452D01*
X112004238Y-107866309D01*
X111956619Y-108056785D01*
X111909000Y-108152023D01*
X111813761Y-108247261D01*
X111670904Y-108294880D01*
X111432809Y-108294880D01*
X113004238Y-108199642D02*
X112956619Y-108247261D01*
X112813761Y-108294880D01*
X112718523Y-108294880D01*
X112575666Y-108247261D01*
X112480428Y-108152023D01*
X112432809Y-108056785D01*
X112385190Y-107866309D01*
X112385190Y-107723452D01*
X112432809Y-107532976D01*
X112480428Y-107437738D01*
X112575666Y-107342500D01*
X112718523Y-107294880D01*
X112813761Y-107294880D01*
X112956619Y-107342500D01*
X113004238Y-107390119D01*
%TO.C,IC4*%
X146353809Y-79412380D02*
X146353809Y-78412380D01*
X147401428Y-79317142D02*
X147353809Y-79364761D01*
X147210952Y-79412380D01*
X147115714Y-79412380D01*
X146972857Y-79364761D01*
X146877619Y-79269523D01*
X146830000Y-79174285D01*
X146782380Y-78983809D01*
X146782380Y-78840952D01*
X146830000Y-78650476D01*
X146877619Y-78555238D01*
X146972857Y-78460000D01*
X147115714Y-78412380D01*
X147210952Y-78412380D01*
X147353809Y-78460000D01*
X147401428Y-78507619D01*
X148258571Y-78745714D02*
X148258571Y-79412380D01*
X148020476Y-78364761D02*
X147782380Y-79079047D01*
X148401428Y-79079047D01*
X142234761Y-103392380D02*
X142806190Y-103392380D01*
X142520476Y-104392380D02*
X142520476Y-103392380D01*
X143472857Y-103868571D02*
X143615714Y-103916190D01*
X143663333Y-103963809D01*
X143710952Y-104059047D01*
X143710952Y-104201904D01*
X143663333Y-104297142D01*
X143615714Y-104344761D01*
X143520476Y-104392380D01*
X143139523Y-104392380D01*
X143139523Y-103392380D01*
X143472857Y-103392380D01*
X143568095Y-103440000D01*
X143615714Y-103487619D01*
X143663333Y-103582857D01*
X143663333Y-103678095D01*
X143615714Y-103773333D01*
X143568095Y-103820952D01*
X143472857Y-103868571D01*
X143139523Y-103868571D01*
X144139523Y-104392380D02*
X144139523Y-103392380D01*
X144377619Y-103392380D01*
X144520476Y-103440000D01*
X144615714Y-103535238D01*
X144663333Y-103630476D01*
X144710952Y-103820952D01*
X144710952Y-103963809D01*
X144663333Y-104154285D01*
X144615714Y-104249523D01*
X144520476Y-104344761D01*
X144377619Y-104392380D01*
X144139523Y-104392380D01*
X145568095Y-103392380D02*
X145377619Y-103392380D01*
X145282380Y-103440000D01*
X145234761Y-103487619D01*
X145139523Y-103630476D01*
X145091904Y-103820952D01*
X145091904Y-104201904D01*
X145139523Y-104297142D01*
X145187142Y-104344761D01*
X145282380Y-104392380D01*
X145472857Y-104392380D01*
X145568095Y-104344761D01*
X145615714Y-104297142D01*
X145663333Y-104201904D01*
X145663333Y-103963809D01*
X145615714Y-103868571D01*
X145568095Y-103820952D01*
X145472857Y-103773333D01*
X145282380Y-103773333D01*
X145187142Y-103820952D01*
X145139523Y-103868571D01*
X145091904Y-103963809D01*
X146044285Y-103487619D02*
X146091904Y-103440000D01*
X146187142Y-103392380D01*
X146425238Y-103392380D01*
X146520476Y-103440000D01*
X146568095Y-103487619D01*
X146615714Y-103582857D01*
X146615714Y-103678095D01*
X146568095Y-103820952D01*
X145996666Y-104392380D01*
X146615714Y-104392380D01*
X147234761Y-103392380D02*
X147330000Y-103392380D01*
X147425238Y-103440000D01*
X147472857Y-103487619D01*
X147520476Y-103582857D01*
X147568095Y-103773333D01*
X147568095Y-104011428D01*
X147520476Y-104201904D01*
X147472857Y-104297142D01*
X147425238Y-104344761D01*
X147330000Y-104392380D01*
X147234761Y-104392380D01*
X147139523Y-104344761D01*
X147091904Y-104297142D01*
X147044285Y-104201904D01*
X146996666Y-104011428D01*
X146996666Y-103773333D01*
X147044285Y-103582857D01*
X147091904Y-103487619D01*
X147139523Y-103440000D01*
X147234761Y-103392380D01*
X148139523Y-103820952D02*
X148044285Y-103773333D01*
X147996666Y-103725714D01*
X147949047Y-103630476D01*
X147949047Y-103582857D01*
X147996666Y-103487619D01*
X148044285Y-103440000D01*
X148139523Y-103392380D01*
X148330000Y-103392380D01*
X148425238Y-103440000D01*
X148472857Y-103487619D01*
X148520476Y-103582857D01*
X148520476Y-103630476D01*
X148472857Y-103725714D01*
X148425238Y-103773333D01*
X148330000Y-103820952D01*
X148139523Y-103820952D01*
X148044285Y-103868571D01*
X147996666Y-103916190D01*
X147949047Y-104011428D01*
X147949047Y-104201904D01*
X147996666Y-104297142D01*
X148044285Y-104344761D01*
X148139523Y-104392380D01*
X148330000Y-104392380D01*
X148425238Y-104344761D01*
X148472857Y-104297142D01*
X148520476Y-104201904D01*
X148520476Y-104011428D01*
X148472857Y-103916190D01*
X148425238Y-103868571D01*
X148330000Y-103820952D01*
X148853809Y-103392380D02*
X149472857Y-103392380D01*
X149139523Y-103773333D01*
X149282380Y-103773333D01*
X149377619Y-103820952D01*
X149425238Y-103868571D01*
X149472857Y-103963809D01*
X149472857Y-104201904D01*
X149425238Y-104297142D01*
X149377619Y-104344761D01*
X149282380Y-104392380D01*
X148996666Y-104392380D01*
X148901428Y-104344761D01*
X148853809Y-104297142D01*
X149853809Y-104106666D02*
X150330000Y-104106666D01*
X149758571Y-104392380D02*
X150091904Y-103392380D01*
X150425238Y-104392380D01*
X150758571Y-104392380D02*
X150758571Y-103392380D01*
X151139523Y-103392380D01*
X151234761Y-103440000D01*
X151282380Y-103487619D01*
X151330000Y-103582857D01*
X151330000Y-103725714D01*
X151282380Y-103820952D01*
X151234761Y-103868571D01*
X151139523Y-103916190D01*
X150758571Y-103916190D01*
X152282380Y-103440000D02*
X152187142Y-103392380D01*
X152044285Y-103392380D01*
X151901428Y-103440000D01*
X151806190Y-103535238D01*
X151758571Y-103630476D01*
X151710952Y-103820952D01*
X151710952Y-103963809D01*
X151758571Y-104154285D01*
X151806190Y-104249523D01*
X151901428Y-104344761D01*
X152044285Y-104392380D01*
X152139523Y-104392380D01*
X152282380Y-104344761D01*
X152330000Y-104297142D01*
X152330000Y-103963809D01*
X152139523Y-103963809D01*
%TO.C,IC3*%
X132383809Y-79412380D02*
X132383809Y-78412380D01*
X133431428Y-79317142D02*
X133383809Y-79364761D01*
X133240952Y-79412380D01*
X133145714Y-79412380D01*
X133002857Y-79364761D01*
X132907619Y-79269523D01*
X132860000Y-79174285D01*
X132812380Y-78983809D01*
X132812380Y-78840952D01*
X132860000Y-78650476D01*
X132907619Y-78555238D01*
X133002857Y-78460000D01*
X133145714Y-78412380D01*
X133240952Y-78412380D01*
X133383809Y-78460000D01*
X133431428Y-78507619D01*
X133764761Y-78412380D02*
X134383809Y-78412380D01*
X134050476Y-78793333D01*
X134193333Y-78793333D01*
X134288571Y-78840952D01*
X134336190Y-78888571D01*
X134383809Y-78983809D01*
X134383809Y-79221904D01*
X134336190Y-79317142D01*
X134288571Y-79364761D01*
X134193333Y-79412380D01*
X133907619Y-79412380D01*
X133812380Y-79364761D01*
X133764761Y-79317142D01*
X128264761Y-103392380D02*
X128836190Y-103392380D01*
X128550476Y-104392380D02*
X128550476Y-103392380D01*
X129502857Y-103868571D02*
X129645714Y-103916190D01*
X129693333Y-103963809D01*
X129740952Y-104059047D01*
X129740952Y-104201904D01*
X129693333Y-104297142D01*
X129645714Y-104344761D01*
X129550476Y-104392380D01*
X129169523Y-104392380D01*
X129169523Y-103392380D01*
X129502857Y-103392380D01*
X129598095Y-103440000D01*
X129645714Y-103487619D01*
X129693333Y-103582857D01*
X129693333Y-103678095D01*
X129645714Y-103773333D01*
X129598095Y-103820952D01*
X129502857Y-103868571D01*
X129169523Y-103868571D01*
X130169523Y-104392380D02*
X130169523Y-103392380D01*
X130407619Y-103392380D01*
X130550476Y-103440000D01*
X130645714Y-103535238D01*
X130693333Y-103630476D01*
X130740952Y-103820952D01*
X130740952Y-103963809D01*
X130693333Y-104154285D01*
X130645714Y-104249523D01*
X130550476Y-104344761D01*
X130407619Y-104392380D01*
X130169523Y-104392380D01*
X131598095Y-103392380D02*
X131407619Y-103392380D01*
X131312380Y-103440000D01*
X131264761Y-103487619D01*
X131169523Y-103630476D01*
X131121904Y-103820952D01*
X131121904Y-104201904D01*
X131169523Y-104297142D01*
X131217142Y-104344761D01*
X131312380Y-104392380D01*
X131502857Y-104392380D01*
X131598095Y-104344761D01*
X131645714Y-104297142D01*
X131693333Y-104201904D01*
X131693333Y-103963809D01*
X131645714Y-103868571D01*
X131598095Y-103820952D01*
X131502857Y-103773333D01*
X131312380Y-103773333D01*
X131217142Y-103820952D01*
X131169523Y-103868571D01*
X131121904Y-103963809D01*
X132074285Y-103487619D02*
X132121904Y-103440000D01*
X132217142Y-103392380D01*
X132455238Y-103392380D01*
X132550476Y-103440000D01*
X132598095Y-103487619D01*
X132645714Y-103582857D01*
X132645714Y-103678095D01*
X132598095Y-103820952D01*
X132026666Y-104392380D01*
X132645714Y-104392380D01*
X133264761Y-103392380D02*
X133360000Y-103392380D01*
X133455238Y-103440000D01*
X133502857Y-103487619D01*
X133550476Y-103582857D01*
X133598095Y-103773333D01*
X133598095Y-104011428D01*
X133550476Y-104201904D01*
X133502857Y-104297142D01*
X133455238Y-104344761D01*
X133360000Y-104392380D01*
X133264761Y-104392380D01*
X133169523Y-104344761D01*
X133121904Y-104297142D01*
X133074285Y-104201904D01*
X133026666Y-104011428D01*
X133026666Y-103773333D01*
X133074285Y-103582857D01*
X133121904Y-103487619D01*
X133169523Y-103440000D01*
X133264761Y-103392380D01*
X134169523Y-103820952D02*
X134074285Y-103773333D01*
X134026666Y-103725714D01*
X133979047Y-103630476D01*
X133979047Y-103582857D01*
X134026666Y-103487619D01*
X134074285Y-103440000D01*
X134169523Y-103392380D01*
X134360000Y-103392380D01*
X134455238Y-103440000D01*
X134502857Y-103487619D01*
X134550476Y-103582857D01*
X134550476Y-103630476D01*
X134502857Y-103725714D01*
X134455238Y-103773333D01*
X134360000Y-103820952D01*
X134169523Y-103820952D01*
X134074285Y-103868571D01*
X134026666Y-103916190D01*
X133979047Y-104011428D01*
X133979047Y-104201904D01*
X134026666Y-104297142D01*
X134074285Y-104344761D01*
X134169523Y-104392380D01*
X134360000Y-104392380D01*
X134455238Y-104344761D01*
X134502857Y-104297142D01*
X134550476Y-104201904D01*
X134550476Y-104011428D01*
X134502857Y-103916190D01*
X134455238Y-103868571D01*
X134360000Y-103820952D01*
X134883809Y-103392380D02*
X135502857Y-103392380D01*
X135169523Y-103773333D01*
X135312380Y-103773333D01*
X135407619Y-103820952D01*
X135455238Y-103868571D01*
X135502857Y-103963809D01*
X135502857Y-104201904D01*
X135455238Y-104297142D01*
X135407619Y-104344761D01*
X135312380Y-104392380D01*
X135026666Y-104392380D01*
X134931428Y-104344761D01*
X134883809Y-104297142D01*
X135883809Y-104106666D02*
X136360000Y-104106666D01*
X135788571Y-104392380D02*
X136121904Y-103392380D01*
X136455238Y-104392380D01*
X136788571Y-104392380D02*
X136788571Y-103392380D01*
X137169523Y-103392380D01*
X137264761Y-103440000D01*
X137312380Y-103487619D01*
X137360000Y-103582857D01*
X137360000Y-103725714D01*
X137312380Y-103820952D01*
X137264761Y-103868571D01*
X137169523Y-103916190D01*
X136788571Y-103916190D01*
X138312380Y-103440000D02*
X138217142Y-103392380D01*
X138074285Y-103392380D01*
X137931428Y-103440000D01*
X137836190Y-103535238D01*
X137788571Y-103630476D01*
X137740952Y-103820952D01*
X137740952Y-103963809D01*
X137788571Y-104154285D01*
X137836190Y-104249523D01*
X137931428Y-104344761D01*
X138074285Y-104392380D01*
X138169523Y-104392380D01*
X138312380Y-104344761D01*
X138360000Y-104297142D01*
X138360000Y-103963809D01*
X138169523Y-103963809D01*
%TO.C,IC2*%
X132383809Y-52742380D02*
X132383809Y-51742380D01*
X133431428Y-52647142D02*
X133383809Y-52694761D01*
X133240952Y-52742380D01*
X133145714Y-52742380D01*
X133002857Y-52694761D01*
X132907619Y-52599523D01*
X132860000Y-52504285D01*
X132812380Y-52313809D01*
X132812380Y-52170952D01*
X132860000Y-51980476D01*
X132907619Y-51885238D01*
X133002857Y-51790000D01*
X133145714Y-51742380D01*
X133240952Y-51742380D01*
X133383809Y-51790000D01*
X133431428Y-51837619D01*
X133812380Y-51837619D02*
X133860000Y-51790000D01*
X133955238Y-51742380D01*
X134193333Y-51742380D01*
X134288571Y-51790000D01*
X134336190Y-51837619D01*
X134383809Y-51932857D01*
X134383809Y-52028095D01*
X134336190Y-52170952D01*
X133764761Y-52742380D01*
X134383809Y-52742380D01*
X128264761Y-76722380D02*
X128836190Y-76722380D01*
X128550476Y-77722380D02*
X128550476Y-76722380D01*
X129502857Y-77198571D02*
X129645714Y-77246190D01*
X129693333Y-77293809D01*
X129740952Y-77389047D01*
X129740952Y-77531904D01*
X129693333Y-77627142D01*
X129645714Y-77674761D01*
X129550476Y-77722380D01*
X129169523Y-77722380D01*
X129169523Y-76722380D01*
X129502857Y-76722380D01*
X129598095Y-76770000D01*
X129645714Y-76817619D01*
X129693333Y-76912857D01*
X129693333Y-77008095D01*
X129645714Y-77103333D01*
X129598095Y-77150952D01*
X129502857Y-77198571D01*
X129169523Y-77198571D01*
X130169523Y-77722380D02*
X130169523Y-76722380D01*
X130407619Y-76722380D01*
X130550476Y-76770000D01*
X130645714Y-76865238D01*
X130693333Y-76960476D01*
X130740952Y-77150952D01*
X130740952Y-77293809D01*
X130693333Y-77484285D01*
X130645714Y-77579523D01*
X130550476Y-77674761D01*
X130407619Y-77722380D01*
X130169523Y-77722380D01*
X131598095Y-76722380D02*
X131407619Y-76722380D01*
X131312380Y-76770000D01*
X131264761Y-76817619D01*
X131169523Y-76960476D01*
X131121904Y-77150952D01*
X131121904Y-77531904D01*
X131169523Y-77627142D01*
X131217142Y-77674761D01*
X131312380Y-77722380D01*
X131502857Y-77722380D01*
X131598095Y-77674761D01*
X131645714Y-77627142D01*
X131693333Y-77531904D01*
X131693333Y-77293809D01*
X131645714Y-77198571D01*
X131598095Y-77150952D01*
X131502857Y-77103333D01*
X131312380Y-77103333D01*
X131217142Y-77150952D01*
X131169523Y-77198571D01*
X131121904Y-77293809D01*
X132074285Y-76817619D02*
X132121904Y-76770000D01*
X132217142Y-76722380D01*
X132455238Y-76722380D01*
X132550476Y-76770000D01*
X132598095Y-76817619D01*
X132645714Y-76912857D01*
X132645714Y-77008095D01*
X132598095Y-77150952D01*
X132026666Y-77722380D01*
X132645714Y-77722380D01*
X133264761Y-76722380D02*
X133360000Y-76722380D01*
X133455238Y-76770000D01*
X133502857Y-76817619D01*
X133550476Y-76912857D01*
X133598095Y-77103333D01*
X133598095Y-77341428D01*
X133550476Y-77531904D01*
X133502857Y-77627142D01*
X133455238Y-77674761D01*
X133360000Y-77722380D01*
X133264761Y-77722380D01*
X133169523Y-77674761D01*
X133121904Y-77627142D01*
X133074285Y-77531904D01*
X133026666Y-77341428D01*
X133026666Y-77103333D01*
X133074285Y-76912857D01*
X133121904Y-76817619D01*
X133169523Y-76770000D01*
X133264761Y-76722380D01*
X134169523Y-77150952D02*
X134074285Y-77103333D01*
X134026666Y-77055714D01*
X133979047Y-76960476D01*
X133979047Y-76912857D01*
X134026666Y-76817619D01*
X134074285Y-76770000D01*
X134169523Y-76722380D01*
X134360000Y-76722380D01*
X134455238Y-76770000D01*
X134502857Y-76817619D01*
X134550476Y-76912857D01*
X134550476Y-76960476D01*
X134502857Y-77055714D01*
X134455238Y-77103333D01*
X134360000Y-77150952D01*
X134169523Y-77150952D01*
X134074285Y-77198571D01*
X134026666Y-77246190D01*
X133979047Y-77341428D01*
X133979047Y-77531904D01*
X134026666Y-77627142D01*
X134074285Y-77674761D01*
X134169523Y-77722380D01*
X134360000Y-77722380D01*
X134455238Y-77674761D01*
X134502857Y-77627142D01*
X134550476Y-77531904D01*
X134550476Y-77341428D01*
X134502857Y-77246190D01*
X134455238Y-77198571D01*
X134360000Y-77150952D01*
X134883809Y-76722380D02*
X135502857Y-76722380D01*
X135169523Y-77103333D01*
X135312380Y-77103333D01*
X135407619Y-77150952D01*
X135455238Y-77198571D01*
X135502857Y-77293809D01*
X135502857Y-77531904D01*
X135455238Y-77627142D01*
X135407619Y-77674761D01*
X135312380Y-77722380D01*
X135026666Y-77722380D01*
X134931428Y-77674761D01*
X134883809Y-77627142D01*
X135883809Y-77436666D02*
X136360000Y-77436666D01*
X135788571Y-77722380D02*
X136121904Y-76722380D01*
X136455238Y-77722380D01*
X136788571Y-77722380D02*
X136788571Y-76722380D01*
X137169523Y-76722380D01*
X137264761Y-76770000D01*
X137312380Y-76817619D01*
X137360000Y-76912857D01*
X137360000Y-77055714D01*
X137312380Y-77150952D01*
X137264761Y-77198571D01*
X137169523Y-77246190D01*
X136788571Y-77246190D01*
X138312380Y-76770000D02*
X138217142Y-76722380D01*
X138074285Y-76722380D01*
X137931428Y-76770000D01*
X137836190Y-76865238D01*
X137788571Y-76960476D01*
X137740952Y-77150952D01*
X137740952Y-77293809D01*
X137788571Y-77484285D01*
X137836190Y-77579523D01*
X137931428Y-77674761D01*
X138074285Y-77722380D01*
X138169523Y-77722380D01*
X138312380Y-77674761D01*
X138360000Y-77627142D01*
X138360000Y-77293809D01*
X138169523Y-77293809D01*
D11*
%TO.C,IC1*%
X127030238Y-113858523D02*
X127030238Y-112588523D01*
X128360714Y-113737571D02*
X128300238Y-113798047D01*
X128118809Y-113858523D01*
X127997857Y-113858523D01*
X127816428Y-113798047D01*
X127695476Y-113677095D01*
X127635000Y-113556142D01*
X127574523Y-113314238D01*
X127574523Y-113132809D01*
X127635000Y-112890904D01*
X127695476Y-112769952D01*
X127816428Y-112649000D01*
X127997857Y-112588523D01*
X128118809Y-112588523D01*
X128300238Y-112649000D01*
X128360714Y-112709476D01*
X129570238Y-113858523D02*
X128844523Y-113858523D01*
X129207380Y-113858523D02*
X129207380Y-112588523D01*
X129086428Y-112769952D01*
X128965476Y-112890904D01*
X128844523Y-112951380D01*
D10*
%TO.C,C6*%
X147153333Y-120372142D02*
X147105714Y-120419761D01*
X146962857Y-120467380D01*
X146867619Y-120467380D01*
X146724761Y-120419761D01*
X146629523Y-120324523D01*
X146581904Y-120229285D01*
X146534285Y-120038809D01*
X146534285Y-119895952D01*
X146581904Y-119705476D01*
X146629523Y-119610238D01*
X146724761Y-119515000D01*
X146867619Y-119467380D01*
X146962857Y-119467380D01*
X147105714Y-119515000D01*
X147153333Y-119562619D01*
X148010476Y-119467380D02*
X147820000Y-119467380D01*
X147724761Y-119515000D01*
X147677142Y-119562619D01*
X147581904Y-119705476D01*
X147534285Y-119895952D01*
X147534285Y-120276904D01*
X147581904Y-120372142D01*
X147629523Y-120419761D01*
X147724761Y-120467380D01*
X147915238Y-120467380D01*
X148010476Y-120419761D01*
X148058095Y-120372142D01*
X148105714Y-120276904D01*
X148105714Y-120038809D01*
X148058095Y-119943571D01*
X148010476Y-119895952D01*
X147915238Y-119848333D01*
X147724761Y-119848333D01*
X147629523Y-119895952D01*
X147581904Y-119943571D01*
X147534285Y-120038809D01*
X146677142Y-111577380D02*
X146105714Y-111577380D01*
X146391428Y-111577380D02*
X146391428Y-110577380D01*
X146296190Y-110720238D01*
X146200952Y-110815476D01*
X146105714Y-110863095D01*
X147296190Y-110577380D02*
X147391428Y-110577380D01*
X147486666Y-110625000D01*
X147534285Y-110672619D01*
X147581904Y-110767857D01*
X147629523Y-110958333D01*
X147629523Y-111196428D01*
X147581904Y-111386904D01*
X147534285Y-111482142D01*
X147486666Y-111529761D01*
X147391428Y-111577380D01*
X147296190Y-111577380D01*
X147200952Y-111529761D01*
X147153333Y-111482142D01*
X147105714Y-111386904D01*
X147058095Y-111196428D01*
X147058095Y-110958333D01*
X147105714Y-110767857D01*
X147153333Y-110672619D01*
X147200952Y-110625000D01*
X147296190Y-110577380D01*
X148486666Y-110910714D02*
X148486666Y-111577380D01*
X148058095Y-110910714D02*
X148058095Y-111434523D01*
X148105714Y-111529761D01*
X148200952Y-111577380D01*
X148343809Y-111577380D01*
X148439047Y-111529761D01*
X148486666Y-111482142D01*
%TO.C,C5*%
X149693333Y-120372142D02*
X149645714Y-120419761D01*
X149502857Y-120467380D01*
X149407619Y-120467380D01*
X149264761Y-120419761D01*
X149169523Y-120324523D01*
X149121904Y-120229285D01*
X149074285Y-120038809D01*
X149074285Y-119895952D01*
X149121904Y-119705476D01*
X149169523Y-119610238D01*
X149264761Y-119515000D01*
X149407619Y-119467380D01*
X149502857Y-119467380D01*
X149645714Y-119515000D01*
X149693333Y-119562619D01*
X150598095Y-119467380D02*
X150121904Y-119467380D01*
X150074285Y-119943571D01*
X150121904Y-119895952D01*
X150217142Y-119848333D01*
X150455238Y-119848333D01*
X150550476Y-119895952D01*
X150598095Y-119943571D01*
X150645714Y-120038809D01*
X150645714Y-120276904D01*
X150598095Y-120372142D01*
X150550476Y-120419761D01*
X150455238Y-120467380D01*
X150217142Y-120467380D01*
X150121904Y-120419761D01*
X150074285Y-120372142D01*
X149217142Y-111577380D02*
X148645714Y-111577380D01*
X148931428Y-111577380D02*
X148931428Y-110577380D01*
X148836190Y-110720238D01*
X148740952Y-110815476D01*
X148645714Y-110863095D01*
X149836190Y-110577380D02*
X149931428Y-110577380D01*
X150026666Y-110625000D01*
X150074285Y-110672619D01*
X150121904Y-110767857D01*
X150169523Y-110958333D01*
X150169523Y-111196428D01*
X150121904Y-111386904D01*
X150074285Y-111482142D01*
X150026666Y-111529761D01*
X149931428Y-111577380D01*
X149836190Y-111577380D01*
X149740952Y-111529761D01*
X149693333Y-111482142D01*
X149645714Y-111386904D01*
X149598095Y-111196428D01*
X149598095Y-110958333D01*
X149645714Y-110767857D01*
X149693333Y-110672619D01*
X149740952Y-110625000D01*
X149836190Y-110577380D01*
X151026666Y-110910714D02*
X151026666Y-111577380D01*
X150598095Y-110910714D02*
X150598095Y-111434523D01*
X150645714Y-111529761D01*
X150740952Y-111577380D01*
X150883809Y-111577380D01*
X150979047Y-111529761D01*
X151026666Y-111482142D01*
%TO.C,C4*%
X131913333Y-120712142D02*
X131865714Y-120759761D01*
X131722857Y-120807380D01*
X131627619Y-120807380D01*
X131484761Y-120759761D01*
X131389523Y-120664523D01*
X131341904Y-120569285D01*
X131294285Y-120378809D01*
X131294285Y-120235952D01*
X131341904Y-120045476D01*
X131389523Y-119950238D01*
X131484761Y-119855000D01*
X131627619Y-119807380D01*
X131722857Y-119807380D01*
X131865714Y-119855000D01*
X131913333Y-119902619D01*
X132770476Y-120140714D02*
X132770476Y-120807380D01*
X132532380Y-119759761D02*
X132294285Y-120474047D01*
X132913333Y-120474047D01*
X130389523Y-124207380D02*
X130199047Y-124207380D01*
X130103809Y-124255000D01*
X130056190Y-124302619D01*
X129960952Y-124445476D01*
X129913333Y-124635952D01*
X129913333Y-125016904D01*
X129960952Y-125112142D01*
X130008571Y-125159761D01*
X130103809Y-125207380D01*
X130294285Y-125207380D01*
X130389523Y-125159761D01*
X130437142Y-125112142D01*
X130484761Y-125016904D01*
X130484761Y-124778809D01*
X130437142Y-124683571D01*
X130389523Y-124635952D01*
X130294285Y-124588333D01*
X130103809Y-124588333D01*
X130008571Y-124635952D01*
X129960952Y-124683571D01*
X129913333Y-124778809D01*
X131056190Y-124635952D02*
X130960952Y-124588333D01*
X130913333Y-124540714D01*
X130865714Y-124445476D01*
X130865714Y-124397857D01*
X130913333Y-124302619D01*
X130960952Y-124255000D01*
X131056190Y-124207380D01*
X131246666Y-124207380D01*
X131341904Y-124255000D01*
X131389523Y-124302619D01*
X131437142Y-124397857D01*
X131437142Y-124445476D01*
X131389523Y-124540714D01*
X131341904Y-124588333D01*
X131246666Y-124635952D01*
X131056190Y-124635952D01*
X130960952Y-124683571D01*
X130913333Y-124731190D01*
X130865714Y-124826428D01*
X130865714Y-125016904D01*
X130913333Y-125112142D01*
X130960952Y-125159761D01*
X131056190Y-125207380D01*
X131246666Y-125207380D01*
X131341904Y-125159761D01*
X131389523Y-125112142D01*
X131437142Y-125016904D01*
X131437142Y-124826428D01*
X131389523Y-124731190D01*
X131341904Y-124683571D01*
X131246666Y-124635952D01*
X132056190Y-124207380D02*
X132151428Y-124207380D01*
X132246666Y-124255000D01*
X132294285Y-124302619D01*
X132341904Y-124397857D01*
X132389523Y-124588333D01*
X132389523Y-124826428D01*
X132341904Y-125016904D01*
X132294285Y-125112142D01*
X132246666Y-125159761D01*
X132151428Y-125207380D01*
X132056190Y-125207380D01*
X131960952Y-125159761D01*
X131913333Y-125112142D01*
X131865714Y-125016904D01*
X131818095Y-124826428D01*
X131818095Y-124588333D01*
X131865714Y-124397857D01*
X131913333Y-124302619D01*
X131960952Y-124255000D01*
X132056190Y-124207380D01*
X133008571Y-124207380D02*
X133103809Y-124207380D01*
X133199047Y-124255000D01*
X133246666Y-124302619D01*
X133294285Y-124397857D01*
X133341904Y-124588333D01*
X133341904Y-124826428D01*
X133294285Y-125016904D01*
X133246666Y-125112142D01*
X133199047Y-125159761D01*
X133103809Y-125207380D01*
X133008571Y-125207380D01*
X132913333Y-125159761D01*
X132865714Y-125112142D01*
X132818095Y-125016904D01*
X132770476Y-124826428D01*
X132770476Y-124588333D01*
X132818095Y-124397857D01*
X132865714Y-124302619D01*
X132913333Y-124255000D01*
X133008571Y-124207380D01*
X133770476Y-124540714D02*
X133770476Y-125540714D01*
X133770476Y-124588333D02*
X133865714Y-124540714D01*
X134056190Y-124540714D01*
X134151428Y-124588333D01*
X134199047Y-124635952D01*
X134246666Y-124731190D01*
X134246666Y-125016904D01*
X134199047Y-125112142D01*
X134151428Y-125159761D01*
X134056190Y-125207380D01*
X133865714Y-125207380D01*
X133770476Y-125159761D01*
%TO.C,C3*%
X121347142Y-112601666D02*
X121394761Y-112649285D01*
X121442380Y-112792142D01*
X121442380Y-112887380D01*
X121394761Y-113030238D01*
X121299523Y-113125476D01*
X121204285Y-113173095D01*
X121013809Y-113220714D01*
X120870952Y-113220714D01*
X120680476Y-113173095D01*
X120585238Y-113125476D01*
X120490000Y-113030238D01*
X120442380Y-112887380D01*
X120442380Y-112792142D01*
X120490000Y-112649285D01*
X120537619Y-112601666D01*
X120442380Y-112268333D02*
X120442380Y-111649285D01*
X120823333Y-111982619D01*
X120823333Y-111839761D01*
X120870952Y-111744523D01*
X120918571Y-111696904D01*
X121013809Y-111649285D01*
X121251904Y-111649285D01*
X121347142Y-111696904D01*
X121394761Y-111744523D01*
X121442380Y-111839761D01*
X121442380Y-112125476D01*
X121394761Y-112220714D01*
X121347142Y-112268333D01*
X124842380Y-113649285D02*
X124842380Y-113554047D01*
X124890000Y-113458809D01*
X124937619Y-113411190D01*
X125032857Y-113363571D01*
X125223333Y-113315952D01*
X125461428Y-113315952D01*
X125651904Y-113363571D01*
X125747142Y-113411190D01*
X125794761Y-113458809D01*
X125842380Y-113554047D01*
X125842380Y-113649285D01*
X125794761Y-113744523D01*
X125747142Y-113792142D01*
X125651904Y-113839761D01*
X125461428Y-113887380D01*
X125223333Y-113887380D01*
X125032857Y-113839761D01*
X124937619Y-113792142D01*
X124890000Y-113744523D01*
X124842380Y-113649285D01*
X125747142Y-112887380D02*
X125794761Y-112839761D01*
X125842380Y-112887380D01*
X125794761Y-112935000D01*
X125747142Y-112887380D01*
X125842380Y-112887380D01*
X125842380Y-111887380D02*
X125842380Y-112458809D01*
X125842380Y-112173095D02*
X124842380Y-112173095D01*
X124985238Y-112268333D01*
X125080476Y-112363571D01*
X125128095Y-112458809D01*
X125175714Y-111030238D02*
X125842380Y-111030238D01*
X125175714Y-111458809D02*
X125699523Y-111458809D01*
X125794761Y-111411190D01*
X125842380Y-111315952D01*
X125842380Y-111173095D01*
X125794761Y-111077857D01*
X125747142Y-111030238D01*
%TO.C,C1*%
X120483333Y-124563142D02*
X120435714Y-124610761D01*
X120292857Y-124658380D01*
X120197619Y-124658380D01*
X120054761Y-124610761D01*
X119959523Y-124515523D01*
X119911904Y-124420285D01*
X119864285Y-124229809D01*
X119864285Y-124086952D01*
X119911904Y-123896476D01*
X119959523Y-123801238D01*
X120054761Y-123706000D01*
X120197619Y-123658380D01*
X120292857Y-123658380D01*
X120435714Y-123706000D01*
X120483333Y-123753619D01*
X121435714Y-124658380D02*
X120864285Y-124658380D01*
X121150000Y-124658380D02*
X121150000Y-123658380D01*
X121054761Y-123801238D01*
X120959523Y-123896476D01*
X120864285Y-123944095D01*
X120007142Y-116149380D02*
X119435714Y-116149380D01*
X119721428Y-116149380D02*
X119721428Y-115149380D01*
X119626190Y-115292238D01*
X119530952Y-115387476D01*
X119435714Y-115435095D01*
X120626190Y-115149380D02*
X120721428Y-115149380D01*
X120816666Y-115197000D01*
X120864285Y-115244619D01*
X120911904Y-115339857D01*
X120959523Y-115530333D01*
X120959523Y-115768428D01*
X120911904Y-115958904D01*
X120864285Y-116054142D01*
X120816666Y-116101761D01*
X120721428Y-116149380D01*
X120626190Y-116149380D01*
X120530952Y-116101761D01*
X120483333Y-116054142D01*
X120435714Y-115958904D01*
X120388095Y-115768428D01*
X120388095Y-115530333D01*
X120435714Y-115339857D01*
X120483333Y-115244619D01*
X120530952Y-115197000D01*
X120626190Y-115149380D01*
X121816666Y-115482714D02*
X121816666Y-116149380D01*
X121388095Y-115482714D02*
X121388095Y-116006523D01*
X121435714Y-116101761D01*
X121530952Y-116149380D01*
X121673809Y-116149380D01*
X121769047Y-116101761D01*
X121816666Y-116054142D01*
D12*
%TO.C,C2*%
X122135000Y-117705000D02*
X122120000Y-117705000D01*
X124260000Y-122245000D02*
X124245000Y-122245000D01*
X124260000Y-117705000D02*
X124245000Y-117705000D01*
X122135000Y-122245000D02*
X122120000Y-122245000D01*
X124260000Y-117705000D02*
X124260000Y-122245000D01*
X122120000Y-117705000D02*
X122120000Y-122245000D01*
D13*
%TO.C,U1*%
X107570000Y-103885000D02*
X107570000Y-53595000D01*
X107570000Y-53595000D02*
X126110000Y-53595000D01*
X126110000Y-53595000D02*
X126110000Y-103885000D01*
X126110000Y-103885000D02*
X107570000Y-103885000D01*
D14*
X106880000Y-60960000D02*
G75*
G03*
X106880000Y-60960000I-200000J0D01*
G01*
D12*
%TO.C,R3*%
X153440000Y-122555000D02*
X154210000Y-122555000D01*
X161520000Y-122555000D02*
X160750000Y-122555000D01*
X160750000Y-123925000D02*
X160750000Y-121185000D01*
X154210000Y-121185000D02*
X154210000Y-123925000D01*
X160750000Y-121185000D02*
X154210000Y-121185000D01*
X154210000Y-123925000D02*
X160750000Y-123925000D01*
%TO.C,R2*%
X160750000Y-116105000D02*
X154210000Y-116105000D01*
X154210000Y-118845000D02*
X160750000Y-118845000D01*
X160750000Y-118845000D02*
X160750000Y-116105000D01*
X154210000Y-116105000D02*
X154210000Y-118845000D01*
X153440000Y-117475000D02*
X154210000Y-117475000D01*
X161520000Y-117475000D02*
X160750000Y-117475000D01*
%TO.C,R1*%
X146280000Y-122555000D02*
X145510000Y-122555000D01*
X138200000Y-122555000D02*
X138970000Y-122555000D01*
X138970000Y-121185000D02*
X138970000Y-123925000D01*
X145510000Y-123925000D02*
X145510000Y-121185000D01*
X138970000Y-123925000D02*
X145510000Y-123925000D01*
X145510000Y-121185000D02*
X138970000Y-121185000D01*
D15*
%TO.C,L1*%
X145065000Y-107030000D02*
X133065000Y-107030000D01*
X133065000Y-119030000D02*
X145065000Y-119030000D01*
D12*
%TO.C,J22*%
X160655000Y-85785000D02*
X160655000Y-83185000D01*
X158055000Y-80585000D02*
X201355000Y-80585000D01*
X160655000Y-83185000D02*
X158055000Y-83185000D01*
X201355000Y-85785000D02*
X201355000Y-80585000D01*
X160655000Y-85785000D02*
X201355000Y-85785000D01*
X158055000Y-85785000D02*
X158055000Y-84455000D01*
X158055000Y-83185000D02*
X158055000Y-80585000D01*
X159385000Y-85785000D02*
X158055000Y-85785000D01*
%TO.C,J21*%
X181550000Y-112395000D02*
X181550000Y-111065000D01*
X181550000Y-111065000D02*
X182880000Y-111065000D01*
X184150000Y-113725000D02*
X191830000Y-113725000D01*
X184150000Y-113725000D02*
X184150000Y-111065000D01*
X184150000Y-111065000D02*
X191830000Y-111065000D01*
X191830000Y-113725000D02*
X191830000Y-111065000D01*
%TO.C,J20*%
X159385000Y-97215000D02*
X158055000Y-97215000D01*
X158055000Y-94615000D02*
X158055000Y-92015000D01*
X158055000Y-97215000D02*
X158055000Y-95885000D01*
X160655000Y-97215000D02*
X201355000Y-97215000D01*
X201355000Y-97215000D02*
X201355000Y-92015000D01*
X160655000Y-94615000D02*
X158055000Y-94615000D01*
X158055000Y-92015000D02*
X201355000Y-92015000D01*
X160655000Y-97215000D02*
X160655000Y-94615000D01*
%TO.C,J19*%
X181550000Y-117475000D02*
X181550000Y-116145000D01*
X181550000Y-116145000D02*
X182880000Y-116145000D01*
X184150000Y-118805000D02*
X191830000Y-118805000D01*
X184150000Y-118805000D02*
X184150000Y-116145000D01*
X184150000Y-116145000D02*
X191830000Y-116145000D01*
X191830000Y-118805000D02*
X191830000Y-116145000D01*
%TO.C,J18*%
X160655000Y-108645000D02*
X160655000Y-106045000D01*
X158055000Y-103445000D02*
X201355000Y-103445000D01*
X160655000Y-106045000D02*
X158055000Y-106045000D01*
X201355000Y-108645000D02*
X201355000Y-103445000D01*
X160655000Y-108645000D02*
X201355000Y-108645000D01*
X158055000Y-108645000D02*
X158055000Y-107315000D01*
X158055000Y-106045000D02*
X158055000Y-103445000D01*
X159385000Y-108645000D02*
X158055000Y-108645000D01*
%TO.C,J17*%
X181550000Y-122555000D02*
X181550000Y-121225000D01*
X181550000Y-121225000D02*
X182880000Y-121225000D01*
X184150000Y-123885000D02*
X191830000Y-123885000D01*
X184150000Y-123885000D02*
X184150000Y-121225000D01*
X184150000Y-121225000D02*
X191830000Y-121225000D01*
X191830000Y-123885000D02*
X191830000Y-121225000D01*
%TO.C,J16*%
X195790000Y-70485000D02*
X197910000Y-70485000D01*
X197910000Y-68425000D02*
X197910000Y-69485000D01*
X195790000Y-70485000D02*
X195790000Y-72545000D01*
X197910000Y-70485000D02*
X197910000Y-72545000D01*
X195790000Y-72545000D02*
X197910000Y-72545000D01*
X196850000Y-68425000D02*
X197910000Y-68425000D01*
%TO.C,J15*%
X189440000Y-70485000D02*
X191560000Y-70485000D01*
X191560000Y-68425000D02*
X191560000Y-69485000D01*
X189440000Y-70485000D02*
X189440000Y-72545000D01*
X191560000Y-70485000D02*
X191560000Y-72545000D01*
X189440000Y-72545000D02*
X191560000Y-72545000D01*
X190500000Y-68425000D02*
X191560000Y-68425000D01*
%TO.C,J14*%
X183090000Y-70485000D02*
X185210000Y-70485000D01*
X185210000Y-68425000D02*
X185210000Y-69485000D01*
X183090000Y-70485000D02*
X183090000Y-72545000D01*
X185210000Y-70485000D02*
X185210000Y-72545000D01*
X183090000Y-72545000D02*
X185210000Y-72545000D01*
X184150000Y-68425000D02*
X185210000Y-68425000D01*
%TO.C,J13*%
X176740000Y-70485000D02*
X178860000Y-70485000D01*
X178860000Y-68425000D02*
X178860000Y-69485000D01*
X176740000Y-70485000D02*
X176740000Y-72545000D01*
X178860000Y-70485000D02*
X178860000Y-72545000D01*
X176740000Y-72545000D02*
X178860000Y-72545000D01*
X177800000Y-68425000D02*
X178860000Y-68425000D01*
%TO.C,J12*%
X170390000Y-70485000D02*
X172510000Y-70485000D01*
X172510000Y-68425000D02*
X172510000Y-69485000D01*
X170390000Y-70485000D02*
X170390000Y-72545000D01*
X172510000Y-70485000D02*
X172510000Y-72545000D01*
X170390000Y-72545000D02*
X172510000Y-72545000D01*
X171450000Y-68425000D02*
X172510000Y-68425000D01*
%TO.C,J11*%
X196850000Y-58265000D02*
X197910000Y-58265000D01*
X195790000Y-62385000D02*
X197910000Y-62385000D01*
X197910000Y-60325000D02*
X197910000Y-62385000D01*
X195790000Y-60325000D02*
X195790000Y-62385000D01*
X197910000Y-58265000D02*
X197910000Y-59325000D01*
X195790000Y-60325000D02*
X197910000Y-60325000D01*
%TO.C,J10*%
X189440000Y-60325000D02*
X191560000Y-60325000D01*
X191560000Y-58265000D02*
X191560000Y-59325000D01*
X189440000Y-60325000D02*
X189440000Y-62385000D01*
X191560000Y-60325000D02*
X191560000Y-62385000D01*
X189440000Y-62385000D02*
X191560000Y-62385000D01*
X190500000Y-58265000D02*
X191560000Y-58265000D01*
%TO.C,J9*%
X183090000Y-60325000D02*
X185210000Y-60325000D01*
X185210000Y-58265000D02*
X185210000Y-59325000D01*
X183090000Y-60325000D02*
X183090000Y-62385000D01*
X185210000Y-60325000D02*
X185210000Y-62385000D01*
X183090000Y-62385000D02*
X185210000Y-62385000D01*
X184150000Y-58265000D02*
X185210000Y-58265000D01*
%TO.C,J8*%
X176740000Y-60325000D02*
X178860000Y-60325000D01*
X178860000Y-58265000D02*
X178860000Y-59325000D01*
X176740000Y-60325000D02*
X176740000Y-62385000D01*
X178860000Y-60325000D02*
X178860000Y-62385000D01*
X176740000Y-62385000D02*
X178860000Y-62385000D01*
X177800000Y-58265000D02*
X178860000Y-58265000D01*
%TO.C,J7*%
X170390000Y-60325000D02*
X172510000Y-60325000D01*
X172510000Y-58265000D02*
X172510000Y-59325000D01*
X170390000Y-60325000D02*
X170390000Y-62385000D01*
X172510000Y-60325000D02*
X172510000Y-62385000D01*
X170390000Y-62385000D02*
X172510000Y-62385000D01*
X171450000Y-58265000D02*
X172510000Y-58265000D01*
%TO.C,J6*%
X174875000Y-118745000D02*
X174875000Y-119805000D01*
X174875000Y-119805000D02*
X173815000Y-119805000D01*
X172815000Y-119805000D02*
X166755000Y-119805000D01*
X172815000Y-117685000D02*
X166755000Y-117685000D01*
X172815000Y-117685000D02*
X172815000Y-119805000D01*
X166755000Y-117685000D02*
X166755000Y-119805000D01*
%TO.C,J5*%
X173720000Y-124885000D02*
X173720000Y-122765000D01*
X171660000Y-122765000D02*
X172720000Y-122765000D01*
X173720000Y-124885000D02*
X175780000Y-124885000D01*
X173720000Y-122765000D02*
X175780000Y-122765000D01*
X175780000Y-124885000D02*
X175780000Y-122765000D01*
X171660000Y-123825000D02*
X171660000Y-122765000D01*
%TO.C,J4*%
X168275000Y-124885000D02*
X168275000Y-122765000D01*
X166215000Y-122765000D02*
X167275000Y-122765000D01*
X168275000Y-124885000D02*
X170335000Y-124885000D01*
X168275000Y-122765000D02*
X170335000Y-122765000D01*
X170335000Y-124885000D02*
X170335000Y-122765000D01*
X166215000Y-123825000D02*
X166215000Y-122765000D01*
%TO.C,J3*%
X161230000Y-59685000D02*
X161230000Y-72445000D01*
X161230000Y-58415000D02*
X161230000Y-57085000D01*
X161230000Y-57085000D02*
X162560000Y-57085000D01*
X161230000Y-59685000D02*
X163890000Y-59685000D01*
X161230000Y-72445000D02*
X163890000Y-72445000D01*
X163890000Y-59685000D02*
X163890000Y-72445000D01*
%TO.C,J2*%
X145990000Y-77530000D02*
X148650000Y-77530000D01*
X145990000Y-54610000D02*
X148650000Y-54610000D01*
X145990000Y-52010000D02*
X147320000Y-52010000D01*
X145990000Y-54610000D02*
X145990000Y-77530000D01*
X148650000Y-54610000D02*
X148650000Y-77530000D01*
X145990000Y-53340000D02*
X145990000Y-52010000D01*
%TO.C,J1*%
X102309000Y-108742500D02*
X117009000Y-108742500D01*
X102309000Y-117942500D02*
X102309000Y-108742500D01*
X117009000Y-117942500D02*
X115109000Y-117942500D01*
X117009000Y-115242500D02*
X117009000Y-117942500D01*
X117009000Y-108742500D02*
X117009000Y-111342500D01*
X111109000Y-117942500D02*
X102309000Y-117942500D01*
X117209000Y-109592500D02*
X117209000Y-108542500D01*
X116159000Y-108542500D02*
X117209000Y-108542500D01*
%TO.C,IC4*%
X144680000Y-102940000D02*
X149980000Y-102940000D01*
X149980000Y-102940000D02*
X149980000Y-79960000D01*
X146330000Y-79960000D02*
X144680000Y-79960000D01*
X149980000Y-79960000D02*
X148330000Y-79960000D01*
X144680000Y-79960000D02*
X144680000Y-102940000D01*
X146330000Y-79960000D02*
G75*
G03*
X148330000Y-79960000I1000000J0D01*
G01*
%TO.C,IC3*%
X130710000Y-102940000D02*
X136010000Y-102940000D01*
X136010000Y-102940000D02*
X136010000Y-79960000D01*
X132360000Y-79960000D02*
X130710000Y-79960000D01*
X136010000Y-79960000D02*
X134360000Y-79960000D01*
X130710000Y-79960000D02*
X130710000Y-102940000D01*
X132360000Y-79960000D02*
G75*
G03*
X134360000Y-79960000I1000000J0D01*
G01*
%TO.C,IC2*%
X130710000Y-76270000D02*
X136010000Y-76270000D01*
X136010000Y-76270000D02*
X136010000Y-53290000D01*
X132360000Y-53290000D02*
X130710000Y-53290000D01*
X136010000Y-53290000D02*
X134360000Y-53290000D01*
X130710000Y-53290000D02*
X130710000Y-76270000D01*
X132360000Y-53290000D02*
G75*
G03*
X134360000Y-53290000I1000000J0D01*
G01*
D15*
%TO.C,IC1*%
X124795000Y-114235000D02*
X126320000Y-114235000D01*
D12*
%TO.C,C6*%
X146265000Y-113260000D02*
X146250000Y-113260000D01*
X148390000Y-117800000D02*
X148375000Y-117800000D01*
X148390000Y-113260000D02*
X148375000Y-113260000D01*
X146265000Y-117800000D02*
X146250000Y-117800000D01*
X148390000Y-113260000D02*
X148390000Y-117800000D01*
X146250000Y-113260000D02*
X146250000Y-117800000D01*
%TO.C,C5*%
X148805000Y-113300000D02*
X148790000Y-113300000D01*
X150930000Y-117840000D02*
X150915000Y-117840000D01*
X150930000Y-113300000D02*
X150915000Y-113300000D01*
X148805000Y-117840000D02*
X148790000Y-117840000D01*
X150930000Y-113300000D02*
X150930000Y-117840000D01*
X148790000Y-113300000D02*
X148790000Y-117840000D01*
%TO.C,C4*%
X129810000Y-123610000D02*
X129810000Y-123625000D01*
X134350000Y-121485000D02*
X134350000Y-121500000D01*
X129810000Y-121485000D02*
X129810000Y-121500000D01*
X134350000Y-123610000D02*
X134350000Y-123625000D01*
X129810000Y-121485000D02*
X134350000Y-121485000D01*
X129810000Y-123625000D02*
X134350000Y-123625000D01*
%TO.C,C3*%
X124245000Y-114705000D02*
X124260000Y-114705000D01*
X122120000Y-110165000D02*
X122135000Y-110165000D01*
X122120000Y-114705000D02*
X122135000Y-114705000D01*
X124245000Y-110165000D02*
X124260000Y-110165000D01*
X122120000Y-114705000D02*
X122120000Y-110165000D01*
X124260000Y-114705000D02*
X124260000Y-110165000D01*
%TO.C,C1*%
X119595000Y-117705000D02*
X119580000Y-117705000D01*
X121720000Y-122245000D02*
X121705000Y-122245000D01*
X121720000Y-117705000D02*
X121705000Y-117705000D01*
X119595000Y-122245000D02*
X119580000Y-122245000D01*
X121720000Y-117705000D02*
X121720000Y-122245000D01*
X119580000Y-117705000D02*
X119580000Y-122245000D01*
%TD*%
M02*
