%TF.GenerationSoftware,KiCad,Pcbnew,(6.0.7)*%
%TF.CreationDate,2023-04-19T00:27:51+09:00*%
%TF.ProjectId,EleMagDriver,456c654d-6167-4447-9269-7665722e6b69,rev?*%
%TF.SameCoordinates,Original*%
%TF.FileFunction,Copper,L2,Bot*%
%TF.FilePolarity,Positive*%
%FSLAX46Y46*%
G04 Gerber Fmt 4.6, Leading zero omitted, Abs format (unit mm)*
G04 Created by KiCad (PCBNEW (6.0.7)) date 2023-04-19 00:27:51*
%MOMM*%
%LPD*%
G01*
G04 APERTURE LIST*
G04 Aperture macros list*
%AMRoundRect*
0 Rectangle with rounded corners*
0 $1 Rounding radius*
0 $2 $3 $4 $5 $6 $7 $8 $9 X,Y pos of 4 corners*
0 Add a 4 corners polygon primitive as box body*
4,1,4,$2,$3,$4,$5,$6,$7,$8,$9,$2,$3,0*
0 Add four circle primitives for the rounded corners*
1,1,$1+$1,$2,$3*
1,1,$1+$1,$4,$5*
1,1,$1+$1,$6,$7*
1,1,$1+$1,$8,$9*
0 Add four rect primitives between the rounded corners*
20,1,$1+$1,$2,$3,$4,$5,0*
20,1,$1+$1,$4,$5,$6,$7,0*
20,1,$1+$1,$6,$7,$8,$9,0*
20,1,$1+$1,$8,$9,$2,$3,0*%
G04 Aperture macros list end*
%TA.AperFunction,ComponentPad*%
%ADD10R,1.508000X1.508000*%
%TD*%
%TA.AperFunction,ComponentPad*%
%ADD11C,1.508000*%
%TD*%
%TA.AperFunction,ComponentPad*%
%ADD12C,1.600000*%
%TD*%
%TA.AperFunction,ComponentPad*%
%ADD13O,1.600000X1.600000*%
%TD*%
%TA.AperFunction,ComponentPad*%
%ADD14R,1.700000X1.700000*%
%TD*%
%TA.AperFunction,ComponentPad*%
%ADD15O,1.700000X1.700000*%
%TD*%
%TA.AperFunction,ComponentPad*%
%ADD16R,3.500000X3.500000*%
%TD*%
%TA.AperFunction,ComponentPad*%
%ADD17RoundRect,0.750000X-0.750000X-1.000000X0.750000X-1.000000X0.750000X1.000000X-0.750000X1.000000X0*%
%TD*%
%TA.AperFunction,ComponentPad*%
%ADD18RoundRect,0.875000X-0.875000X-0.875000X0.875000X-0.875000X0.875000X0.875000X-0.875000X0.875000X0*%
%TD*%
%TA.AperFunction,ComponentPad*%
%ADD19R,1.350000X1.350000*%
%TD*%
%TA.AperFunction,ComponentPad*%
%ADD20C,1.350000*%
%TD*%
%TA.AperFunction,ComponentPad*%
%ADD21R,1.530000X1.530000*%
%TD*%
%TA.AperFunction,ComponentPad*%
%ADD22C,1.530000*%
%TD*%
%TA.AperFunction,ComponentPad*%
%ADD23R,1.600000X1.600000*%
%TD*%
%TA.AperFunction,ViaPad*%
%ADD24C,0.800000*%
%TD*%
%TA.AperFunction,Conductor*%
%ADD25C,1.500000*%
%TD*%
%TA.AperFunction,Conductor*%
%ADD26C,0.250000*%
%TD*%
%TA.AperFunction,Conductor*%
%ADD27C,0.500000*%
%TD*%
G04 APERTURE END LIST*
D10*
%TO.P,J14,1,Pin_1*%
%TO.N,+12V*%
X189340000Y-66695000D03*
D11*
%TO.P,J14,2,Pin_2*%
%TO.N,Net-(J14-Pad2)*%
X189340000Y-69195000D03*
%TD*%
D12*
%TO.P,R5,1*%
%TO.N,+5V*%
X179222400Y-117348000D03*
D13*
%TO.P,R5,2*%
%TO.N,Net-(IC2-Pad14)*%
X189382400Y-117348000D03*
%TD*%
D14*
%TO.P,J17,1,Pin_1*%
%TO.N,+5V*%
X205750000Y-117475000D03*
D15*
%TO.P,J17,2,Pin_2*%
%TO.N,GND*%
X208290000Y-117475000D03*
%TO.P,J17,3,Pin_3*%
%TO.N,unconnected-(J17-Pad3)*%
X210830000Y-117475000D03*
%TO.P,J17,4,Pin_4*%
%TO.N,unconnected-(J17-Pad4)*%
X213370000Y-117475000D03*
%TD*%
D10*
%TO.P,J13,1,Pin_1*%
%TO.N,+12V*%
X178545000Y-66695000D03*
D11*
%TO.P,J13,2,Pin_2*%
%TO.N,Net-(J13-Pad2)*%
X178545000Y-69195000D03*
%TD*%
D16*
%TO.P,J1,1*%
%TO.N,+12V*%
X116109000Y-113342500D03*
D17*
%TO.P,J1,2*%
%TO.N,GND*%
X110109000Y-113342500D03*
D18*
%TO.P,J1,3*%
%TO.N,N/C*%
X113109000Y-118042500D03*
%TD*%
D10*
%TO.P,J10,1,Pin_1*%
%TO.N,+12V*%
X200135000Y-56535000D03*
D11*
%TO.P,J10,2,Pin_2*%
%TO.N,Net-(J10-Pad2)*%
X200135000Y-59035000D03*
%TD*%
D19*
%TO.P,J20,1,Pin_1*%
%TO.N,unconnected-(J20-Pad1)*%
X169060000Y-97155000D03*
D20*
%TO.P,J20,2,Pin_2*%
%TO.N,unconnected-(J20-Pad2)*%
X169060000Y-94615000D03*
%TO.P,J20,3,Pin_3*%
%TO.N,unconnected-(J20-Pad3)*%
X171600000Y-97155000D03*
%TO.P,J20,4,Pin_4*%
%TO.N,unconnected-(J20-Pad4)*%
X171600000Y-94615000D03*
%TO.P,J20,5,Pin_5*%
%TO.N,unconnected-(J20-Pad5)*%
X174140000Y-97155000D03*
%TO.P,J20,6,Pin_6*%
%TO.N,unconnected-(J20-Pad6)*%
X174140000Y-94615000D03*
%TO.P,J20,7,Pin_7*%
%TO.N,unconnected-(J20-Pad7)*%
X176680000Y-97155000D03*
%TO.P,J20,8,Pin_8*%
%TO.N,unconnected-(J20-Pad8)*%
X176680000Y-94615000D03*
%TO.P,J20,9,Pin_9*%
%TO.N,unconnected-(J20-Pad9)*%
X179220000Y-97155000D03*
%TO.P,J20,10,Pin_10*%
%TO.N,unconnected-(J20-Pad10)*%
X179220000Y-94615000D03*
%TO.P,J20,11,Pin_11*%
%TO.N,unconnected-(J20-Pad11)*%
X181760000Y-97155000D03*
%TO.P,J20,12,Pin_12*%
%TO.N,Net-(IC2-Pad12)*%
X181760000Y-94615000D03*
%TO.P,J20,13,Pin_13*%
%TO.N,unconnected-(J20-Pad13)*%
X184300000Y-97155000D03*
%TO.P,J20,14,Pin_14*%
%TO.N,unconnected-(J20-Pad14)*%
X184300000Y-94615000D03*
%TO.P,J20,15,Pin_15*%
%TO.N,unconnected-(J20-Pad15)*%
X186840000Y-97155000D03*
%TO.P,J20,16,Pin_16*%
%TO.N,unconnected-(J20-Pad16)*%
X186840000Y-94615000D03*
%TO.P,J20,17,Pin_17*%
%TO.N,unconnected-(J20-Pad17)*%
X189380000Y-97155000D03*
%TO.P,J20,18,Pin_18*%
%TO.N,Net-(IC2-Pad11)*%
X189380000Y-94615000D03*
%TO.P,J20,19,Pin_19*%
%TO.N,unconnected-(J20-Pad19)*%
X191920000Y-97155000D03*
%TO.P,J20,20,Pin_20*%
%TO.N,Net-(IC2-Pad13)*%
X191920000Y-94615000D03*
%TO.P,J20,21,Pin_21*%
%TO.N,unconnected-(J20-Pad21)*%
X194460000Y-97155000D03*
%TO.P,J20,22,Pin_22*%
%TO.N,unconnected-(J20-Pad22)*%
X194460000Y-94615000D03*
%TO.P,J20,23,Pin_23*%
%TO.N,unconnected-(J20-Pad23)*%
X197000000Y-97155000D03*
%TO.P,J20,24,Pin_24*%
%TO.N,unconnected-(J20-Pad24)*%
X197000000Y-94615000D03*
%TO.P,J20,25,Pin_25*%
%TO.N,unconnected-(J20-Pad25)*%
X199540000Y-97155000D03*
%TO.P,J20,26,Pin_26*%
%TO.N,unconnected-(J20-Pad26)*%
X199540000Y-94615000D03*
%TO.P,J20,27,Pin_27*%
%TO.N,unconnected-(J20-Pad27)*%
X202080000Y-97155000D03*
%TO.P,J20,28,Pin_28*%
%TO.N,unconnected-(J20-Pad28)*%
X202080000Y-94615000D03*
%TO.P,J20,29,Pin_29*%
%TO.N,unconnected-(J20-Pad29)*%
X204620000Y-97155000D03*
%TO.P,J20,30,Pin_30*%
%TO.N,unconnected-(J20-Pad30)*%
X204620000Y-94615000D03*
%TO.P,J20,31,Pin_31*%
%TO.N,unconnected-(J20-Pad31)*%
X207160000Y-97155000D03*
%TO.P,J20,32,Pin_32*%
%TO.N,unconnected-(J20-Pad32)*%
X207160000Y-94615000D03*
%TO.P,J20,33,Pin_33*%
%TO.N,unconnected-(J20-Pad33)*%
X209700000Y-97155000D03*
%TO.P,J20,34,Pin_34*%
%TO.N,unconnected-(J20-Pad34)*%
X209700000Y-94615000D03*
%TD*%
D12*
%TO.P,C4,1*%
%TO.N,Net-(C4-Pad1)*%
X129580000Y-122555000D03*
%TO.P,C4,2*%
%TO.N,Net-(C4-Pad2)*%
X134580000Y-122555000D03*
%TD*%
%TO.P,C3,1*%
%TO.N,Net-(C3-Pad1)*%
X123190000Y-114935000D03*
%TO.P,C3,2*%
%TO.N,Net-(C3-Pad2)*%
X123190000Y-109935000D03*
%TD*%
D14*
%TO.P,J3,1,Pin_1*%
%TO.N,/Motor_OutAN*%
X158750000Y-85720000D03*
D15*
%TO.P,J3,2,Pin_2*%
%TO.N,/Motor_OutA*%
X158750000Y-88260000D03*
%TO.P,J3,3,Pin_3*%
%TO.N,GND*%
X158750000Y-90800000D03*
%TO.P,J3,4,Pin_4*%
X158750000Y-93340000D03*
%TO.P,J3,5,Pin_5*%
%TO.N,/Motor_OutBN*%
X158750000Y-95880000D03*
%TO.P,J3,6,Pin_6*%
%TO.N,/Motor_OutB*%
X158750000Y-98420000D03*
%TD*%
D10*
%TO.P,J8,1,Pin_1*%
%TO.N,+12V*%
X178545000Y-56535000D03*
D11*
%TO.P,J8,2,Pin_2*%
%TO.N,Net-(IC3-Pad14)*%
X178545000Y-59035000D03*
%TD*%
D19*
%TO.P,J18,1,Pin_1*%
%TO.N,unconnected-(J18-Pad1)*%
X169060000Y-112395000D03*
D20*
%TO.P,J18,2,Pin_2*%
%TO.N,unconnected-(J18-Pad2)*%
X169060000Y-109855000D03*
%TO.P,J18,3,Pin_3*%
%TO.N,unconnected-(J18-Pad3)*%
X171600000Y-112395000D03*
%TO.P,J18,4,Pin_4*%
%TO.N,unconnected-(J18-Pad4)*%
X171600000Y-109855000D03*
%TO.P,J18,5,Pin_5*%
%TO.N,unconnected-(J18-Pad5)*%
X174140000Y-112395000D03*
%TO.P,J18,6,Pin_6*%
%TO.N,unconnected-(J18-Pad6)*%
X174140000Y-109855000D03*
%TO.P,J18,7,Pin_7*%
%TO.N,unconnected-(J18-Pad7)*%
X176680000Y-112395000D03*
%TO.P,J18,8,Pin_8*%
%TO.N,unconnected-(J18-Pad8)*%
X176680000Y-109855000D03*
%TO.P,J18,9,Pin_9*%
%TO.N,unconnected-(J18-Pad9)*%
X179220000Y-112395000D03*
%TO.P,J18,10,Pin_10*%
%TO.N,unconnected-(J18-Pad10)*%
X179220000Y-109855000D03*
%TO.P,J18,11,Pin_11*%
%TO.N,unconnected-(J18-Pad11)*%
X181760000Y-112395000D03*
%TO.P,J18,12,Pin_12*%
%TO.N,Net-(IC2-Pad15)*%
X181760000Y-109855000D03*
%TO.P,J18,13,Pin_13*%
%TO.N,unconnected-(J18-Pad13)*%
X184300000Y-112395000D03*
%TO.P,J18,14,Pin_14*%
%TO.N,unconnected-(J18-Pad14)*%
X184300000Y-109855000D03*
%TO.P,J18,15,Pin_15*%
%TO.N,unconnected-(J18-Pad15)*%
X186840000Y-112395000D03*
%TO.P,J18,16,Pin_16*%
%TO.N,unconnected-(J18-Pad16)*%
X186840000Y-109855000D03*
%TO.P,J18,17,Pin_17*%
%TO.N,unconnected-(J18-Pad17)*%
X189380000Y-112395000D03*
%TO.P,J18,18,Pin_18*%
%TO.N,Net-(IC2-Pad14)*%
X189380000Y-109855000D03*
%TO.P,J18,19,Pin_19*%
%TO.N,unconnected-(J18-Pad19)*%
X191920000Y-112395000D03*
%TO.P,J18,20,Pin_20*%
%TO.N,Net-(IC2-Pad16)*%
X191920000Y-109855000D03*
%TO.P,J18,21,Pin_21*%
%TO.N,unconnected-(J18-Pad21)*%
X194460000Y-112395000D03*
%TO.P,J18,22,Pin_22*%
%TO.N,unconnected-(J18-Pad22)*%
X194460000Y-109855000D03*
%TO.P,J18,23,Pin_23*%
%TO.N,unconnected-(J18-Pad23)*%
X197000000Y-112395000D03*
%TO.P,J18,24,Pin_24*%
%TO.N,unconnected-(J18-Pad24)*%
X197000000Y-109855000D03*
%TO.P,J18,25,Pin_25*%
%TO.N,unconnected-(J18-Pad25)*%
X199540000Y-112395000D03*
%TO.P,J18,26,Pin_26*%
%TO.N,unconnected-(J18-Pad26)*%
X199540000Y-109855000D03*
%TO.P,J18,27,Pin_27*%
%TO.N,unconnected-(J18-Pad27)*%
X202080000Y-112395000D03*
%TO.P,J18,28,Pin_28*%
%TO.N,unconnected-(J18-Pad28)*%
X202080000Y-109855000D03*
%TO.P,J18,29,Pin_29*%
%TO.N,unconnected-(J18-Pad29)*%
X204620000Y-112395000D03*
%TO.P,J18,30,Pin_30*%
%TO.N,unconnected-(J18-Pad30)*%
X204620000Y-109855000D03*
%TO.P,J18,31,Pin_31*%
%TO.N,unconnected-(J18-Pad31)*%
X207160000Y-112395000D03*
%TO.P,J18,32,Pin_32*%
%TO.N,unconnected-(J18-Pad32)*%
X207160000Y-109855000D03*
%TO.P,J18,33,Pin_33*%
%TO.N,unconnected-(J18-Pad33)*%
X209700000Y-112395000D03*
%TO.P,J18,34,Pin_34*%
%TO.N,unconnected-(J18-Pad34)*%
X209700000Y-109855000D03*
%TD*%
D14*
%TO.P,J21,1,Pin_1*%
%TO.N,+5V*%
X205750000Y-87630000D03*
D15*
%TO.P,J21,2,Pin_2*%
%TO.N,GND*%
X208290000Y-87630000D03*
%TO.P,J21,3,Pin_3*%
%TO.N,unconnected-(J21-Pad3)*%
X210830000Y-87630000D03*
%TO.P,J21,4,Pin_4*%
%TO.N,unconnected-(J21-Pad4)*%
X213370000Y-87630000D03*
%TD*%
D10*
%TO.P,J9,1,Pin_1*%
%TO.N,+12V*%
X189340000Y-56535000D03*
D11*
%TO.P,J9,2,Pin_2*%
%TO.N,Net-(IC3-Pad13)*%
X189340000Y-59035000D03*
%TD*%
D12*
%TO.P,C6,1*%
%TO.N,+5V*%
X147320000Y-113030000D03*
%TO.P,C6,2*%
%TO.N,GND*%
X147320000Y-118030000D03*
%TD*%
D10*
%TO.P,J5,1,Pin_1*%
%TO.N,+5V*%
X178455000Y-123080000D03*
D11*
%TO.P,J5,2,Pin_2*%
%TO.N,Net-(IC2-Pad17)*%
X180955000Y-123080000D03*
%TD*%
D12*
%TO.P,R8,1*%
%TO.N,+5V*%
X202082400Y-89789000D03*
D13*
%TO.P,R8,2*%
%TO.N,Net-(IC3-Pad18)*%
X191922400Y-89789000D03*
%TD*%
D10*
%TO.P,J6,1,Pin_1*%
%TO.N,/Motor_OutAN*%
X189290000Y-123080000D03*
D11*
%TO.P,J6,2,Pin_2*%
%TO.N,/Motor_OutA*%
X191790000Y-123080000D03*
%TO.P,J6,3,Pin_3*%
%TO.N,/Motor_OutB*%
X194290000Y-123080000D03*
%TO.P,J6,4,Pin_4*%
%TO.N,/Motor_OutBN*%
X196790000Y-123080000D03*
%TD*%
D14*
%TO.P,J2,1,Pin_1*%
%TO.N,+12V*%
X143510000Y-80645000D03*
D15*
%TO.P,J2,2,Pin_2*%
%TO.N,+5V*%
X143510000Y-83185000D03*
%TO.P,J2,3,Pin_3*%
%TO.N,GND*%
X143510000Y-85725000D03*
%TO.P,J2,4,Pin_4*%
%TO.N,+5V*%
X143510000Y-88265000D03*
%TO.P,J2,5,Pin_5*%
%TO.N,/Stp_BN*%
X143510000Y-90805000D03*
%TO.P,J2,6,Pin_6*%
%TO.N,/Stp_B*%
X143510000Y-93345000D03*
%TO.P,J2,7,Pin_7*%
%TO.N,+5V*%
X143510000Y-95885000D03*
%TO.P,J2,8,Pin_8*%
%TO.N,/Stp_A*%
X143510000Y-98425000D03*
%TO.P,J2,9,Pin_9*%
%TO.N,/Stp_AN*%
X143510000Y-100965000D03*
%TO.P,J2,10,Pin_10*%
%TO.N,+5V*%
X143510000Y-103505000D03*
%TD*%
D12*
%TO.P,R3,1*%
%TO.N,Net-(IC1-Pad5)*%
X162560000Y-122555000D03*
D13*
%TO.P,R3,2*%
%TO.N,GND*%
X152400000Y-122555000D03*
%TD*%
D12*
%TO.P,C5,1*%
%TO.N,+5V*%
X149860000Y-113070000D03*
%TO.P,C5,2*%
%TO.N,GND*%
X149860000Y-118070000D03*
%TD*%
%TO.P,R4,1*%
%TO.N,+5V*%
X202082400Y-117348000D03*
D13*
%TO.P,R4,2*%
%TO.N,Net-(IC2-Pad16)*%
X191922400Y-117348000D03*
%TD*%
D10*
%TO.P,J7,1,Pin_1*%
%TO.N,+12V*%
X167750000Y-56535000D03*
D11*
%TO.P,J7,2,Pin_2*%
%TO.N,Net-(IC3-Pad15)*%
X167750000Y-59035000D03*
%TD*%
D10*
%TO.P,J4,1,Pin_1*%
%TO.N,+5V*%
X168295000Y-123080000D03*
D11*
%TO.P,J4,2,Pin_2*%
%TO.N,Net-(IC2-Pad18)*%
X170795000Y-123080000D03*
%TD*%
D12*
%TO.P,C2,1*%
%TO.N,+12V*%
X123190000Y-117475000D03*
%TO.P,C2,2*%
%TO.N,GND*%
X123190000Y-122475000D03*
%TD*%
D19*
%TO.P,J22,1,Pin_1*%
%TO.N,unconnected-(J22-Pad1)*%
X169060000Y-81915000D03*
D20*
%TO.P,J22,2,Pin_2*%
%TO.N,unconnected-(J22-Pad2)*%
X169060000Y-79375000D03*
%TO.P,J22,3,Pin_3*%
%TO.N,unconnected-(J22-Pad3)*%
X171600000Y-81915000D03*
%TO.P,J22,4,Pin_4*%
%TO.N,unconnected-(J22-Pad4)*%
X171600000Y-79375000D03*
%TO.P,J22,5,Pin_5*%
%TO.N,unconnected-(J22-Pad5)*%
X174140000Y-81915000D03*
%TO.P,J22,6,Pin_6*%
%TO.N,unconnected-(J22-Pad6)*%
X174140000Y-79375000D03*
%TO.P,J22,7,Pin_7*%
%TO.N,unconnected-(J22-Pad7)*%
X176680000Y-81915000D03*
%TO.P,J22,8,Pin_8*%
%TO.N,unconnected-(J22-Pad8)*%
X176680000Y-79375000D03*
%TO.P,J22,9,Pin_9*%
%TO.N,unconnected-(J22-Pad9)*%
X179220000Y-81915000D03*
%TO.P,J22,10,Pin_10*%
%TO.N,unconnected-(J22-Pad10)*%
X179220000Y-79375000D03*
%TO.P,J22,11,Pin_11*%
%TO.N,unconnected-(J22-Pad11)*%
X181760000Y-81915000D03*
%TO.P,J22,12,Pin_12*%
%TO.N,Net-(IC3-Pad17)*%
X181760000Y-79375000D03*
%TO.P,J22,13,Pin_13*%
%TO.N,unconnected-(J22-Pad13)*%
X184300000Y-81915000D03*
%TO.P,J22,14,Pin_14*%
%TO.N,unconnected-(J22-Pad14)*%
X184300000Y-79375000D03*
%TO.P,J22,15,Pin_15*%
%TO.N,unconnected-(J22-Pad15)*%
X186840000Y-81915000D03*
%TO.P,J22,16,Pin_16*%
%TO.N,unconnected-(J22-Pad16)*%
X186840000Y-79375000D03*
%TO.P,J22,17,Pin_17*%
%TO.N,unconnected-(J22-Pad17)*%
X189380000Y-81915000D03*
%TO.P,J22,18,Pin_18*%
%TO.N,Net-(IC3-Pad16)*%
X189380000Y-79375000D03*
%TO.P,J22,19,Pin_19*%
%TO.N,unconnected-(J22-Pad19)*%
X191920000Y-81915000D03*
%TO.P,J22,20,Pin_20*%
%TO.N,Net-(IC3-Pad18)*%
X191920000Y-79375000D03*
%TO.P,J22,21,Pin_21*%
%TO.N,unconnected-(J22-Pad21)*%
X194460000Y-81915000D03*
%TO.P,J22,22,Pin_22*%
%TO.N,unconnected-(J22-Pad22)*%
X194460000Y-79375000D03*
%TO.P,J22,23,Pin_23*%
%TO.N,unconnected-(J22-Pad23)*%
X197000000Y-81915000D03*
%TO.P,J22,24,Pin_24*%
%TO.N,unconnected-(J22-Pad24)*%
X197000000Y-79375000D03*
%TO.P,J22,25,Pin_25*%
%TO.N,unconnected-(J22-Pad25)*%
X199540000Y-81915000D03*
%TO.P,J22,26,Pin_26*%
%TO.N,unconnected-(J22-Pad26)*%
X199540000Y-79375000D03*
%TO.P,J22,27,Pin_27*%
%TO.N,unconnected-(J22-Pad27)*%
X202080000Y-81915000D03*
%TO.P,J22,28,Pin_28*%
%TO.N,unconnected-(J22-Pad28)*%
X202080000Y-79375000D03*
%TO.P,J22,29,Pin_29*%
%TO.N,unconnected-(J22-Pad29)*%
X204620000Y-81915000D03*
%TO.P,J22,30,Pin_30*%
%TO.N,unconnected-(J22-Pad30)*%
X204620000Y-79375000D03*
%TO.P,J22,31,Pin_31*%
%TO.N,unconnected-(J22-Pad31)*%
X207160000Y-81915000D03*
%TO.P,J22,32,Pin_32*%
%TO.N,unconnected-(J22-Pad32)*%
X207160000Y-79375000D03*
%TO.P,J22,33,Pin_33*%
%TO.N,unconnected-(J22-Pad33)*%
X209700000Y-81915000D03*
%TO.P,J22,34,Pin_34*%
%TO.N,unconnected-(J22-Pad34)*%
X209700000Y-79375000D03*
%TD*%
D12*
%TO.P,R6,1*%
%TO.N,+5V*%
X202082400Y-105054400D03*
D13*
%TO.P,R6,2*%
%TO.N,Net-(IC2-Pad13)*%
X191922400Y-105054400D03*
%TD*%
D12*
%TO.P,R1,1*%
%TO.N,Net-(C4-Pad2)*%
X137160000Y-122555000D03*
D13*
%TO.P,R1,2*%
%TO.N,GND*%
X147320000Y-122555000D03*
%TD*%
D10*
%TO.P,J16,1,Pin_1*%
%TO.N,+12V*%
X210930000Y-70505000D03*
D11*
%TO.P,J16,2,Pin_2*%
%TO.N,Net-(J16-Pad2)*%
X210930000Y-73005000D03*
%TD*%
D12*
%TO.P,R2,1*%
%TO.N,+5V*%
X152400000Y-119380000D03*
D13*
%TO.P,R2,2*%
%TO.N,Net-(IC1-Pad5)*%
X162560000Y-119380000D03*
%TD*%
D14*
%TO.P,J19,1,Pin_1*%
%TO.N,+5V*%
X205750000Y-102870000D03*
D15*
%TO.P,J19,2,Pin_2*%
%TO.N,GND*%
X208290000Y-102870000D03*
%TO.P,J19,3,Pin_3*%
%TO.N,unconnected-(J19-Pad3)*%
X210830000Y-102870000D03*
%TO.P,J19,4,Pin_4*%
%TO.N,unconnected-(J19-Pad4)*%
X213370000Y-102870000D03*
%TD*%
D12*
%TO.P,R7,1*%
%TO.N,+5V*%
X199542400Y-101854000D03*
D13*
%TO.P,R7,2*%
%TO.N,Net-(IC2-Pad11)*%
X189382400Y-101854000D03*
%TD*%
D10*
%TO.P,J12,1,Pin_1*%
%TO.N,+12V*%
X167750000Y-66695000D03*
D11*
%TO.P,J12,2,Pin_2*%
%TO.N,Net-(J12-Pad2)*%
X167750000Y-69195000D03*
%TD*%
D12*
%TO.P,C1,1*%
%TO.N,+12V*%
X120650000Y-117475000D03*
%TO.P,C1,2*%
%TO.N,GND*%
X120650000Y-122475000D03*
%TD*%
D10*
%TO.P,J15,1,Pin_1*%
%TO.N,+12V*%
X200135000Y-66695000D03*
D11*
%TO.P,J15,2,Pin_2*%
%TO.N,Net-(J15-Pad2)*%
X200135000Y-69195000D03*
%TD*%
D12*
%TO.P,R9,1*%
%TO.N,+5V*%
X199542400Y-86614000D03*
D13*
%TO.P,R9,2*%
%TO.N,Net-(IC3-Pad16)*%
X189382400Y-86614000D03*
%TD*%
D21*
%TO.P,U1,3_1,PA9*%
%TO.N,/Stp_A*%
X109220000Y-60960000D03*
D22*
%TO.P,U1,3_2,PA10*%
%TO.N,/Stp_B*%
X109220000Y-63500000D03*
%TO.P,U1,3_3,NRST_1*%
%TO.N,unconnected-(U1-Pad3_3)*%
X109220000Y-66040000D03*
%TO.P,U1,3_4,GND_1*%
%TO.N,GND*%
X109220000Y-68580000D03*
%TO.P,U1,3_5,PA12*%
%TO.N,unconnected-(U1-Pad3_5)*%
X109220000Y-71120000D03*
%TO.P,U1,3_6,PB0*%
%TO.N,/Stp_AN*%
X109220000Y-73660000D03*
%TO.P,U1,3_7,PB7*%
%TO.N,/Direction2*%
X109220000Y-76200000D03*
%TO.P,U1,3_8,PB6*%
%TO.N,/Step2*%
X109220000Y-78740000D03*
%TO.P,U1,3_9,PB1*%
%TO.N,/Stp_BN*%
X109220000Y-81280000D03*
%TO.P,U1,3_10,PF0*%
%TO.N,/Direction3*%
X109220000Y-83820000D03*
%TO.P,U1,3_11,PF1*%
%TO.N,/Step3*%
X109220000Y-86360000D03*
%TO.P,U1,3_12,PA8*%
%TO.N,/Solenoid*%
X109220000Y-88900000D03*
%TO.P,U1,3_13,PA11*%
%TO.N,unconnected-(U1-Pad3_13)*%
X109220000Y-91440000D03*
%TO.P,U1,3_14,PB5*%
%TO.N,/Direction1*%
X109220000Y-93980000D03*
%TO.P,U1,3_15,PB4*%
%TO.N,/Step1*%
X109220000Y-96520000D03*
D21*
%TO.P,U1,4_1,VIN*%
%TO.N,unconnected-(U1-Pad4_1)*%
X124460000Y-60960000D03*
D22*
%TO.P,U1,4_2,GND_2*%
%TO.N,GND*%
X124460000Y-63500000D03*
%TO.P,U1,4_3,NRST_2*%
%TO.N,unconnected-(U1-Pad4_3)*%
X124460000Y-66040000D03*
%TO.P,U1,4_4,+5V*%
%TO.N,unconnected-(U1-Pad4_4)*%
X124460000Y-68580000D03*
%TO.P,U1,4_5,PA2*%
%TO.N,unconnected-(U1-Pad4_5)*%
X124460000Y-71120000D03*
%TO.P,U1,4_6,PA7*%
%TO.N,unconnected-(U1-Pad4_6)*%
X124460000Y-73660000D03*
%TO.P,U1,4_7,PA6*%
%TO.N,unconnected-(U1-Pad4_7)*%
X124460000Y-76200000D03*
%TO.P,U1,4_8,PA5*%
%TO.N,unconnected-(U1-Pad4_8)*%
X124460000Y-78740000D03*
%TO.P,U1,4_9,PA4*%
%TO.N,/Relay4*%
X124460000Y-81280000D03*
%TO.P,U1,4_10,PA3*%
%TO.N,/Relay3*%
X124460000Y-83820000D03*
%TO.P,U1,4_11,PA1*%
%TO.N,/Relay2*%
X124460000Y-86360000D03*
%TO.P,U1,4_12,PA0*%
%TO.N,/Relay1*%
X124460000Y-88900000D03*
%TO.P,U1,4_13,AREF*%
%TO.N,unconnected-(U1-Pad4_13)*%
X124460000Y-91440000D03*
%TO.P,U1,4_14,+3V3*%
%TO.N,unconnected-(U1-Pad4_14)*%
X124460000Y-93980000D03*
%TO.P,U1,4_15,PB3*%
%TO.N,unconnected-(U1-Pad4_15)*%
X124460000Y-96520000D03*
%TD*%
D10*
%TO.P,J11,1,Pin_1*%
%TO.N,+12V*%
X210930000Y-60980000D03*
D11*
%TO.P,J11,2,Pin_2*%
%TO.N,Net-(J11-Pad2)*%
X210930000Y-63480000D03*
%TD*%
D23*
%TO.P,IC3,1,I1*%
%TO.N,/Step3*%
X129540000Y-74920000D03*
D13*
%TO.P,IC3,2,I2*%
X129540000Y-72380000D03*
%TO.P,IC3,3,I3*%
%TO.N,/Direction3*%
X129540000Y-69840000D03*
%TO.P,IC3,4,I4*%
%TO.N,/Relay1*%
X129540000Y-67300000D03*
%TO.P,IC3,5,I5*%
X129540000Y-64760000D03*
%TO.P,IC3,6,I6*%
X129540000Y-62220000D03*
%TO.P,IC3,7,I7*%
%TO.N,/Relay2*%
X129540000Y-59680000D03*
%TO.P,IC3,8,I8*%
X129540000Y-57140000D03*
%TO.P,IC3,9,GND*%
%TO.N,GND*%
X129540000Y-54600000D03*
%TO.P,IC3,10,COM*%
%TO.N,+12V*%
X137160000Y-54600000D03*
%TO.P,IC3,11,O8*%
%TO.N,Net-(J11-Pad2)*%
X137160000Y-57140000D03*
%TO.P,IC3,12,O7*%
%TO.N,Net-(J10-Pad2)*%
X137160000Y-59680000D03*
%TO.P,IC3,13,O6*%
%TO.N,Net-(IC3-Pad13)*%
X137160000Y-62220000D03*
%TO.P,IC3,14,O5*%
%TO.N,Net-(IC3-Pad14)*%
X137160000Y-64760000D03*
%TO.P,IC3,15,O4*%
%TO.N,Net-(IC3-Pad15)*%
X137160000Y-67300000D03*
%TO.P,IC3,16,O3*%
%TO.N,Net-(IC3-Pad16)*%
X137160000Y-69840000D03*
%TO.P,IC3,17,O2*%
%TO.N,Net-(IC3-Pad17)*%
X137160000Y-72380000D03*
%TO.P,IC3,18,O1*%
%TO.N,Net-(IC3-Pad18)*%
X137160000Y-74920000D03*
%TD*%
D23*
%TO.P,IC2,1,I1*%
%TO.N,/Solenoid*%
X129540000Y-101600000D03*
D13*
%TO.P,IC2,2,I2*%
X129540000Y-99060000D03*
%TO.P,IC2,3,I3*%
%TO.N,/Step1*%
X129540000Y-96520000D03*
%TO.P,IC2,4,I4*%
X129540000Y-93980000D03*
%TO.P,IC2,5,I5*%
%TO.N,/Direction1*%
X129540000Y-91440000D03*
%TO.P,IC2,6,I6*%
%TO.N,/Step2*%
X129540000Y-88900000D03*
%TO.P,IC2,7,I7*%
X129540000Y-86360000D03*
%TO.P,IC2,8,I8*%
%TO.N,/Direction2*%
X129540000Y-83820000D03*
%TO.P,IC2,9,GND*%
%TO.N,GND*%
X129540000Y-81280000D03*
%TO.P,IC2,10,COM*%
%TO.N,+5V*%
X137160000Y-81280000D03*
%TO.P,IC2,11,O8*%
%TO.N,Net-(IC2-Pad11)*%
X137160000Y-83820000D03*
%TO.P,IC2,12,O7*%
%TO.N,Net-(IC2-Pad12)*%
X137160000Y-86360000D03*
%TO.P,IC2,13,O6*%
%TO.N,Net-(IC2-Pad13)*%
X137160000Y-88900000D03*
%TO.P,IC2,14,O5*%
%TO.N,Net-(IC2-Pad14)*%
X137160000Y-91440000D03*
%TO.P,IC2,15,O4*%
%TO.N,Net-(IC2-Pad15)*%
X137160000Y-93980000D03*
%TO.P,IC2,16,O3*%
%TO.N,Net-(IC2-Pad16)*%
X137160000Y-96520000D03*
%TO.P,IC2,17,O2*%
%TO.N,Net-(IC2-Pad17)*%
X137160000Y-99060000D03*
%TO.P,IC2,18,O1*%
%TO.N,Net-(IC2-Pad18)*%
X137160000Y-101600000D03*
%TD*%
D23*
%TO.P,IC4,1,I1*%
%TO.N,/Relay2*%
X153670000Y-74920000D03*
D13*
%TO.P,IC4,2,I2*%
%TO.N,/Relay3*%
X153670000Y-72380000D03*
%TO.P,IC4,3,I3*%
X153670000Y-69840000D03*
%TO.P,IC4,4,I4*%
%TO.N,/Relay4*%
X153670000Y-67300000D03*
%TO.P,IC4,5,I5*%
X153670000Y-64760000D03*
%TO.P,IC4,6,I6*%
%TO.N,GND*%
X153670000Y-62220000D03*
%TO.P,IC4,7,I7*%
X153670000Y-59680000D03*
%TO.P,IC4,8,I8*%
X153670000Y-57140000D03*
%TO.P,IC4,9,GND*%
X153670000Y-54600000D03*
%TO.P,IC4,10,COM*%
%TO.N,+12V*%
X161290000Y-54600000D03*
%TO.P,IC4,11,O8*%
%TO.N,unconnected-(IC4-Pad11)*%
X161290000Y-57140000D03*
%TO.P,IC4,12,O7*%
%TO.N,unconnected-(IC4-Pad12)*%
X161290000Y-59680000D03*
%TO.P,IC4,13,O6*%
%TO.N,unconnected-(IC4-Pad13)*%
X161290000Y-62220000D03*
%TO.P,IC4,14,O5*%
%TO.N,Net-(J16-Pad2)*%
X161290000Y-64760000D03*
%TO.P,IC4,15,O4*%
%TO.N,Net-(J15-Pad2)*%
X161290000Y-67300000D03*
%TO.P,IC4,16,O3*%
%TO.N,Net-(J14-Pad2)*%
X161290000Y-69840000D03*
%TO.P,IC4,17,O2*%
%TO.N,Net-(J13-Pad2)*%
X161290000Y-72380000D03*
%TO.P,IC4,18,O1*%
%TO.N,Net-(J12-Pad2)*%
X161290000Y-74920000D03*
%TD*%
D24*
%TO.N,Net-(IC2-Pad16)*%
X177858300Y-106659400D03*
%TO.N,Net-(IC3-Pad14)*%
X170595300Y-65432500D03*
%TO.N,Net-(IC3-Pad17)*%
X146905500Y-72235300D03*
%TD*%
D25*
%TO.N,+5V*%
X205623000Y-117348000D02*
X205750000Y-117475000D01*
X202082400Y-117348000D02*
X205623000Y-117348000D01*
X205750000Y-104670300D02*
X205750000Y-102870000D01*
X206829700Y-104670300D02*
X205750000Y-104670300D01*
X211342500Y-109183100D02*
X206829700Y-104670300D01*
X207863605Y-114716395D02*
X209678005Y-114716395D01*
X209678005Y-114716395D02*
X211342500Y-113051900D01*
X205740000Y-116840000D02*
X207863605Y-114716395D01*
X211342500Y-113051900D02*
X211342500Y-109183100D01*
X205750000Y-116850000D02*
X205740000Y-116840000D01*
X205750000Y-117475000D02*
X205750000Y-116850000D01*
%TO.N,+12V*%
X200135000Y-66695000D02*
X207120000Y-66695000D01*
X207120000Y-66695000D02*
X210930000Y-70505000D01*
X212725000Y-68710000D02*
X210930000Y-70505000D01*
X212725000Y-62775000D02*
X212725000Y-68710000D01*
X210930000Y-60980000D02*
X212725000Y-62775000D01*
X208300000Y-60980000D02*
X210930000Y-60980000D01*
X200135000Y-56535000D02*
X203855000Y-56535000D01*
X203855000Y-56535000D02*
X208300000Y-60980000D01*
X181218300Y-57503900D02*
X180249300Y-56535000D01*
X189340000Y-66695000D02*
X187635700Y-66695000D01*
X166045600Y-63286300D02*
X167750000Y-64990700D01*
X139700000Y-52070000D02*
X138430000Y-53340000D01*
X181218300Y-57503900D02*
X181218200Y-57504000D01*
X158760000Y-52070000D02*
X139700000Y-52070000D01*
X167750000Y-66695000D02*
X167750000Y-64990700D01*
X181218200Y-65726100D02*
X180249300Y-66695000D01*
X182187200Y-56535000D02*
X181218300Y-57503900D01*
X178545000Y-56535000D02*
X180249300Y-56535000D01*
X181218200Y-57504000D02*
X181218200Y-65726100D01*
X161290000Y-54600000D02*
X158760000Y-52070000D01*
X189340000Y-56535000D02*
X182187200Y-56535000D01*
X114105000Y-52265000D02*
X106490271Y-59879729D01*
X134825000Y-52265000D02*
X114105000Y-52265000D01*
X186666800Y-65726100D02*
X187635700Y-66695000D01*
X138420000Y-53340000D02*
X137160000Y-54600000D01*
X137160000Y-54600000D02*
X134825000Y-52265000D01*
X161290000Y-54600000D02*
X163040300Y-54600000D01*
X167750000Y-56535000D02*
X166362700Y-57922300D01*
X143510000Y-60950000D02*
X143510000Y-80645000D01*
X166362700Y-57922300D02*
X166045600Y-58239400D01*
X137160000Y-54600000D02*
X143510000Y-60950000D01*
X178545000Y-66695000D02*
X180249300Y-66695000D01*
X166045600Y-58239400D02*
X166045600Y-63286300D01*
X106490271Y-103723771D02*
X116109000Y-113342500D01*
X163040300Y-54600000D02*
X166362700Y-57922300D01*
X138430000Y-53340000D02*
X138420000Y-53340000D01*
X181218200Y-65726100D02*
X186666800Y-65726100D01*
X106490271Y-59879729D02*
X106490271Y-103723771D01*
D26*
%TO.N,GND*%
X146180500Y-78235500D02*
X155572500Y-87627500D01*
X155577500Y-87627500D02*
X158750000Y-90800000D01*
X158750000Y-93340000D02*
X154940000Y-97150000D01*
X153670000Y-57140000D02*
X153670000Y-59680000D01*
X155572500Y-87627500D02*
X155577500Y-87627500D01*
X153675000Y-85725000D02*
X155577500Y-87627500D01*
X129540000Y-81280000D02*
X127254000Y-78994000D01*
X151090000Y-116840000D02*
X149860000Y-118070000D01*
X153670000Y-59680000D02*
X153670000Y-62220000D01*
X146180500Y-69709500D02*
X146180500Y-78235500D01*
X153670000Y-54600000D02*
X153670000Y-57140000D01*
X154940000Y-97150000D02*
X154940000Y-113030000D01*
X154940000Y-113030000D02*
X151130000Y-116840000D01*
X127254000Y-65278000D02*
X125476000Y-63500000D01*
X127254000Y-78994000D02*
X127254000Y-65278000D01*
X151130000Y-116840000D02*
X151090000Y-116840000D01*
X125476000Y-63500000D02*
X124460000Y-63500000D01*
X153670000Y-62220000D02*
X146180500Y-69709500D01*
X143510000Y-85725000D02*
X153675000Y-85725000D01*
X158750000Y-90800000D02*
X158750000Y-93340000D01*
D25*
%TO.N,+5V*%
X145415000Y-113030000D02*
X146685000Y-113030000D01*
X146685000Y-113030000D02*
X147320000Y-113030000D01*
X168295000Y-123080000D02*
X166590700Y-123080000D01*
X143510000Y-111125000D02*
X143510000Y-103505000D01*
X142240000Y-88265000D02*
X143510000Y-88265000D01*
X208108800Y-101069700D02*
X211325500Y-97853000D01*
X205750000Y-87630000D02*
X205750000Y-88530100D01*
X144712081Y-95885000D02*
X143510000Y-95885000D01*
X205750000Y-88530100D02*
X202717300Y-88530100D01*
X202087900Y-89159500D02*
X199542400Y-86614000D01*
X146050000Y-94547081D02*
X144712081Y-95885000D01*
X143510000Y-83185000D02*
X142307919Y-83185000D01*
X205750000Y-101069700D02*
X208108800Y-101069700D01*
X146050000Y-89535000D02*
X146050000Y-94547081D01*
X211325500Y-93917400D02*
X205938200Y-88530100D01*
X152400000Y-119380000D02*
X151113632Y-120666368D01*
X146066368Y-120666368D02*
X145415000Y-120015000D01*
X146050000Y-96520000D02*
X146050000Y-102870000D01*
X145415000Y-120015000D02*
X145415000Y-114300000D01*
X205750000Y-102870000D02*
X205750000Y-101069700D01*
X202087900Y-89159500D02*
X202087900Y-89783500D01*
X152400000Y-119380000D02*
X157362700Y-124342700D01*
X144780000Y-88265000D02*
X146050000Y-89535000D01*
X141710000Y-83782919D02*
X141710000Y-87735000D01*
X141710000Y-87735000D02*
X142240000Y-88265000D01*
X145415000Y-103505000D02*
X143510000Y-103505000D01*
X202717300Y-88530100D02*
X202087900Y-89159500D01*
X143510000Y-95885000D02*
X145415000Y-95885000D01*
X205938200Y-88530100D02*
X205750000Y-88530100D01*
X151113632Y-120666368D02*
X146066368Y-120666368D01*
X145415000Y-95885000D02*
X146050000Y-96520000D01*
X143510000Y-88265000D02*
X144780000Y-88265000D01*
X142307919Y-83185000D02*
X141710000Y-83782919D01*
X143510000Y-111125000D02*
X145415000Y-113030000D01*
X157362700Y-124342700D02*
X165328000Y-124342700D01*
X202087900Y-89783500D02*
X202082400Y-89789000D01*
X211325500Y-97853000D02*
X211325500Y-93917400D01*
X165328000Y-124342700D02*
X166590700Y-123080000D01*
X146050000Y-102870000D02*
X145415000Y-103505000D01*
X145415000Y-114300000D02*
X146685000Y-113030000D01*
D26*
%TO.N,/Solenoid*%
X109220000Y-88900000D02*
X119380000Y-99060000D01*
X119380000Y-99060000D02*
X129540000Y-99060000D01*
%TO.N,/Step1*%
X129540000Y-93980000D02*
X129540000Y-96520000D01*
%TO.N,/Step2*%
X109220000Y-78740000D02*
X120477100Y-89997100D01*
X127317600Y-89997100D02*
X128414700Y-88900000D01*
X129540000Y-88900000D02*
X128414700Y-88900000D01*
X120477100Y-89997100D02*
X127317600Y-89997100D01*
X129540000Y-86360000D02*
X129540000Y-88900000D01*
%TO.N,/Direction2*%
X128414700Y-83820000D02*
X128414700Y-83960700D01*
X124878500Y-87496900D02*
X120516900Y-87496900D01*
X120516900Y-87496900D02*
X109220000Y-76200000D01*
X129540000Y-83820000D02*
X128414700Y-83820000D01*
X128414700Y-83960700D02*
X124878500Y-87496900D01*
%TO.N,Net-(IC2-Pad11)*%
X190412200Y-95647200D02*
X190412200Y-99698900D01*
X189382400Y-101854000D02*
X189382400Y-100728700D01*
X190412200Y-99698900D02*
X189382400Y-100728700D01*
X189380000Y-94615000D02*
X190412200Y-95647200D01*
%TO.N,Net-(IC2-Pad16)*%
X190891100Y-115191400D02*
X190891100Y-109910600D01*
X191922400Y-117348000D02*
X191922400Y-116222700D01*
X190946700Y-109855000D02*
X191920000Y-109855000D01*
X191922400Y-116222700D02*
X190891100Y-115191400D01*
X187639900Y-106659400D02*
X177858300Y-106659400D01*
X190891100Y-109910600D02*
X187639900Y-106659400D01*
X190891100Y-109910600D02*
X190946700Y-109855000D01*
%TO.N,/Relay1*%
X130665300Y-69269200D02*
X129821400Y-68425300D01*
X129717000Y-85234600D02*
X130665300Y-84286300D01*
X130665300Y-84286300D02*
X130665300Y-69269200D01*
X129540000Y-62220000D02*
X129540000Y-64760000D01*
X129821400Y-68425300D02*
X129540000Y-68425300D01*
X124460000Y-88900000D02*
X128125400Y-85234600D01*
X129540000Y-67300000D02*
X129540000Y-68425300D01*
X128125400Y-85234600D02*
X129717000Y-85234600D01*
X129540000Y-67300000D02*
X129540000Y-64760000D01*
%TO.N,/Relay2*%
X122174000Y-84074000D02*
X124460000Y-86360000D01*
X129540000Y-57140000D02*
X129540000Y-59680000D01*
X125740000Y-57140000D02*
X122174000Y-60706000D01*
X122174000Y-60706000D02*
X122174000Y-84074000D01*
X129540000Y-57140000D02*
X125740000Y-57140000D01*
%TO.N,/Relay3*%
X153670000Y-69840000D02*
X153670000Y-72380000D01*
%TO.N,Net-(IC3-Pad14)*%
X178545000Y-59035000D02*
X172147500Y-65432500D01*
X172147500Y-65432500D02*
X170595300Y-65432500D01*
%TO.N,Net-(IC3-Pad16)*%
X189382400Y-86614000D02*
X189382400Y-85488700D01*
X189380000Y-79375000D02*
X190412200Y-80407200D01*
X190412200Y-84458900D02*
X189382400Y-85488700D01*
X190412200Y-80407200D02*
X190412200Y-84458900D01*
%TO.N,Net-(IC3-Pad17)*%
X181760000Y-79375000D02*
X179226000Y-76841000D01*
X151511200Y-76841000D02*
X146905500Y-72235300D01*
X179226000Y-76841000D02*
X151511200Y-76841000D01*
%TO.N,/Relay4*%
X153670000Y-64760000D02*
X153670000Y-67300000D01*
%TO.N,Net-(J13-Pad2)*%
X177454400Y-68104400D02*
X178545000Y-69195000D01*
X166690900Y-68104400D02*
X177454400Y-68104400D01*
X161290000Y-72380000D02*
X162415300Y-72380000D01*
X162415300Y-72380000D02*
X166690900Y-68104400D01*
%TO.N,Net-(J12-Pad2)*%
X167750000Y-69195000D02*
X162415300Y-74529700D01*
X162415300Y-74529700D02*
X162415300Y-74920000D01*
X161290000Y-74920000D02*
X162415300Y-74920000D01*
%TO.N,/Stp_B*%
X142884865Y-92719865D02*
X143510000Y-93345000D01*
X108892000Y-87810000D02*
X112702000Y-87810000D01*
X108130000Y-87048000D02*
X108892000Y-87810000D01*
X108130000Y-64590000D02*
X108130000Y-87048000D01*
X117611865Y-92719865D02*
X142884865Y-92719865D01*
X112702000Y-87810000D02*
X117611865Y-92719865D01*
X109220000Y-63500000D02*
X108130000Y-64590000D01*
%TO.N,/Stp_A*%
X124157000Y-118663900D02*
X122717500Y-118663900D01*
X122717500Y-118663900D02*
X121920000Y-117866400D01*
X109332800Y-90010600D02*
X108788700Y-90010600D01*
X142334700Y-100375300D02*
X142334700Y-100486200D01*
X121920000Y-117866400D02*
X121920000Y-102597800D01*
X107565272Y-62614728D02*
X109220000Y-60960000D01*
X143510000Y-98425000D02*
X143510000Y-99600300D01*
X143510000Y-99600300D02*
X143109700Y-99600300D01*
X107565272Y-88787172D02*
X107565272Y-62614728D01*
X142334700Y-100486200D02*
X124157000Y-118663900D01*
X121920000Y-102597800D02*
X109332800Y-90010600D01*
X143109700Y-99600300D02*
X142334700Y-100375300D01*
X108788700Y-90010600D02*
X107565272Y-88787172D01*
D27*
%TO.N,/Motor_OutAN*%
X178693900Y-110980400D02*
X179443200Y-110980400D01*
X165818700Y-96561000D02*
X177950000Y-108692300D01*
X180634600Y-112171800D02*
X180634600Y-113220300D01*
X189290000Y-123080000D02*
X189290000Y-121875700D01*
X165818700Y-92788700D02*
X165818700Y-96561000D01*
X179443200Y-110980400D02*
X180634600Y-112171800D01*
X177950000Y-110236500D02*
X178693900Y-110980400D01*
X158750000Y-85720000D02*
X165818700Y-92788700D01*
X177950000Y-108692300D02*
X177950000Y-110236500D01*
X180634600Y-113220300D02*
X189290000Y-121875700D01*
%TO.N,/Motor_OutA*%
X160764200Y-90274200D02*
X158750000Y-88260000D01*
X176903200Y-110980400D02*
X176153900Y-110980400D01*
X191790000Y-123080000D02*
X190585600Y-124284400D01*
X175410000Y-109526800D02*
X160764200Y-94881000D01*
X188331100Y-124284400D02*
X177805300Y-113758600D01*
X177805300Y-111882500D02*
X176903200Y-110980400D01*
X160764200Y-94881000D02*
X160764200Y-90274200D01*
X190585600Y-124284400D02*
X188331100Y-124284400D01*
X176153900Y-110980400D02*
X175410000Y-110236500D01*
X177805300Y-113758600D02*
X177805300Y-111882500D01*
X175410000Y-110236500D02*
X175410000Y-109526800D01*
%TO.N,/Motor_OutB*%
X172870000Y-109465400D02*
X161824600Y-98420000D01*
X185143000Y-125036900D02*
X172870000Y-112763900D01*
X172870000Y-112763900D02*
X172870000Y-109465400D01*
X192333100Y-125036900D02*
X185143000Y-125036900D01*
X194290000Y-123080000D02*
X192333100Y-125036900D01*
X161824600Y-98420000D02*
X158750000Y-98420000D01*
%TD*%
M02*
