M48
; DRILL file {KiCad (6.0.7)} date Sun Apr  9 01:21:28 2023
; FORMAT={-:-/ absolute / inch / decimal}
; #@! TF.CreationDate,2023-04-09T01:21:28+09:00
; #@! TF.GenerationSoftware,Kicad,Pcbnew,(6.0.7)
; #@! TF.FileFunction,Plated,1,2,PTH
FMAT,2
INCH
; #@! TA.AperFunction,Plated,PTH,ViaDrill
T1C0.0157
; #@! TA.AperFunction,Plated,PTH,ComponentDrill
T2C0.0315
; #@! TA.AperFunction,Plated,PTH,ComponentDrill
T3C0.0394
; #@! TA.AperFunction,Plated,PTH,ComponentDrill
T4C0.0402
; #@! TA.AperFunction,Plated,PTH,ViaDrill
T5C0.1181
%
G90
G05
T1
X5.2564Y-2.3473
X5.3479Y-2.1931
X5.7724Y-3.4408
X5.773Y-3.9061
X5.818Y-3.3985
X6.1012Y-3.2467
X6.2575Y-3.5696
X6.2579Y-3.6096
X6.2829Y-3.1622
X6.3256Y-3.6433
T2
X4.75Y-4.625
X4.75Y-4.8219
X4.85Y-4.3281
X4.85Y-4.525
X4.85Y-4.625
X4.85Y-4.8219
X5.1004Y-2.1504
X5.1004Y-2.2504
X5.1004Y-2.3504
X5.1004Y-2.4504
X5.1004Y-2.5504
X5.1004Y-2.6504
X5.1004Y-2.7504
X5.1004Y-2.8504
X5.1004Y-2.9504
X5.1004Y-3.2004
X5.1004Y-3.3004
X5.1004Y-3.4004
X5.1004Y-3.5004
X5.1004Y-3.6004
X5.1004Y-3.7004
X5.1004Y-3.8004
X5.1004Y-3.9004
X5.1004Y-4.0004
X5.1016Y-4.825
X5.2984Y-4.825
X5.4Y-4.825
X5.4004Y-2.1504
X5.4004Y-2.2504
X5.4004Y-2.3504
X5.4004Y-2.4504
X5.4004Y-2.5504
X5.4004Y-2.6504
X5.4004Y-2.7504
X5.4004Y-2.8504
X5.4004Y-2.9504
X5.4004Y-3.2004
X5.4004Y-3.3004
X5.4004Y-3.4004
X5.4004Y-3.5004
X5.4004Y-3.6004
X5.4004Y-3.7004
X5.4004Y-3.8004
X5.4004Y-3.9004
X5.4004Y-4.0004
X5.6504Y-3.2004
X5.6504Y-3.3004
X5.6504Y-3.4004
X5.6504Y-3.5004
X5.6504Y-3.6004
X5.6504Y-3.7004
X5.6504Y-3.8004
X5.6504Y-3.9004
X5.6504Y-4.0004
X5.8Y-4.45
X5.8Y-4.6469
X5.8Y-4.825
X5.9Y-4.4516
X5.9Y-4.6484
X5.9504Y-3.2004
X5.9504Y-3.3004
X5.9504Y-3.4004
X5.9504Y-3.5004
X5.9504Y-3.6004
X5.9504Y-3.7004
X5.9504Y-3.8004
X5.9504Y-3.9004
X5.9504Y-4.0004
X6.0Y-4.625
X6.0Y-4.825
X6.4Y-4.625
X6.4Y-4.825
X6.5856Y-4.875
X6.6069Y-4.675
X6.6644Y-4.875
X6.6856Y-4.675
X6.75Y-2.3356
X6.75Y-2.4144
X6.75Y-2.7356
X6.75Y-2.8144
X6.7644Y-4.675
X6.8Y-4.875
X6.8431Y-4.675
X6.8787Y-4.875
X7.0Y-2.3356
X7.0Y-2.4144
X7.0Y-2.7356
X7.0Y-2.8144
X7.25Y-2.3356
X7.25Y-2.4144
X7.25Y-2.7356
X7.25Y-2.8144
X7.5Y-2.3356
X7.5Y-2.4144
X7.5Y-2.7356
X7.5Y-2.8144
X7.75Y-2.3356
X7.75Y-2.4144
X7.75Y-2.7356
X7.75Y-2.8144
T3
X5.8Y-2.1
X5.8Y-2.2
X5.8Y-2.3
X5.8Y-2.4
X5.8Y-2.5
X5.8Y-2.6
X5.8Y-2.7
X5.8Y-2.8
X5.8Y-2.9
X5.8Y-3.0
X6.275Y-3.225
X6.275Y-3.325
X6.275Y-3.675
X6.275Y-3.775
X6.275Y-4.125
X6.275Y-4.225
X6.375Y-3.225
X6.375Y-3.325
X6.375Y-3.675
X6.375Y-3.775
X6.375Y-4.125
X6.375Y-4.225
X6.4Y-2.2998
X6.4Y-2.3998
X6.4Y-2.4998
X6.4Y-2.5998
X6.4Y-2.6998
X6.4Y-2.7998
X6.475Y-3.225
X6.475Y-3.325
X6.475Y-3.675
X6.475Y-3.775
X6.475Y-4.125
X6.475Y-4.225
X6.575Y-3.225
X6.575Y-3.325
X6.575Y-3.675
X6.575Y-3.775
X6.575Y-4.125
X6.575Y-4.225
X6.675Y-3.225
X6.675Y-3.325
X6.675Y-3.675
X6.675Y-3.775
X6.675Y-4.125
X6.675Y-4.225
X6.775Y-3.225
X6.775Y-3.325
X6.775Y-3.675
X6.775Y-3.775
X6.775Y-4.125
X6.775Y-4.225
X6.875Y-3.225
X6.875Y-3.325
X6.875Y-3.675
X6.875Y-3.775
X6.875Y-4.125
X6.875Y-4.225
X6.975Y-3.225
X6.975Y-3.325
X6.975Y-3.675
X6.975Y-3.775
X6.975Y-4.125
X6.975Y-4.225
X7.075Y-3.225
X7.075Y-3.325
X7.075Y-3.675
X7.075Y-3.775
X7.075Y-4.125
X7.075Y-4.225
X7.175Y-3.225
X7.175Y-3.325
X7.175Y-3.675
X7.175Y-3.775
X7.175Y-4.125
X7.175Y-4.225
X7.2Y-4.425
X7.2Y-4.625
X7.2Y-4.825
X7.275Y-3.225
X7.275Y-3.325
X7.275Y-3.675
X7.275Y-3.775
X7.275Y-4.125
X7.275Y-4.225
X7.3Y-4.425
X7.3Y-4.625
X7.3Y-4.825
X7.375Y-3.225
X7.375Y-3.325
X7.375Y-3.675
X7.375Y-3.775
X7.375Y-4.125
X7.375Y-4.225
X7.4Y-4.425
X7.4Y-4.625
X7.4Y-4.825
X7.475Y-3.225
X7.475Y-3.325
X7.475Y-3.675
X7.475Y-3.775
X7.475Y-4.125
X7.475Y-4.225
X7.5Y-4.425
X7.5Y-4.625
X7.5Y-4.825
X7.575Y-3.225
X7.575Y-3.325
X7.575Y-3.675
X7.575Y-3.775
X7.575Y-4.125
X7.575Y-4.225
X7.675Y-3.225
X7.675Y-3.325
X7.675Y-3.675
X7.675Y-3.775
X7.675Y-4.125
X7.675Y-4.225
X7.775Y-3.225
X7.775Y-3.325
X7.775Y-3.675
X7.775Y-3.775
X7.775Y-4.125
X7.775Y-4.225
X7.875Y-3.225
X7.875Y-3.325
X7.875Y-3.675
X7.875Y-3.775
X7.875Y-4.125
X7.875Y-4.225
T4
X4.3Y-2.4
X4.3Y-2.5
X4.3Y-2.6
X4.3Y-2.7
X4.3Y-2.8
X4.3Y-2.9
X4.3Y-3.0
X4.3Y-3.1
X4.3Y-3.2
X4.3Y-3.3
X4.3Y-3.4
X4.3Y-3.5
X4.3Y-3.6
X4.3Y-3.7
X4.3Y-3.8
X4.9Y-2.4
X4.9Y-2.5
X4.9Y-2.6
X4.9Y-2.7
X4.9Y-2.8
X4.9Y-2.9
X4.9Y-3.0
X4.9Y-3.1
X4.9Y-3.2
X4.9Y-3.3
X4.9Y-3.4
X4.9Y-3.5
X4.9Y-3.6
X4.9Y-3.7
X4.9Y-3.8
T5
X4.125Y-2.125
X4.125Y-4.875
X7.925Y-2.125
X7.925Y-4.875
T3
G00X4.335Y-4.4229
M15
G01X4.335Y-4.5017
M16
G05
G00X4.4137Y-4.6473
M15
G01X4.4925Y-4.6473
M16
G05
G00X4.5712Y-4.4229
M15
G01X4.5712Y-4.5017
M16
G05
T0
M30
