%TF.GenerationSoftware,KiCad,Pcbnew,(6.0.7)*%
%TF.CreationDate,2023-04-18T23:41:52+09:00*%
%TF.ProjectId,EleMagDriver,456c654d-6167-4447-9269-7665722e6b69,rev?*%
%TF.SameCoordinates,Original*%
%TF.FileFunction,Soldermask,Top*%
%TF.FilePolarity,Negative*%
%FSLAX46Y46*%
G04 Gerber Fmt 4.6, Leading zero omitted, Abs format (unit mm)*
G04 Created by KiCad (PCBNEW (6.0.7)) date 2023-04-18 23:41:52*
%MOMM*%
%LPD*%
G01*
G04 APERTURE LIST*
G04 Aperture macros list*
%AMRoundRect*
0 Rectangle with rounded corners*
0 $1 Rounding radius*
0 $2 $3 $4 $5 $6 $7 $8 $9 X,Y pos of 4 corners*
0 Add a 4 corners polygon primitive as box body*
4,1,4,$2,$3,$4,$5,$6,$7,$8,$9,$2,$3,0*
0 Add four circle primitives for the rounded corners*
1,1,$1+$1,$2,$3*
1,1,$1+$1,$4,$5*
1,1,$1+$1,$6,$7*
1,1,$1+$1,$8,$9*
0 Add four rect primitives between the rounded corners*
20,1,$1+$1,$2,$3,$4,$5,0*
20,1,$1+$1,$4,$5,$6,$7,0*
20,1,$1+$1,$6,$7,$8,$9,0*
20,1,$1+$1,$8,$9,$2,$3,0*%
G04 Aperture macros list end*
%ADD10R,1.508000X1.508000*%
%ADD11C,1.508000*%
%ADD12C,1.600000*%
%ADD13O,1.600000X1.600000*%
%ADD14R,1.700000X1.700000*%
%ADD15O,1.700000X1.700000*%
%ADD16R,3.500000X3.500000*%
%ADD17RoundRect,0.750000X-0.750000X-1.000000X0.750000X-1.000000X0.750000X1.000000X-0.750000X1.000000X0*%
%ADD18RoundRect,0.875000X-0.875000X-0.875000X0.875000X-0.875000X0.875000X0.875000X-0.875000X0.875000X0*%
%ADD19R,1.350000X1.350000*%
%ADD20C,1.350000*%
%ADD21R,1.525000X0.700000*%
%ADD22R,2.400000X3.200000*%
%ADD23R,3.200000X5.100000*%
%ADD24R,1.530000X1.530000*%
%ADD25C,1.530000*%
%ADD26R,1.600000X1.600000*%
G04 APERTURE END LIST*
D10*
%TO.C,J14*%
X189340000Y-66695000D03*
D11*
X189340000Y-69195000D03*
%TD*%
D12*
%TO.C,R5*%
X179222400Y-117348000D03*
D13*
X189382400Y-117348000D03*
%TD*%
D14*
%TO.C,J17*%
X205750000Y-118110000D03*
D15*
X208290000Y-118110000D03*
X210830000Y-118110000D03*
X213370000Y-118110000D03*
%TD*%
D10*
%TO.C,J13*%
X178545000Y-66695000D03*
D11*
X178545000Y-69195000D03*
%TD*%
D16*
%TO.C,J1*%
X116109000Y-113342500D03*
D17*
X110109000Y-113342500D03*
D18*
X113109000Y-118042500D03*
%TD*%
D10*
%TO.C,J10*%
X200135000Y-56535000D03*
D11*
X200135000Y-59035000D03*
%TD*%
D19*
%TO.C,J20*%
X169060000Y-97155000D03*
D20*
X169060000Y-94615000D03*
X171600000Y-97155000D03*
X171600000Y-94615000D03*
X174140000Y-97155000D03*
X174140000Y-94615000D03*
X176680000Y-97155000D03*
X176680000Y-94615000D03*
X179220000Y-97155000D03*
X179220000Y-94615000D03*
X181760000Y-97155000D03*
X181760000Y-94615000D03*
X184300000Y-97155000D03*
X184300000Y-94615000D03*
X186840000Y-97155000D03*
X186840000Y-94615000D03*
X189380000Y-97155000D03*
X189380000Y-94615000D03*
X191920000Y-97155000D03*
X191920000Y-94615000D03*
X194460000Y-97155000D03*
X194460000Y-94615000D03*
X197000000Y-97155000D03*
X197000000Y-94615000D03*
X199540000Y-97155000D03*
X199540000Y-94615000D03*
X202080000Y-97155000D03*
X202080000Y-94615000D03*
X204620000Y-97155000D03*
X204620000Y-94615000D03*
X207160000Y-97155000D03*
X207160000Y-94615000D03*
X209700000Y-97155000D03*
X209700000Y-94615000D03*
%TD*%
D12*
%TO.C,C4*%
X129580000Y-122555000D03*
X134580000Y-122555000D03*
%TD*%
%TO.C,C3*%
X123190000Y-114935000D03*
X123190000Y-109935000D03*
%TD*%
D14*
%TO.C,J3*%
X158750000Y-85720000D03*
D15*
X158750000Y-88260000D03*
X158750000Y-90800000D03*
X158750000Y-93340000D03*
X158750000Y-95880000D03*
X158750000Y-98420000D03*
%TD*%
D10*
%TO.C,J8*%
X178545000Y-56535000D03*
D11*
X178545000Y-59035000D03*
%TD*%
D19*
%TO.C,J18*%
X169060000Y-112395000D03*
D20*
X169060000Y-109855000D03*
X171600000Y-112395000D03*
X171600000Y-109855000D03*
X174140000Y-112395000D03*
X174140000Y-109855000D03*
X176680000Y-112395000D03*
X176680000Y-109855000D03*
X179220000Y-112395000D03*
X179220000Y-109855000D03*
X181760000Y-112395000D03*
X181760000Y-109855000D03*
X184300000Y-112395000D03*
X184300000Y-109855000D03*
X186840000Y-112395000D03*
X186840000Y-109855000D03*
X189380000Y-112395000D03*
X189380000Y-109855000D03*
X191920000Y-112395000D03*
X191920000Y-109855000D03*
X194460000Y-112395000D03*
X194460000Y-109855000D03*
X197000000Y-112395000D03*
X197000000Y-109855000D03*
X199540000Y-112395000D03*
X199540000Y-109855000D03*
X202080000Y-112395000D03*
X202080000Y-109855000D03*
X204620000Y-112395000D03*
X204620000Y-109855000D03*
X207160000Y-112395000D03*
X207160000Y-109855000D03*
X209700000Y-112395000D03*
X209700000Y-109855000D03*
%TD*%
D14*
%TO.C,J21*%
X205750000Y-87630000D03*
D15*
X208290000Y-87630000D03*
X210830000Y-87630000D03*
X213370000Y-87630000D03*
%TD*%
D10*
%TO.C,J9*%
X189340000Y-56535000D03*
D11*
X189340000Y-59035000D03*
%TD*%
D12*
%TO.C,C6*%
X147320000Y-113030000D03*
X147320000Y-118030000D03*
%TD*%
D10*
%TO.C,J5*%
X178455000Y-123080000D03*
D11*
X180955000Y-123080000D03*
%TD*%
D12*
%TO.C,R8*%
X202082400Y-89789000D03*
D13*
X191922400Y-89789000D03*
%TD*%
D10*
%TO.C,J6*%
X189290000Y-123080000D03*
D11*
X191790000Y-123080000D03*
X194290000Y-123080000D03*
X196790000Y-123080000D03*
%TD*%
D14*
%TO.C,J2*%
X143510000Y-80645000D03*
D15*
X143510000Y-83185000D03*
X143510000Y-85725000D03*
X143510000Y-88265000D03*
X143510000Y-90805000D03*
X143510000Y-93345000D03*
X143510000Y-95885000D03*
X143510000Y-98425000D03*
X143510000Y-100965000D03*
X143510000Y-103505000D03*
%TD*%
D12*
%TO.C,R3*%
X162560000Y-122555000D03*
D13*
X152400000Y-122555000D03*
%TD*%
D12*
%TO.C,C5*%
X149860000Y-113070000D03*
X149860000Y-118070000D03*
%TD*%
D21*
%TO.C,IC1*%
X125558000Y-114935000D03*
X125558000Y-116205000D03*
X125558000Y-117475000D03*
X125558000Y-118745000D03*
X130982000Y-118745000D03*
X130982000Y-117475000D03*
X130982000Y-116205000D03*
X130982000Y-114935000D03*
D22*
X128270000Y-116840000D03*
%TD*%
D12*
%TO.C,R4*%
X202082400Y-117348000D03*
D13*
X191922400Y-117348000D03*
%TD*%
D10*
%TO.C,J7*%
X167750000Y-56535000D03*
D11*
X167750000Y-59035000D03*
%TD*%
D10*
%TO.C,J4*%
X168295000Y-123080000D03*
D11*
X170795000Y-123080000D03*
%TD*%
D12*
%TO.C,C2*%
X123190000Y-117475000D03*
X123190000Y-122475000D03*
%TD*%
D19*
%TO.C,J22*%
X169060000Y-81915000D03*
D20*
X169060000Y-79375000D03*
X171600000Y-81915000D03*
X171600000Y-79375000D03*
X174140000Y-81915000D03*
X174140000Y-79375000D03*
X176680000Y-81915000D03*
X176680000Y-79375000D03*
X179220000Y-81915000D03*
X179220000Y-79375000D03*
X181760000Y-81915000D03*
X181760000Y-79375000D03*
X184300000Y-81915000D03*
X184300000Y-79375000D03*
X186840000Y-81915000D03*
X186840000Y-79375000D03*
X189380000Y-81915000D03*
X189380000Y-79375000D03*
X191920000Y-81915000D03*
X191920000Y-79375000D03*
X194460000Y-81915000D03*
X194460000Y-79375000D03*
X197000000Y-81915000D03*
X197000000Y-79375000D03*
X199540000Y-81915000D03*
X199540000Y-79375000D03*
X202080000Y-81915000D03*
X202080000Y-79375000D03*
X204620000Y-81915000D03*
X204620000Y-79375000D03*
X207160000Y-81915000D03*
X207160000Y-79375000D03*
X209700000Y-81915000D03*
X209700000Y-79375000D03*
%TD*%
D12*
%TO.C,R6*%
X202082400Y-105054400D03*
D13*
X191922400Y-105054400D03*
%TD*%
D12*
%TO.C,R1*%
X137160000Y-122555000D03*
D13*
X147320000Y-122555000D03*
%TD*%
D23*
%TO.C,L1*%
X134015000Y-113030000D03*
X144115000Y-113030000D03*
%TD*%
D10*
%TO.C,J16*%
X210930000Y-66695000D03*
D11*
X210930000Y-69195000D03*
%TD*%
D12*
%TO.C,R2*%
X152400000Y-119380000D03*
D13*
X162560000Y-119380000D03*
%TD*%
D14*
%TO.C,J19*%
X205750000Y-102870000D03*
D15*
X208290000Y-102870000D03*
X210830000Y-102870000D03*
X213370000Y-102870000D03*
%TD*%
D12*
%TO.C,R7*%
X199542400Y-101854000D03*
D13*
X189382400Y-101854000D03*
%TD*%
D10*
%TO.C,J12*%
X167750000Y-66695000D03*
D11*
X167750000Y-69195000D03*
%TD*%
D12*
%TO.C,C1*%
X120650000Y-117475000D03*
X120650000Y-122475000D03*
%TD*%
D10*
%TO.C,J15*%
X200135000Y-66695000D03*
D11*
X200135000Y-69195000D03*
%TD*%
D12*
%TO.C,R9*%
X199542400Y-86614000D03*
D13*
X189382400Y-86614000D03*
%TD*%
D24*
%TO.C,U1*%
X109220000Y-60960000D03*
D25*
X109220000Y-63500000D03*
X109220000Y-66040000D03*
X109220000Y-68580000D03*
X109220000Y-71120000D03*
X109220000Y-73660000D03*
X109220000Y-76200000D03*
X109220000Y-78740000D03*
X109220000Y-81280000D03*
X109220000Y-83820000D03*
X109220000Y-86360000D03*
X109220000Y-88900000D03*
X109220000Y-91440000D03*
X109220000Y-93980000D03*
X109220000Y-96520000D03*
D24*
X124460000Y-60960000D03*
D25*
X124460000Y-63500000D03*
X124460000Y-66040000D03*
X124460000Y-68580000D03*
X124460000Y-71120000D03*
X124460000Y-73660000D03*
X124460000Y-76200000D03*
X124460000Y-78740000D03*
X124460000Y-81280000D03*
X124460000Y-83820000D03*
X124460000Y-86360000D03*
X124460000Y-88900000D03*
X124460000Y-91440000D03*
X124460000Y-93980000D03*
X124460000Y-96520000D03*
%TD*%
D10*
%TO.C,J11*%
X210930000Y-56535000D03*
D11*
X210930000Y-59035000D03*
%TD*%
D26*
%TO.C,IC3*%
X129540000Y-74920000D03*
D13*
X129540000Y-72380000D03*
X129540000Y-69840000D03*
X129540000Y-67300000D03*
X129540000Y-64760000D03*
X129540000Y-62220000D03*
X129540000Y-59680000D03*
X129540000Y-57140000D03*
X129540000Y-54600000D03*
X137160000Y-54600000D03*
X137160000Y-57140000D03*
X137160000Y-59680000D03*
X137160000Y-62220000D03*
X137160000Y-64760000D03*
X137160000Y-67300000D03*
X137160000Y-69840000D03*
X137160000Y-72380000D03*
X137160000Y-74920000D03*
%TD*%
D26*
%TO.C,IC2*%
X129540000Y-101600000D03*
D13*
X129540000Y-99060000D03*
X129540000Y-96520000D03*
X129540000Y-93980000D03*
X129540000Y-91440000D03*
X129540000Y-88900000D03*
X129540000Y-86360000D03*
X129540000Y-83820000D03*
X129540000Y-81280000D03*
X137160000Y-81280000D03*
X137160000Y-83820000D03*
X137160000Y-86360000D03*
X137160000Y-88900000D03*
X137160000Y-91440000D03*
X137160000Y-93980000D03*
X137160000Y-96520000D03*
X137160000Y-99060000D03*
X137160000Y-101600000D03*
%TD*%
D26*
%TO.C,IC4*%
X153670000Y-74920000D03*
D13*
X153670000Y-72380000D03*
X153670000Y-69840000D03*
X153670000Y-67300000D03*
X153670000Y-64760000D03*
X153670000Y-62220000D03*
X153670000Y-59680000D03*
X153670000Y-57140000D03*
X153670000Y-54600000D03*
X161290000Y-54600000D03*
X161290000Y-57140000D03*
X161290000Y-59680000D03*
X161290000Y-62220000D03*
X161290000Y-64760000D03*
X161290000Y-67300000D03*
X161290000Y-69840000D03*
X161290000Y-72380000D03*
X161290000Y-74920000D03*
%TD*%
M02*
