%TF.GenerationSoftware,KiCad,Pcbnew,(6.0.7)*%
%TF.CreationDate,2023-04-18T23:41:52+09:00*%
%TF.ProjectId,EleMagDriver,456c654d-6167-4447-9269-7665722e6b69,rev?*%
%TF.SameCoordinates,Original*%
%TF.FileFunction,Legend,Bot*%
%TF.FilePolarity,Positive*%
%FSLAX46Y46*%
G04 Gerber Fmt 4.6, Leading zero omitted, Abs format (unit mm)*
G04 Created by KiCad (PCBNEW (6.0.7)) date 2023-04-18 23:41:52*
%MOMM*%
%LPD*%
G01*
G04 APERTURE LIST*
%ADD10C,0.150000*%
%ADD11C,0.120000*%
G04 APERTURE END LIST*
D10*
%TO.C,IC3*%
X134326190Y-77702380D02*
X134326190Y-76702380D01*
X133278571Y-77607142D02*
X133326190Y-77654761D01*
X133469047Y-77702380D01*
X133564285Y-77702380D01*
X133707142Y-77654761D01*
X133802380Y-77559523D01*
X133850000Y-77464285D01*
X133897619Y-77273809D01*
X133897619Y-77130952D01*
X133850000Y-76940476D01*
X133802380Y-76845238D01*
X133707142Y-76750000D01*
X133564285Y-76702380D01*
X133469047Y-76702380D01*
X133326190Y-76750000D01*
X133278571Y-76797619D01*
X132945238Y-76702380D02*
X132326190Y-76702380D01*
X132659523Y-77083333D01*
X132516666Y-77083333D01*
X132421428Y-77130952D01*
X132373809Y-77178571D01*
X132326190Y-77273809D01*
X132326190Y-77511904D01*
X132373809Y-77607142D01*
X132421428Y-77654761D01*
X132516666Y-77702380D01*
X132802380Y-77702380D01*
X132897619Y-77654761D01*
X132945238Y-77607142D01*
X138445238Y-51722380D02*
X137873809Y-51722380D01*
X138159523Y-52722380D02*
X138159523Y-51722380D01*
X137207142Y-52198571D02*
X137064285Y-52246190D01*
X137016666Y-52293809D01*
X136969047Y-52389047D01*
X136969047Y-52531904D01*
X137016666Y-52627142D01*
X137064285Y-52674761D01*
X137159523Y-52722380D01*
X137540476Y-52722380D01*
X137540476Y-51722380D01*
X137207142Y-51722380D01*
X137111904Y-51770000D01*
X137064285Y-51817619D01*
X137016666Y-51912857D01*
X137016666Y-52008095D01*
X137064285Y-52103333D01*
X137111904Y-52150952D01*
X137207142Y-52198571D01*
X137540476Y-52198571D01*
X136540476Y-52722380D02*
X136540476Y-51722380D01*
X136302380Y-51722380D01*
X136159523Y-51770000D01*
X136064285Y-51865238D01*
X136016666Y-51960476D01*
X135969047Y-52150952D01*
X135969047Y-52293809D01*
X136016666Y-52484285D01*
X136064285Y-52579523D01*
X136159523Y-52674761D01*
X136302380Y-52722380D01*
X136540476Y-52722380D01*
X135111904Y-51722380D02*
X135302380Y-51722380D01*
X135397619Y-51770000D01*
X135445238Y-51817619D01*
X135540476Y-51960476D01*
X135588095Y-52150952D01*
X135588095Y-52531904D01*
X135540476Y-52627142D01*
X135492857Y-52674761D01*
X135397619Y-52722380D01*
X135207142Y-52722380D01*
X135111904Y-52674761D01*
X135064285Y-52627142D01*
X135016666Y-52531904D01*
X135016666Y-52293809D01*
X135064285Y-52198571D01*
X135111904Y-52150952D01*
X135207142Y-52103333D01*
X135397619Y-52103333D01*
X135492857Y-52150952D01*
X135540476Y-52198571D01*
X135588095Y-52293809D01*
X134635714Y-51817619D02*
X134588095Y-51770000D01*
X134492857Y-51722380D01*
X134254761Y-51722380D01*
X134159523Y-51770000D01*
X134111904Y-51817619D01*
X134064285Y-51912857D01*
X134064285Y-52008095D01*
X134111904Y-52150952D01*
X134683333Y-52722380D01*
X134064285Y-52722380D01*
X133445238Y-51722380D02*
X133350000Y-51722380D01*
X133254761Y-51770000D01*
X133207142Y-51817619D01*
X133159523Y-51912857D01*
X133111904Y-52103333D01*
X133111904Y-52341428D01*
X133159523Y-52531904D01*
X133207142Y-52627142D01*
X133254761Y-52674761D01*
X133350000Y-52722380D01*
X133445238Y-52722380D01*
X133540476Y-52674761D01*
X133588095Y-52627142D01*
X133635714Y-52531904D01*
X133683333Y-52341428D01*
X133683333Y-52103333D01*
X133635714Y-51912857D01*
X133588095Y-51817619D01*
X133540476Y-51770000D01*
X133445238Y-51722380D01*
X132540476Y-52150952D02*
X132635714Y-52103333D01*
X132683333Y-52055714D01*
X132730952Y-51960476D01*
X132730952Y-51912857D01*
X132683333Y-51817619D01*
X132635714Y-51770000D01*
X132540476Y-51722380D01*
X132350000Y-51722380D01*
X132254761Y-51770000D01*
X132207142Y-51817619D01*
X132159523Y-51912857D01*
X132159523Y-51960476D01*
X132207142Y-52055714D01*
X132254761Y-52103333D01*
X132350000Y-52150952D01*
X132540476Y-52150952D01*
X132635714Y-52198571D01*
X132683333Y-52246190D01*
X132730952Y-52341428D01*
X132730952Y-52531904D01*
X132683333Y-52627142D01*
X132635714Y-52674761D01*
X132540476Y-52722380D01*
X132350000Y-52722380D01*
X132254761Y-52674761D01*
X132207142Y-52627142D01*
X132159523Y-52531904D01*
X132159523Y-52341428D01*
X132207142Y-52246190D01*
X132254761Y-52198571D01*
X132350000Y-52150952D01*
X131826190Y-51722380D02*
X131207142Y-51722380D01*
X131540476Y-52103333D01*
X131397619Y-52103333D01*
X131302380Y-52150952D01*
X131254761Y-52198571D01*
X131207142Y-52293809D01*
X131207142Y-52531904D01*
X131254761Y-52627142D01*
X131302380Y-52674761D01*
X131397619Y-52722380D01*
X131683333Y-52722380D01*
X131778571Y-52674761D01*
X131826190Y-52627142D01*
X130826190Y-52436666D02*
X130350000Y-52436666D01*
X130921428Y-52722380D02*
X130588095Y-51722380D01*
X130254761Y-52722380D01*
X129921428Y-52722380D02*
X129921428Y-51722380D01*
X129540476Y-51722380D01*
X129445238Y-51770000D01*
X129397619Y-51817619D01*
X129350000Y-51912857D01*
X129350000Y-52055714D01*
X129397619Y-52150952D01*
X129445238Y-52198571D01*
X129540476Y-52246190D01*
X129921428Y-52246190D01*
X128397619Y-51770000D02*
X128492857Y-51722380D01*
X128635714Y-51722380D01*
X128778571Y-51770000D01*
X128873809Y-51865238D01*
X128921428Y-51960476D01*
X128969047Y-52150952D01*
X128969047Y-52293809D01*
X128921428Y-52484285D01*
X128873809Y-52579523D01*
X128778571Y-52674761D01*
X128635714Y-52722380D01*
X128540476Y-52722380D01*
X128397619Y-52674761D01*
X128350000Y-52627142D01*
X128350000Y-52293809D01*
X128540476Y-52293809D01*
%TO.C,IC2*%
X134326190Y-104382380D02*
X134326190Y-103382380D01*
X133278571Y-104287142D02*
X133326190Y-104334761D01*
X133469047Y-104382380D01*
X133564285Y-104382380D01*
X133707142Y-104334761D01*
X133802380Y-104239523D01*
X133850000Y-104144285D01*
X133897619Y-103953809D01*
X133897619Y-103810952D01*
X133850000Y-103620476D01*
X133802380Y-103525238D01*
X133707142Y-103430000D01*
X133564285Y-103382380D01*
X133469047Y-103382380D01*
X133326190Y-103430000D01*
X133278571Y-103477619D01*
X132897619Y-103477619D02*
X132850000Y-103430000D01*
X132754761Y-103382380D01*
X132516666Y-103382380D01*
X132421428Y-103430000D01*
X132373809Y-103477619D01*
X132326190Y-103572857D01*
X132326190Y-103668095D01*
X132373809Y-103810952D01*
X132945238Y-104382380D01*
X132326190Y-104382380D01*
X138445238Y-78402380D02*
X137873809Y-78402380D01*
X138159523Y-79402380D02*
X138159523Y-78402380D01*
X137207142Y-78878571D02*
X137064285Y-78926190D01*
X137016666Y-78973809D01*
X136969047Y-79069047D01*
X136969047Y-79211904D01*
X137016666Y-79307142D01*
X137064285Y-79354761D01*
X137159523Y-79402380D01*
X137540476Y-79402380D01*
X137540476Y-78402380D01*
X137207142Y-78402380D01*
X137111904Y-78450000D01*
X137064285Y-78497619D01*
X137016666Y-78592857D01*
X137016666Y-78688095D01*
X137064285Y-78783333D01*
X137111904Y-78830952D01*
X137207142Y-78878571D01*
X137540476Y-78878571D01*
X136540476Y-79402380D02*
X136540476Y-78402380D01*
X136302380Y-78402380D01*
X136159523Y-78450000D01*
X136064285Y-78545238D01*
X136016666Y-78640476D01*
X135969047Y-78830952D01*
X135969047Y-78973809D01*
X136016666Y-79164285D01*
X136064285Y-79259523D01*
X136159523Y-79354761D01*
X136302380Y-79402380D01*
X136540476Y-79402380D01*
X135111904Y-78402380D02*
X135302380Y-78402380D01*
X135397619Y-78450000D01*
X135445238Y-78497619D01*
X135540476Y-78640476D01*
X135588095Y-78830952D01*
X135588095Y-79211904D01*
X135540476Y-79307142D01*
X135492857Y-79354761D01*
X135397619Y-79402380D01*
X135207142Y-79402380D01*
X135111904Y-79354761D01*
X135064285Y-79307142D01*
X135016666Y-79211904D01*
X135016666Y-78973809D01*
X135064285Y-78878571D01*
X135111904Y-78830952D01*
X135207142Y-78783333D01*
X135397619Y-78783333D01*
X135492857Y-78830952D01*
X135540476Y-78878571D01*
X135588095Y-78973809D01*
X134635714Y-78497619D02*
X134588095Y-78450000D01*
X134492857Y-78402380D01*
X134254761Y-78402380D01*
X134159523Y-78450000D01*
X134111904Y-78497619D01*
X134064285Y-78592857D01*
X134064285Y-78688095D01*
X134111904Y-78830952D01*
X134683333Y-79402380D01*
X134064285Y-79402380D01*
X133445238Y-78402380D02*
X133350000Y-78402380D01*
X133254761Y-78450000D01*
X133207142Y-78497619D01*
X133159523Y-78592857D01*
X133111904Y-78783333D01*
X133111904Y-79021428D01*
X133159523Y-79211904D01*
X133207142Y-79307142D01*
X133254761Y-79354761D01*
X133350000Y-79402380D01*
X133445238Y-79402380D01*
X133540476Y-79354761D01*
X133588095Y-79307142D01*
X133635714Y-79211904D01*
X133683333Y-79021428D01*
X133683333Y-78783333D01*
X133635714Y-78592857D01*
X133588095Y-78497619D01*
X133540476Y-78450000D01*
X133445238Y-78402380D01*
X132540476Y-78830952D02*
X132635714Y-78783333D01*
X132683333Y-78735714D01*
X132730952Y-78640476D01*
X132730952Y-78592857D01*
X132683333Y-78497619D01*
X132635714Y-78450000D01*
X132540476Y-78402380D01*
X132350000Y-78402380D01*
X132254761Y-78450000D01*
X132207142Y-78497619D01*
X132159523Y-78592857D01*
X132159523Y-78640476D01*
X132207142Y-78735714D01*
X132254761Y-78783333D01*
X132350000Y-78830952D01*
X132540476Y-78830952D01*
X132635714Y-78878571D01*
X132683333Y-78926190D01*
X132730952Y-79021428D01*
X132730952Y-79211904D01*
X132683333Y-79307142D01*
X132635714Y-79354761D01*
X132540476Y-79402380D01*
X132350000Y-79402380D01*
X132254761Y-79354761D01*
X132207142Y-79307142D01*
X132159523Y-79211904D01*
X132159523Y-79021428D01*
X132207142Y-78926190D01*
X132254761Y-78878571D01*
X132350000Y-78830952D01*
X131826190Y-78402380D02*
X131207142Y-78402380D01*
X131540476Y-78783333D01*
X131397619Y-78783333D01*
X131302380Y-78830952D01*
X131254761Y-78878571D01*
X131207142Y-78973809D01*
X131207142Y-79211904D01*
X131254761Y-79307142D01*
X131302380Y-79354761D01*
X131397619Y-79402380D01*
X131683333Y-79402380D01*
X131778571Y-79354761D01*
X131826190Y-79307142D01*
X130826190Y-79116666D02*
X130350000Y-79116666D01*
X130921428Y-79402380D02*
X130588095Y-78402380D01*
X130254761Y-79402380D01*
X129921428Y-79402380D02*
X129921428Y-78402380D01*
X129540476Y-78402380D01*
X129445238Y-78450000D01*
X129397619Y-78497619D01*
X129350000Y-78592857D01*
X129350000Y-78735714D01*
X129397619Y-78830952D01*
X129445238Y-78878571D01*
X129540476Y-78926190D01*
X129921428Y-78926190D01*
X128397619Y-78450000D02*
X128492857Y-78402380D01*
X128635714Y-78402380D01*
X128778571Y-78450000D01*
X128873809Y-78545238D01*
X128921428Y-78640476D01*
X128969047Y-78830952D01*
X128969047Y-78973809D01*
X128921428Y-79164285D01*
X128873809Y-79259523D01*
X128778571Y-79354761D01*
X128635714Y-79402380D01*
X128540476Y-79402380D01*
X128397619Y-79354761D01*
X128350000Y-79307142D01*
X128350000Y-78973809D01*
X128540476Y-78973809D01*
%TO.C,IC4*%
X158456190Y-77702380D02*
X158456190Y-76702380D01*
X157408571Y-77607142D02*
X157456190Y-77654761D01*
X157599047Y-77702380D01*
X157694285Y-77702380D01*
X157837142Y-77654761D01*
X157932380Y-77559523D01*
X157980000Y-77464285D01*
X158027619Y-77273809D01*
X158027619Y-77130952D01*
X157980000Y-76940476D01*
X157932380Y-76845238D01*
X157837142Y-76750000D01*
X157694285Y-76702380D01*
X157599047Y-76702380D01*
X157456190Y-76750000D01*
X157408571Y-76797619D01*
X156551428Y-77035714D02*
X156551428Y-77702380D01*
X156789523Y-76654761D02*
X157027619Y-77369047D01*
X156408571Y-77369047D01*
X162575238Y-51722380D02*
X162003809Y-51722380D01*
X162289523Y-52722380D02*
X162289523Y-51722380D01*
X161337142Y-52198571D02*
X161194285Y-52246190D01*
X161146666Y-52293809D01*
X161099047Y-52389047D01*
X161099047Y-52531904D01*
X161146666Y-52627142D01*
X161194285Y-52674761D01*
X161289523Y-52722380D01*
X161670476Y-52722380D01*
X161670476Y-51722380D01*
X161337142Y-51722380D01*
X161241904Y-51770000D01*
X161194285Y-51817619D01*
X161146666Y-51912857D01*
X161146666Y-52008095D01*
X161194285Y-52103333D01*
X161241904Y-52150952D01*
X161337142Y-52198571D01*
X161670476Y-52198571D01*
X160670476Y-52722380D02*
X160670476Y-51722380D01*
X160432380Y-51722380D01*
X160289523Y-51770000D01*
X160194285Y-51865238D01*
X160146666Y-51960476D01*
X160099047Y-52150952D01*
X160099047Y-52293809D01*
X160146666Y-52484285D01*
X160194285Y-52579523D01*
X160289523Y-52674761D01*
X160432380Y-52722380D01*
X160670476Y-52722380D01*
X159241904Y-51722380D02*
X159432380Y-51722380D01*
X159527619Y-51770000D01*
X159575238Y-51817619D01*
X159670476Y-51960476D01*
X159718095Y-52150952D01*
X159718095Y-52531904D01*
X159670476Y-52627142D01*
X159622857Y-52674761D01*
X159527619Y-52722380D01*
X159337142Y-52722380D01*
X159241904Y-52674761D01*
X159194285Y-52627142D01*
X159146666Y-52531904D01*
X159146666Y-52293809D01*
X159194285Y-52198571D01*
X159241904Y-52150952D01*
X159337142Y-52103333D01*
X159527619Y-52103333D01*
X159622857Y-52150952D01*
X159670476Y-52198571D01*
X159718095Y-52293809D01*
X158765714Y-51817619D02*
X158718095Y-51770000D01*
X158622857Y-51722380D01*
X158384761Y-51722380D01*
X158289523Y-51770000D01*
X158241904Y-51817619D01*
X158194285Y-51912857D01*
X158194285Y-52008095D01*
X158241904Y-52150952D01*
X158813333Y-52722380D01*
X158194285Y-52722380D01*
X157575238Y-51722380D02*
X157480000Y-51722380D01*
X157384761Y-51770000D01*
X157337142Y-51817619D01*
X157289523Y-51912857D01*
X157241904Y-52103333D01*
X157241904Y-52341428D01*
X157289523Y-52531904D01*
X157337142Y-52627142D01*
X157384761Y-52674761D01*
X157480000Y-52722380D01*
X157575238Y-52722380D01*
X157670476Y-52674761D01*
X157718095Y-52627142D01*
X157765714Y-52531904D01*
X157813333Y-52341428D01*
X157813333Y-52103333D01*
X157765714Y-51912857D01*
X157718095Y-51817619D01*
X157670476Y-51770000D01*
X157575238Y-51722380D01*
X156670476Y-52150952D02*
X156765714Y-52103333D01*
X156813333Y-52055714D01*
X156860952Y-51960476D01*
X156860952Y-51912857D01*
X156813333Y-51817619D01*
X156765714Y-51770000D01*
X156670476Y-51722380D01*
X156480000Y-51722380D01*
X156384761Y-51770000D01*
X156337142Y-51817619D01*
X156289523Y-51912857D01*
X156289523Y-51960476D01*
X156337142Y-52055714D01*
X156384761Y-52103333D01*
X156480000Y-52150952D01*
X156670476Y-52150952D01*
X156765714Y-52198571D01*
X156813333Y-52246190D01*
X156860952Y-52341428D01*
X156860952Y-52531904D01*
X156813333Y-52627142D01*
X156765714Y-52674761D01*
X156670476Y-52722380D01*
X156480000Y-52722380D01*
X156384761Y-52674761D01*
X156337142Y-52627142D01*
X156289523Y-52531904D01*
X156289523Y-52341428D01*
X156337142Y-52246190D01*
X156384761Y-52198571D01*
X156480000Y-52150952D01*
X155956190Y-51722380D02*
X155337142Y-51722380D01*
X155670476Y-52103333D01*
X155527619Y-52103333D01*
X155432380Y-52150952D01*
X155384761Y-52198571D01*
X155337142Y-52293809D01*
X155337142Y-52531904D01*
X155384761Y-52627142D01*
X155432380Y-52674761D01*
X155527619Y-52722380D01*
X155813333Y-52722380D01*
X155908571Y-52674761D01*
X155956190Y-52627142D01*
X154956190Y-52436666D02*
X154480000Y-52436666D01*
X155051428Y-52722380D02*
X154718095Y-51722380D01*
X154384761Y-52722380D01*
X154051428Y-52722380D02*
X154051428Y-51722380D01*
X153670476Y-51722380D01*
X153575238Y-51770000D01*
X153527619Y-51817619D01*
X153480000Y-51912857D01*
X153480000Y-52055714D01*
X153527619Y-52150952D01*
X153575238Y-52198571D01*
X153670476Y-52246190D01*
X154051428Y-52246190D01*
X152527619Y-51770000D02*
X152622857Y-51722380D01*
X152765714Y-51722380D01*
X152908571Y-51770000D01*
X153003809Y-51865238D01*
X153051428Y-51960476D01*
X153099047Y-52150952D01*
X153099047Y-52293809D01*
X153051428Y-52484285D01*
X153003809Y-52579523D01*
X152908571Y-52674761D01*
X152765714Y-52722380D01*
X152670476Y-52722380D01*
X152527619Y-52674761D01*
X152480000Y-52627142D01*
X152480000Y-52293809D01*
X152670476Y-52293809D01*
D11*
%TO.C,IC3*%
X136000000Y-53270000D02*
X136000000Y-76250000D01*
X130700000Y-76250000D02*
X130700000Y-53270000D01*
X130700000Y-53270000D02*
X136000000Y-53270000D01*
X136000000Y-76250000D02*
X134350000Y-76250000D01*
X132350000Y-76250000D02*
X130700000Y-76250000D01*
X134350000Y-76250000D02*
G75*
G03*
X132350000Y-76250000I-1000000J0D01*
G01*
%TO.C,IC2*%
X132350000Y-102930000D02*
X130700000Y-102930000D01*
X136000000Y-102930000D02*
X134350000Y-102930000D01*
X136000000Y-79950000D02*
X136000000Y-102930000D01*
X130700000Y-79950000D02*
X136000000Y-79950000D01*
X130700000Y-102930000D02*
X130700000Y-79950000D01*
X134350000Y-102930000D02*
G75*
G03*
X132350000Y-102930000I-1000000J0D01*
G01*
%TO.C,IC4*%
X156480000Y-76250000D02*
X154830000Y-76250000D01*
X160130000Y-76250000D02*
X158480000Y-76250000D01*
X154830000Y-76250000D02*
X154830000Y-53270000D01*
X154830000Y-53270000D02*
X160130000Y-53270000D01*
X160130000Y-53270000D02*
X160130000Y-76250000D01*
X158480000Y-76250000D02*
G75*
G03*
X156480000Y-76250000I-1000000J0D01*
G01*
%TD*%
M02*
