M48
; DRILL file {KiCad (6.0.7)} date Tue Apr 18 23:41:57 2023
; FORMAT={-:-/ absolute / inch / decimal}
; #@! TF.CreationDate,2023-04-18T23:41:57+09:00
; #@! TF.GenerationSoftware,Kicad,Pcbnew,(6.0.7)
; #@! TF.FileFunction,Plated,1,2,PTH
FMAT,2
INCH
; #@! TA.AperFunction,Plated,PTH,ViaDrill
T1C0.0157
; #@! TA.AperFunction,Plated,PTH,ComponentDrill
T2C0.0315
; #@! TA.AperFunction,Plated,PTH,ComponentDrill
T3C0.0354
; #@! TA.AperFunction,Plated,PTH,ComponentDrill
T4C0.0394
; #@! TA.AperFunction,Plated,PTH,ComponentDrill
T5C0.0402
%
G90
G05
T1
X5.7837Y-2.8439
X6.7164Y-2.5761
X7.0023Y-4.1992
T2
X4.75Y-4.625
X4.75Y-4.8219
X4.85Y-4.3281
X4.85Y-4.525
X4.85Y-4.625
X4.85Y-4.8219
X5.1Y-2.1496
X5.1Y-2.2496
X5.1Y-2.3496
X5.1Y-2.4496
X5.1Y-2.5496
X5.1Y-2.6496
X5.1Y-2.7496
X5.1Y-2.8496
X5.1Y-2.9496
X5.1Y-3.2
X5.1Y-3.3
X5.1Y-3.4
X5.1Y-3.5
X5.1Y-3.6
X5.1Y-3.7
X5.1Y-3.8
X5.1Y-3.9
X5.1Y-4.0
X5.1016Y-4.825
X5.2984Y-4.825
X5.4Y-2.1496
X5.4Y-2.2496
X5.4Y-2.3496
X5.4Y-2.4496
X5.4Y-2.5496
X5.4Y-2.6496
X5.4Y-2.7496
X5.4Y-2.8496
X5.4Y-2.9496
X5.4Y-3.2
X5.4Y-3.3
X5.4Y-3.4
X5.4Y-3.5
X5.4Y-3.6
X5.4Y-3.7
X5.4Y-3.8
X5.4Y-3.9
X5.4Y-4.0
X5.4Y-4.825
X5.8Y-4.45
X5.8Y-4.6469
X5.8Y-4.825
X5.9Y-4.4516
X5.9Y-4.6484
X6.0Y-4.7
X6.0Y-4.825
X6.05Y-2.1496
X6.05Y-2.2496
X6.05Y-2.3496
X6.05Y-2.4496
X6.05Y-2.5496
X6.05Y-2.6496
X6.05Y-2.7496
X6.05Y-2.8496
X6.05Y-2.9496
X6.35Y-2.1496
X6.35Y-2.2496
X6.35Y-2.3496
X6.35Y-2.4496
X6.35Y-2.5496
X6.35Y-2.6496
X6.35Y-2.7496
X6.35Y-2.8496
X6.35Y-2.9496
X6.4Y-4.7
X6.4Y-4.825
X7.056Y-4.62
X7.456Y-3.41
X7.456Y-4.01
X7.456Y-4.62
X7.556Y-3.535
X7.556Y-4.136
X7.556Y-4.62
X7.856Y-3.41
X7.856Y-4.01
X7.956Y-3.535
X7.956Y-4.136
X7.956Y-4.62
T3
X6.6559Y-3.125
X6.6559Y-3.225
X6.6559Y-3.725
X6.6559Y-3.825
X6.6559Y-4.325
X6.6559Y-4.425
X6.7559Y-3.125
X6.7559Y-3.225
X6.7559Y-3.725
X6.7559Y-3.825
X6.7559Y-4.325
X6.7559Y-4.425
X6.8559Y-3.125
X6.8559Y-3.225
X6.8559Y-3.725
X6.8559Y-3.825
X6.8559Y-4.325
X6.8559Y-4.425
X6.9559Y-3.125
X6.9559Y-3.225
X6.9559Y-3.725
X6.9559Y-3.825
X6.9559Y-4.325
X6.9559Y-4.425
X7.0559Y-3.125
X7.0559Y-3.225
X7.0559Y-3.725
X7.0559Y-3.825
X7.0559Y-4.325
X7.0559Y-4.425
X7.1559Y-3.125
X7.1559Y-3.225
X7.1559Y-3.725
X7.1559Y-3.825
X7.1559Y-4.325
X7.1559Y-4.425
X7.2559Y-3.125
X7.2559Y-3.225
X7.2559Y-3.725
X7.2559Y-3.825
X7.2559Y-4.325
X7.2559Y-4.425
X7.3559Y-3.125
X7.3559Y-3.225
X7.3559Y-3.725
X7.3559Y-3.825
X7.3559Y-4.325
X7.3559Y-4.425
X7.4559Y-3.125
X7.4559Y-3.225
X7.4559Y-3.725
X7.4559Y-3.825
X7.4559Y-4.325
X7.4559Y-4.425
X7.5559Y-3.125
X7.5559Y-3.225
X7.5559Y-3.725
X7.5559Y-3.825
X7.5559Y-4.325
X7.5559Y-4.425
X7.6559Y-3.125
X7.6559Y-3.225
X7.6559Y-3.725
X7.6559Y-3.825
X7.6559Y-4.325
X7.6559Y-4.425
X7.7559Y-3.125
X7.7559Y-3.225
X7.7559Y-3.725
X7.7559Y-3.825
X7.7559Y-4.325
X7.7559Y-4.425
X7.8559Y-3.125
X7.8559Y-3.225
X7.8559Y-3.725
X7.8559Y-3.825
X7.8559Y-4.325
X7.8559Y-4.425
X7.9559Y-3.125
X7.9559Y-3.225
X7.9559Y-3.725
X7.9559Y-3.825
X7.9559Y-4.325
X7.9559Y-4.425
X8.0559Y-3.125
X8.0559Y-3.225
X8.0559Y-3.725
X8.0559Y-3.825
X8.0559Y-4.325
X8.0559Y-4.425
X8.1559Y-3.125
X8.1559Y-3.225
X8.1559Y-3.725
X8.1559Y-3.825
X8.1559Y-4.325
X8.1559Y-4.425
X8.2559Y-3.125
X8.2559Y-3.225
X8.2559Y-3.725
X8.2559Y-3.825
X8.2559Y-4.325
X8.2559Y-4.425
T4
X5.65Y-3.175
X5.65Y-3.275
X5.65Y-3.375
X5.65Y-3.475
X5.65Y-3.575
X5.65Y-3.675
X5.65Y-3.775
X5.65Y-3.875
X5.65Y-3.975
X5.65Y-4.075
X6.25Y-3.3748
X6.25Y-3.4748
X6.25Y-3.5748
X6.25Y-3.6748
X6.25Y-3.7748
X6.25Y-3.8748
X6.6043Y-2.2258
X6.6043Y-2.3242
X6.6043Y-2.6258
X6.6043Y-2.7242
X6.6258Y-4.8457
X6.7242Y-4.8457
X7.0258Y-4.8457
X7.0293Y-2.2258
X7.0293Y-2.3242
X7.0293Y-2.6258
X7.0293Y-2.7242
X7.1242Y-4.8457
X7.4524Y-4.8457
X7.4543Y-2.2258
X7.4543Y-2.3242
X7.4543Y-2.6258
X7.4543Y-2.7242
X7.5508Y-4.8457
X7.6492Y-4.8457
X7.7476Y-4.8457
X7.8793Y-2.2258
X7.8793Y-2.3242
X7.8793Y-2.6258
X7.8793Y-2.7242
X8.1004Y-3.45
X8.1004Y-4.05
X8.1004Y-4.65
X8.2004Y-3.45
X8.2004Y-4.05
X8.2004Y-4.65
X8.3004Y-3.45
X8.3004Y-4.05
X8.3004Y-4.65
X8.3043Y-2.2258
X8.3043Y-2.3242
X8.3043Y-2.6258
X8.3043Y-2.7242
X8.4004Y-3.45
X8.4004Y-4.05
X8.4004Y-4.65
T5
X4.3Y-2.4
X4.3Y-2.5
X4.3Y-2.6
X4.3Y-2.7
X4.3Y-2.8
X4.3Y-2.9
X4.3Y-3.0
X4.3Y-3.1
X4.3Y-3.2
X4.3Y-3.3
X4.3Y-3.4
X4.3Y-3.5
X4.3Y-3.6
X4.3Y-3.7
X4.3Y-3.8
X4.9Y-2.4
X4.9Y-2.5
X4.9Y-2.6
X4.9Y-2.7
X4.9Y-2.8
X4.9Y-2.9
X4.9Y-3.0
X4.9Y-3.1
X4.9Y-3.2
X4.9Y-3.3
X4.9Y-3.4
X4.9Y-3.5
X4.9Y-3.6
X4.9Y-3.7
X4.9Y-3.8
T4
G00X4.335Y-4.4229
M15
G01X4.335Y-4.5017
M16
G05
G00X4.4137Y-4.6473
M15
G01X4.4925Y-4.6473
M16
G05
G00X4.5712Y-4.4229
M15
G01X4.5712Y-4.5017
M16
G05
T0
M30
